<svg width="280" height="280" viewBox="0 0 280 280" fill="none" xmlns="http://www.w3.org/2000/svg">
<path d="M140.7 248.155C193.277 248.155 235.9 205.532 235.9 152.955C235.9 100.377 193.277 57.7546 140.7 57.7546C88.1225 57.7546 45.5 100.377 45.5 152.955C45.5 205.532 88.1225 248.155 140.7 248.155Z" fill="#E7F1FF"/>
<g filter="url(#filter0_d_3208_2005)">
<path d="M195.282 112.336H86.1191C82.614 112.336 79.7725 115.177 79.7725 118.682V251.962C79.7725 255.468 82.614 258.309 86.1191 258.309H195.282C198.787 258.309 201.628 255.468 201.628 251.962V118.682C201.628 115.177 198.787 112.336 195.282 112.336Z" fill="white"/>
</g>
<path d="M128.006 131.376H95.0033C92.9002 131.376 91.1953 133.081 91.1953 135.184C91.1953 137.287 92.9002 138.992 95.0033 138.992H128.006C130.109 138.992 131.814 137.287 131.814 135.184C131.814 133.081 130.109 131.376 128.006 131.376Z" fill="#7EB2FF"/>
<path d="M150.854 147.877H95.0033C92.9002 147.877 91.1953 149.582 91.1953 151.685C91.1953 153.788 92.9002 155.493 95.0033 155.493H150.854C152.957 155.493 154.662 153.788 154.662 151.685C154.662 149.582 152.957 147.877 150.854 147.877Z" fill="#E7F1FF"/>
<path d="M128.006 165.648H95.0033C92.9002 165.648 91.1953 167.353 91.1953 169.456C91.1953 171.559 92.9002 173.264 95.0033 173.264H128.006C130.109 173.264 131.814 171.559 131.814 169.456C131.814 167.353 130.109 165.648 128.006 165.648Z" fill="#7EB2FF"/>
<path d="M150.854 182.149H95.0033C92.9002 182.149 91.1953 183.854 91.1953 185.957C91.1953 188.06 92.9002 189.765 95.0033 189.765H150.854C152.957 189.765 154.662 188.06 154.662 185.957C154.662 183.854 152.957 182.149 150.854 182.149Z" fill="#E7F1FF"/>
<path d="M128.006 199.92H95.0033C92.9002 199.92 91.1953 201.625 91.1953 203.728C91.1953 205.831 92.9002 207.536 95.0033 207.536H128.006C130.109 207.536 131.814 205.831 131.814 203.728C131.814 201.625 130.109 199.92 128.006 199.92Z" fill="#7EB2FF"/>
<path d="M150.854 216.421H95.0033C92.9002 216.421 91.1953 218.126 91.1953 220.229C91.1953 222.333 92.9002 224.037 95.0033 224.037H150.854C152.957 224.037 154.662 222.333 154.662 220.229C154.662 218.126 152.957 216.421 150.854 216.421Z" fill="#E7F1FF"/>
<g filter="url(#filter1_d_3208_2005)">
<path d="M195.282 47.6H86.1191C82.614 47.6 79.7725 50.4415 79.7725 53.9466V92.0266C79.7725 95.5318 82.614 98.3733 86.1191 98.3733H195.282C198.787 98.3733 201.628 95.5318 201.628 92.0266V53.9466C201.628 50.4415 198.787 47.6 195.282 47.6Z" fill="#146EF5"/>
</g>
<path d="M128.006 61.5627H95.0033C92.9002 61.5627 91.1953 63.2676 91.1953 65.3707C91.1953 67.4738 92.9002 69.1787 95.0033 69.1787H128.006C130.109 69.1787 131.814 67.4738 131.814 65.3707C131.814 63.2676 130.109 61.5627 128.006 61.5627Z" fill="#7EB2FF"/>
<path d="M150.854 78.0642H95.0033C92.9002 78.0642 91.1953 79.7691 91.1953 81.8722C91.1953 83.9753 92.9002 85.6802 95.0033 85.6802H150.854C152.957 85.6802 154.662 83.9753 154.662 81.8722C154.662 79.7691 152.957 78.0642 150.854 78.0642Z" fill="white"/>
<path d="M224.359 52.6331C193.137 37.3441 167.146 55.9519 167.308 75.9736C167.423 90.1004 169.744 110.49 191.695 119.085C213.645 127.679 226.382 110.231 217.385 101.428C208.386 92.6266 163.959 81.917 151.982 111.496C143.341 132.84 166.426 154.316 166.426 154.316" stroke="#7EB2FF" stroke-width="2" stroke-dasharray="7"/>
<path fill-rule="evenodd" clip-rule="evenodd" d="M250.785 47.4833C250.785 47.4833 261.707 38.9119 264.749 34.854C266.339 32.7346 266.364 24.1948 258.491 27.3902C250.617 30.5856 248.339 38.9236 250.785 47.4833Z" fill="#7EB2FF"/>
<path fill-rule="evenodd" clip-rule="evenodd" d="M242.934 26.3171C238.957 21.6415 235.911 21.6037 233.376 23.6524C230.839 25.7015 229.188 31.5052 236.029 37.1525C242.87 42.8002 250.355 47.2257 250.355 47.2257C250.355 47.2257 246.911 30.9927 242.934 26.3171Z" fill="#7EB2FF"/>
<path fill-rule="evenodd" clip-rule="evenodd" d="M248.62 49.1811C249.012 48.784 249.429 48.4281 249.857 48.0926C248.849 47.6863 247.789 47.3291 246.68 47.0407C245.478 46.727 244.288 46.5475 243.121 46.4593C242.289 46.9623 241.502 47.5601 240.791 48.2821C236.41 52.7267 236.252 59.7576 240.237 64.4785C240.845 64.6963 241.465 64.8987 242.107 65.0664C243.902 65.5339 245.665 65.786 247.349 65.8628C243.74 60.7809 244.134 53.7317 248.62 49.1811Z" fill="#7EB2FF"/>
<path fill-rule="evenodd" clip-rule="evenodd" d="M239.837 47.6049C240.265 47.1628 240.722 46.7688 241.189 46.3966C235.187 46.5764 230.174 49.4337 229.067 52.1886C225.582 51.7192 223.215 51.6649 223.215 51.6649C223.215 51.6649 225.402 52.7588 228.8 53.999C229.003 57.3622 232.571 61.6702 237.917 64.0951C234.789 59.036 235.427 52.1697 239.837 47.6049Z" fill="#7EB2FF"/>
<path fill-rule="evenodd" clip-rule="evenodd" d="M253.07 58.0976C252.087 57.1334 252.066 55.5523 253.035 54.5621C253.999 53.5793 255.586 53.5637 256.569 54.5274C257.557 55.4965 257.568 57.0778 256.605 58.062C255.635 59.0508 254.06 59.0664 253.07 58.0976ZM259.03 59.5695C260.024 55.8125 256.764 51.6109 251.409 49.1721C250.902 49.5428 250.41 49.9595 249.957 50.4255C245.992 54.5104 245.706 60.8384 249.088 65.1187C254.13 64.9837 258.151 62.9233 259.03 59.5695Z" fill="#7EB2FF"/>
<defs>
<filter id="filter0_d_3208_2005" x="73.7725" y="103.336" width="133.856" height="157.973" filterUnits="userSpaceOnUse" color-interpolation-filters="sRGB">
<feFlood flood-opacity="0" result="BackgroundImageFix"/>
<feColorMatrix in="SourceAlpha" type="matrix" values="0 0 0 0 0 0 0 0 0 0 0 0 0 0 0 0 0 0 127 0" result="hardAlpha"/>
<feOffset dy="-3"/>
<feGaussianBlur stdDeviation="3"/>
<feColorMatrix type="matrix" values="0 0 0 0 0.788235 0 0 0 0 0.803922 0 0 0 0 0.85098 0 0 0 0.349 0"/>
<feBlend mode="normal" in2="BackgroundImageFix" result="effect1_dropShadow_3208_2005"/>
<feBlend mode="normal" in="SourceGraphic" in2="effect1_dropShadow_3208_2005" result="shape"/>
</filter>
<filter id="filter1_d_3208_2005" x="73.7725" y="38.6" width="133.856" height="62.7733" filterUnits="userSpaceOnUse" color-interpolation-filters="sRGB">
<feFlood flood-opacity="0" result="BackgroundImageFix"/>
<feColorMatrix in="SourceAlpha" type="matrix" values="0 0 0 0 0 0 0 0 0 0 0 0 0 0 0 0 0 0 127 0" result="hardAlpha"/>
<feOffset dy="-3"/>
<feGaussianBlur stdDeviation="3"/>
<feColorMatrix type="matrix" values="0 0 0 0 0.788235 0 0 0 0 0.803922 0 0 0 0 0.85098 0 0 0 0.349 0"/>
<feBlend mode="normal" in2="BackgroundImageFix" result="effect1_dropShadow_3208_2005"/>
<feBlend mode="normal" in="SourceGraphic" in2="effect1_dropShadow_3208_2005" result="shape"/>
</filter>
</defs>
</svg>
