<svg width="181" height="180" viewBox="0 0 181 180" fill="none" xmlns="http://www.w3.org/2000/svg">
<path d="M11 146.364V131.091H13.8736V133.517H14.0327C14.3111 132.695 14.8016 132.049 15.5043 131.578C16.2135 131.101 17.0156 130.862 17.9105 130.862C18.0961 130.862 18.3149 130.869 18.5668 130.882C18.8253 130.895 19.0275 130.912 19.1733 130.932V133.776C19.054 133.742 18.8419 133.706 18.5369 133.666C18.232 133.62 17.9271 133.597 17.6222 133.597C16.9195 133.597 16.2931 133.746 15.7429 134.044C15.1993 134.336 14.7685 134.743 14.4503 135.267C14.1321 135.784 13.973 136.374 13.973 137.037V146.364H11Z" fill="#707070"/>
<path d="M27.7816 146.672C26.2769 146.672 24.9809 146.35 23.8938 145.707C22.8133 145.058 21.9781 144.146 21.3881 142.973C20.8048 141.793 20.5131 140.411 20.5131 138.827C20.5131 137.262 20.8048 135.884 21.3881 134.69C21.9781 133.497 22.8001 132.566 23.854 131.896C24.9147 131.227 26.1542 130.892 27.5728 130.892C28.4345 130.892 29.2698 131.035 30.0785 131.32C30.8872 131.605 31.613 132.052 32.256 132.662C32.899 133.272 33.4061 134.064 33.7773 135.038C34.1486 136.006 34.3342 137.183 34.3342 138.568V139.622H22.1935V137.395H31.4208C31.4208 136.613 31.2617 135.92 30.9435 135.317C30.6254 134.707 30.1779 134.226 29.6012 133.875C29.0311 133.524 28.3616 133.348 27.5927 133.348C26.7575 133.348 26.0283 133.554 25.4052 133.964C24.7887 134.369 24.3114 134.899 23.9734 135.555C23.6419 136.205 23.4762 136.911 23.4762 137.673V139.413C23.4762 140.434 23.6552 141.303 24.0131 142.018C24.3777 142.734 24.8848 143.281 25.5344 143.659C26.1841 144.03 26.9431 144.216 27.8114 144.216C28.3749 144.216 28.8886 144.136 29.3526 143.977C29.8166 143.812 30.2177 143.566 30.5558 143.241C30.8938 142.917 31.1523 142.516 31.3313 142.038L34.1452 142.545C33.9199 143.374 33.5155 144.1 32.9322 144.723C32.3555 145.339 31.6296 145.82 30.7546 146.165C29.8862 146.503 28.8952 146.672 27.7816 146.672Z" fill="#707070"/>
<path d="M42.0774 146.702C41.1096 146.702 40.2346 146.523 39.4524 146.165C38.6702 145.8 38.0504 145.273 37.593 144.584C37.1423 143.894 36.9169 143.049 36.9169 142.048C36.9169 141.187 37.0826 140.477 37.4141 139.92C37.7455 139.364 38.1929 138.923 38.7564 138.598C39.3198 138.273 39.9496 138.028 40.6456 137.862C41.3416 137.696 42.0509 137.571 42.7734 137.484C43.6882 137.378 44.4306 137.292 45.0007 137.226C45.5708 137.153 45.9851 137.037 46.2436 136.878C46.5021 136.719 46.6314 136.46 46.6314 136.102V136.033C46.6314 135.164 46.3861 134.491 45.8956 134.014C45.4117 133.537 44.6892 133.298 43.728 133.298C42.727 133.298 41.9382 133.52 41.3615 133.964C40.7914 134.402 40.397 134.889 40.1783 135.426L37.3842 134.79C37.7157 133.862 38.1996 133.113 38.8359 132.543C39.4789 131.966 40.218 131.548 41.0533 131.29C41.8885 131.025 42.7668 130.892 43.6882 130.892C44.2981 130.892 44.9444 130.965 45.6271 131.111C46.3165 131.25 46.9595 131.509 47.5561 131.886C48.1593 132.264 48.6532 132.804 49.0376 133.507C49.4221 134.203 49.6143 135.108 49.6143 136.222V146.364H46.7109V144.276H46.5916C46.3994 144.66 46.111 145.038 45.7266 145.409C45.3421 145.78 44.8482 146.089 44.245 146.334C43.6418 146.579 42.9193 146.702 42.0774 146.702ZM42.7237 144.315C43.5457 144.315 44.2483 144.153 44.8317 143.828C45.4216 143.503 45.8691 143.079 46.174 142.555C46.4856 142.025 46.6413 141.458 46.6413 140.855V138.886C46.5353 138.992 46.3298 139.092 46.0249 139.185C45.7266 139.271 45.3852 139.347 45.0007 139.413C44.6162 139.473 44.2417 139.529 43.8771 139.582C43.5126 139.629 43.2076 139.669 42.9624 139.702C42.3857 139.775 41.8587 139.897 41.3814 140.07C40.9107 140.242 40.5329 140.491 40.2479 140.815C39.9695 141.134 39.8303 141.558 39.8303 142.088C39.8303 142.824 40.102 143.381 40.6456 143.759C41.1892 144.13 41.8819 144.315 42.7237 144.315Z" fill="#707070"/>
<path d="M59.2915 146.662C58.0586 146.662 56.9582 146.347 55.9904 145.717C55.0292 145.081 54.2736 144.176 53.7234 143.003C53.1798 141.823 52.908 140.408 52.908 138.757C52.908 137.107 53.1831 135.695 53.7333 134.521C54.2901 133.348 55.0524 132.45 56.0202 131.827C56.988 131.204 58.0851 130.892 59.3114 130.892C60.2594 130.892 61.0217 131.051 61.5984 131.369C62.1817 131.681 62.6325 132.045 62.9506 132.463C63.2754 132.881 63.5273 133.249 63.7063 133.567H63.8853V126H66.8583V146.364H63.9549V143.987H63.7063C63.5273 144.312 63.2688 144.683 62.9308 145.101C62.5993 145.518 62.1419 145.883 61.5586 146.195C60.9753 146.506 60.2196 146.662 59.2915 146.662ZM59.9478 144.126C60.8029 144.126 61.5255 143.901 62.1154 143.45C62.712 142.993 63.1628 142.36 63.4677 141.551C63.7792 140.742 63.935 139.801 63.935 138.727C63.935 137.667 63.7826 136.739 63.4776 135.943C63.1727 135.148 62.7253 134.528 62.1353 134.084C61.5453 133.64 60.8162 133.418 59.9478 133.418C59.0529 133.418 58.3072 133.65 57.7106 134.114C57.114 134.578 56.6632 135.211 56.3583 136.013C56.06 136.815 55.9109 137.72 55.9109 138.727C55.9109 139.748 56.0633 140.666 56.3683 141.482C56.6732 142.297 57.1239 142.943 57.7205 143.42C58.3237 143.891 59.0662 144.126 59.9478 144.126Z" fill="#707070"/>
<path d="M72.9808 152.091C72.5367 152.091 72.1323 152.054 71.7678 151.982C71.4032 151.915 71.1314 151.842 70.9524 151.763L71.6683 149.327C72.2119 149.473 72.6958 149.536 73.12 149.516C73.5443 149.496 73.9188 149.337 74.2436 149.038C74.575 148.74 74.8667 148.253 75.1186 147.577L75.4865 146.562L69.8984 131.091H73.0803L76.9482 142.943H77.1072L80.9751 131.091H84.1669L77.8729 148.402C77.5812 149.197 77.21 149.87 76.7592 150.42C76.3085 150.977 75.7715 151.395 75.1484 151.673C74.5253 151.952 73.8028 152.091 72.9808 152.091Z" fill="#707070"/>
<path d="M98.8372 134.82L96.1426 135.297C96.0299 134.952 95.8509 134.624 95.6056 134.312C95.367 134.001 95.0422 133.746 94.6312 133.547C94.2202 133.348 93.7065 133.249 93.09 133.249C92.2482 133.249 91.5455 133.438 90.9821 133.815C90.4186 134.187 90.1369 134.667 90.1369 135.257C90.1369 135.768 90.3258 136.179 90.7037 136.49C91.0815 136.802 91.6913 137.057 92.5332 137.256L94.9593 137.812C96.3646 138.137 97.412 138.638 98.1014 139.314C98.7908 139.99 99.1355 140.868 99.1355 141.949C99.1355 142.864 98.8703 143.679 98.34 144.395C97.8163 145.104 97.0839 145.661 96.1426 146.065C95.2079 146.47 94.1241 146.672 92.8912 146.672C91.1809 146.672 89.7856 146.307 88.7051 145.578C87.6246 144.842 86.9617 143.798 86.7164 142.446L89.59 142.009C89.769 142.758 90.1369 143.324 90.6937 143.709C91.2505 144.087 91.9764 144.276 92.8713 144.276C93.8457 144.276 94.6246 144.073 95.2079 143.669C95.7913 143.258 96.0829 142.758 96.0829 142.168C96.0829 141.69 95.9039 141.289 95.546 140.964C95.1947 140.64 94.6544 140.394 93.9252 140.229L91.34 139.662C89.9148 139.337 88.8609 138.82 88.1781 138.111C87.502 137.402 87.1639 136.503 87.1639 135.416C87.1639 134.515 87.4158 133.726 87.9196 133.05C88.4233 132.374 89.1194 131.847 90.0076 131.469C90.8959 131.084 91.9134 130.892 93.0602 130.892C94.7108 130.892 96.01 131.25 96.9579 131.966C97.9058 132.675 98.5323 133.626 98.8372 134.82Z" fill="#146EF5"/>
<path d="M108.987 146.672C107.482 146.672 106.186 146.35 105.099 145.707C104.018 145.058 103.183 144.146 102.593 142.973C102.01 141.793 101.718 140.411 101.718 138.827C101.718 137.262 102.01 135.884 102.593 134.69C103.183 133.497 104.005 132.566 105.059 131.896C106.12 131.227 107.359 130.892 108.778 130.892C109.64 130.892 110.475 131.035 111.284 131.32C112.092 131.605 112.818 132.052 113.461 132.662C114.104 133.272 114.611 134.064 114.982 135.038C115.354 136.006 115.539 137.183 115.539 138.568V139.622H103.399V137.395H112.626C112.626 136.613 112.467 135.92 112.149 135.317C111.83 134.707 111.383 134.226 110.806 133.875C110.236 133.524 109.567 133.348 108.798 133.348C107.963 133.348 107.233 133.554 106.61 133.964C105.994 134.369 105.517 134.899 105.178 135.555C104.847 136.205 104.681 136.911 104.681 137.673V139.413C104.681 140.434 104.86 141.303 105.218 142.018C105.583 142.734 106.09 143.281 106.74 143.659C107.389 144.03 108.148 144.216 109.017 144.216C109.58 144.216 110.094 144.136 110.558 143.977C111.022 143.812 111.423 143.566 111.761 143.241C112.099 142.917 112.357 142.516 112.536 142.038L115.35 142.545C115.125 143.374 114.721 144.1 114.137 144.723C113.561 145.339 112.835 145.82 111.96 146.165C111.091 146.503 110.1 146.672 108.987 146.672Z" fill="#146EF5"/>
<path d="M118.838 146.364V131.091H121.711V133.517H121.871C122.149 132.695 122.64 132.049 123.342 131.578C124.051 131.101 124.854 130.862 125.748 130.862C125.934 130.862 126.153 130.869 126.405 130.882C126.663 130.895 126.865 130.912 127.011 130.932V133.776C126.892 133.742 126.68 133.706 126.375 133.666C126.07 133.62 125.765 133.597 125.46 133.597C124.757 133.597 124.131 133.746 123.581 134.044C123.037 134.336 122.606 134.743 122.288 135.267C121.97 135.784 121.811 136.374 121.811 137.037V146.364H118.838Z" fill="#146EF5"/>
<path d="M143.114 131.091L137.576 146.364H134.394L128.846 131.091H132.037L135.905 142.844H136.064L139.922 131.091H143.114Z" fill="#146EF5"/>
<path d="M151.971 146.672C150.466 146.672 149.17 146.35 148.083 145.707C147.003 145.058 146.168 144.146 145.578 142.973C144.994 141.793 144.703 140.411 144.703 138.827C144.703 137.262 144.994 135.884 145.578 134.69C146.168 133.497 146.99 132.566 148.044 131.896C149.104 131.227 150.344 130.892 151.762 130.892C152.624 130.892 153.459 131.035 154.268 131.32C155.077 131.605 155.803 132.052 156.445 132.662C157.088 133.272 157.596 134.064 157.967 135.038C158.338 136.006 158.524 137.183 158.524 138.568V139.622H146.383V137.395H155.61C155.61 136.613 155.451 135.92 155.133 135.317C154.815 134.707 154.367 134.226 153.791 133.875C153.221 133.524 152.551 133.348 151.782 133.348C150.947 133.348 150.218 133.554 149.595 133.964C148.978 134.369 148.501 134.899 148.163 135.555C147.831 136.205 147.666 136.911 147.666 137.673V139.413C147.666 140.434 147.845 141.303 148.203 142.018C148.567 142.734 149.074 143.281 149.724 143.659C150.374 144.03 151.133 144.216 152.001 144.216C152.564 144.216 153.078 144.136 153.542 143.977C154.006 143.812 154.407 143.566 154.745 143.241C155.083 142.917 155.342 142.516 155.521 142.038L158.335 142.545C158.109 143.374 157.705 144.1 157.122 144.723C156.545 145.339 155.819 145.82 154.944 146.165C154.076 146.503 153.085 146.672 151.971 146.672Z" fill="#146EF5"/>
<path d="M161.822 146.364V131.091H164.696V133.517H164.855C165.133 132.695 165.624 132.049 166.327 131.578C167.036 131.101 167.838 130.862 168.733 130.862C168.918 130.862 169.137 130.869 169.389 130.882C169.648 130.895 169.85 130.912 169.996 130.932V133.776C169.876 133.742 169.664 133.706 169.359 133.666C169.054 133.62 168.749 133.597 168.444 133.597C167.742 133.597 167.115 133.746 166.565 134.044C166.022 134.336 165.591 134.743 165.273 135.267C164.954 135.784 164.795 136.374 164.795 137.037V146.364H161.822Z" fill="#146EF5"/>
<path d="M38 28H55V108H38V28Z" fill="#707070"/>
<path d="M56.3784 28H72.5946C79.9998 28 86.5356 31.7228 90.4324 37.3989C94.3292 31.7228 100.865 28 108.27 28H137.632C139.734 28 140.897 30.4358 139.577 32.0708L131.514 42.0541H110.973C105.301 42.0541 100.703 46.6522 100.703 52.3243C100.703 57.9964 105.301 62.5946 110.973 62.5946H122C133.941 62.5946 143.622 72.2749 143.622 84.2162V86.3781C143.622 98.3195 133.941 108 122 108H102.865L97.837 98.7178C96.9347 97.052 98.1408 95.027 100.035 95.027H118.541C123.616 95.027 127.73 90.9129 127.73 85.8378C127.73 80.7628 123.616 76.6486 118.541 76.6486H108.27C101.314 76.6486 95.1254 73.3638 91.1703 68.2607C89.307 71.3802 86.6803 73.9909 83.5481 75.8349L100.703 108H82.8649L67.2973 78.8108H56.3784V65.8378H68.2703C74.8379 65.8378 80.1622 60.5137 80.1622 53.9459C80.1622 47.3782 74.8379 42.0541 68.2703 42.0541H56.3784V28Z" fill="#146EF5"/>
</svg>
