<svg width="235" height="40" viewBox="0 0 235 40" fill="none" xmlns="http://www.w3.org/2000/svg">
<path d="M15.915 27.091V11.8183H18.7868V14.2444H18.9458C19.224 13.4224 19.7142 12.7761 20.4164 12.3055C21.1252 11.8282 21.9268 11.5896 22.8211 11.5896C23.0066 11.5896 23.2252 11.5962 23.4769 11.6095C23.7353 11.6227 23.9373 11.6393 24.0831 11.6592V14.5029C23.9638 14.4698 23.7518 14.4333 23.4471 14.3935C23.1424 14.3471 22.8376 14.3239 22.5329 14.3239C21.8307 14.3239 21.2047 14.4731 20.6549 14.7714C20.1117 15.0631 19.6811 15.4707 19.3631 15.9944C19.0451 16.5114 18.8861 17.1014 18.8861 17.7643V27.091H15.915Z" fill="#707070"/>
<path d="M32.6858 27.3992C31.182 27.3992 29.887 27.0777 28.8005 26.4347C27.7207 25.7851 26.8861 24.8737 26.2965 23.7004C25.7135 22.5204 25.422 21.1383 25.422 19.5541C25.422 17.9897 25.7135 16.6109 26.2965 15.4177C26.8861 14.2245 27.7075 13.2932 28.7608 12.6237C29.8207 11.9542 31.0595 11.6194 32.4771 11.6194C33.3383 11.6194 34.173 11.7619 34.9812 12.047C35.7894 12.332 36.5148 12.7794 37.1573 13.3893C37.7999 13.9991 38.3067 14.7913 38.6777 15.7657C39.0486 16.7335 39.2341 17.9101 39.2341 19.2955V20.3495H27.1013V18.1222H36.3227C36.3227 17.34 36.1637 16.6473 35.8457 16.0441C35.5277 15.4343 35.0806 14.9537 34.5042 14.6024C33.9345 14.251 33.2654 14.0754 32.497 14.0754C31.6623 14.0754 30.9336 14.2809 30.3109 14.6918C29.6948 15.0962 29.2179 15.6265 28.88 16.2828C28.5488 16.9324 28.3832 17.6383 28.3832 18.4007V20.1407C28.3832 21.1615 28.562 22.0299 28.9198 22.7458C29.2841 23.4617 29.7909 24.0086 30.4401 24.3864C31.0893 24.7577 31.8478 24.9433 32.7156 24.9433C33.2787 24.9433 33.7921 24.8637 34.2558 24.7046C34.7195 24.5389 35.1203 24.2936 35.4582 23.9688C35.796 23.644 36.0544 23.243 36.2332 22.7657L39.0453 23.2728C38.8201 24.1014 38.416 24.8273 37.833 25.4504C37.2567 26.0668 36.5313 26.5474 35.6569 26.8921C34.7891 27.2302 33.7987 27.3992 32.6858 27.3992Z" fill="#707070"/>
<path d="M46.9724 27.4291C46.0052 27.4291 45.1308 27.2501 44.3491 26.8921C43.5674 26.5275 42.948 26.0006 42.4909 25.3112C42.0404 24.6218 41.8152 23.7766 41.8152 22.7757C41.8152 21.9139 41.9808 21.2046 42.312 20.6478C42.6433 20.091 43.0904 19.6502 43.6535 19.3254C44.2166 19.0006 44.8459 18.7553 45.5415 18.5896C46.2371 18.4239 46.9459 18.2979 47.668 18.2117C48.5821 18.1057 49.3241 18.0195 49.8938 17.9532C50.4635 17.8803 50.8775 17.7643 51.1359 17.6052C51.3942 17.4461 51.5234 17.1876 51.5234 16.8296V16.76C51.5234 15.8917 51.2783 15.2188 50.7881 14.7416C50.3045 14.2643 49.5824 14.0257 48.6219 14.0257C47.6216 14.0257 46.8333 14.2477 46.2569 14.6918C45.6872 15.1293 45.2931 15.6166 45.0745 16.1535L42.2822 15.5171C42.6135 14.5891 43.097 13.84 43.733 13.27C44.3756 12.6933 45.1142 12.2757 45.9489 12.0171C46.7836 11.752 47.6613 11.6194 48.5821 11.6194C49.1916 11.6194 49.8375 11.6923 50.5198 11.8382C51.2088 11.9774 51.8513 12.2359 52.4475 12.6137C53.0504 12.9916 53.5439 13.5318 53.9281 14.2345C54.3123 14.9305 54.5044 15.8353 54.5044 16.9489V27.091H51.6029V25.0029H51.4837C51.2916 25.3874 51.0034 25.7652 50.6192 26.1364C50.235 26.5077 49.7414 26.8159 49.1386 27.0612C48.5358 27.3064 47.8137 27.4291 46.9724 27.4291ZM47.6183 25.0427C48.4397 25.0427 49.1419 24.8803 49.7249 24.5555C50.3144 24.2307 50.7616 23.8064 51.0663 23.2828C51.3777 22.7525 51.5334 22.1857 51.5334 21.5825V19.6137C51.4274 19.7198 51.222 19.8192 50.9173 19.912C50.6192 19.9982 50.278 20.0744 49.8938 20.1407C49.5096 20.2004 49.1353 20.2567 48.7709 20.3097C48.4066 20.3561 48.1019 20.3959 47.8568 20.4291C47.2804 20.502 46.7538 20.6246 46.2768 20.797C45.8065 20.9693 45.4289 21.2179 45.144 21.5427C44.8658 21.8609 44.7267 22.2851 44.7267 22.8154C44.7267 23.5512 44.9983 24.108 45.5415 24.4859C46.0847 24.8571 46.777 25.0427 47.6183 25.0427Z" fill="#707070"/>
<path d="M64.1754 27.3893C62.9432 27.3893 61.8436 27.0744 60.8764 26.4447C59.9158 25.8083 59.1606 24.9035 58.6108 23.7302C58.0676 22.5503 57.796 21.135 57.796 19.4845C57.796 17.8339 58.0709 16.422 58.6208 15.2487C59.1772 14.0754 59.939 13.1772 60.9062 12.5541C61.8734 11.931 62.9697 11.6194 64.1953 11.6194C65.1426 11.6194 65.9044 11.7785 66.4807 12.0967C67.0637 12.4082 67.5141 12.7728 67.8321 13.1904C68.1567 13.608 68.4085 13.9759 68.5873 14.2941H68.7662V6.72736H71.7373V27.091H68.8357V24.7146H68.5873C68.4085 25.0394 68.1501 25.4106 67.8122 25.8282C67.481 26.2458 67.0239 26.6104 66.441 26.922C65.858 27.2335 65.1028 27.3893 64.1754 27.3893ZM64.8312 24.8538C65.6858 24.8538 66.4079 24.6284 66.9974 24.1776C67.5936 23.7203 68.0441 23.0872 68.3488 22.2785C68.6602 21.4698 68.8159 20.5285 68.8159 19.4546C68.8159 18.394 68.6635 17.466 68.3588 16.6705C68.054 15.8751 67.6069 15.2553 67.0173 14.8112C66.4277 14.367 65.699 14.145 64.8312 14.145C63.9369 14.145 63.1917 14.377 62.5955 14.841C61.9992 15.305 61.5488 15.9381 61.2441 16.7401C60.9459 17.5422 60.7969 18.4471 60.7969 19.4546C60.7969 20.4755 60.9493 21.3935 61.254 22.2089C61.5587 23.0242 62.0092 23.6705 62.6054 24.1478C63.2082 24.6185 63.9502 24.8538 64.8312 24.8538Z" fill="#707070"/>
<path d="M77.8558 32.8183C77.412 32.8183 77.0079 32.7818 76.6435 32.7089C76.2792 32.6426 76.0076 32.5697 75.8287 32.4901L76.5442 30.0541C77.0874 30.1999 77.571 30.2629 77.9949 30.243C78.4189 30.2231 78.7932 30.064 79.1178 29.7657C79.449 29.4674 79.7405 28.9802 79.9922 28.3041L80.3599 27.2899L74.7754 11.8183H77.9552L81.8206 23.6705H81.9796L85.845 11.8183H89.0347L82.7447 29.1293C82.4532 29.9248 82.0823 30.5976 81.6318 31.1478C81.1813 31.7046 80.6447 32.1222 80.022 32.4007C79.3993 32.6791 78.6773 32.8183 77.8558 32.8183Z" fill="#707070"/>
<path d="M156.518 15.8254L153.825 16.3026C153.713 15.9579 153.534 15.6298 153.289 15.3183C153.05 15.0067 152.726 14.7515 152.315 14.5526C151.904 14.3538 151.391 14.2543 150.775 14.2543C149.933 14.2543 149.231 14.4433 148.668 14.8211C148.105 15.1923 147.824 15.6729 147.824 16.2629C147.824 16.7733 148.012 17.1843 148.39 17.4958C148.768 17.8074 149.377 18.0626 150.218 18.2614L152.643 18.8183C154.047 19.1431 155.094 19.6436 155.783 20.3197C156.472 20.9958 156.816 21.8741 156.816 22.9546C156.816 23.8694 156.551 24.6847 156.021 25.4007C155.498 26.1099 154.766 26.6668 153.825 27.0711C152.891 27.4755 151.808 27.6776 150.576 27.6776C148.867 27.6776 147.472 27.3131 146.393 26.5839C145.313 25.8481 144.65 24.8041 144.405 23.4518L147.277 23.0143C147.456 23.7633 147.824 24.3301 148.38 24.7146C148.936 25.0924 149.662 25.2813 150.556 25.2813C151.53 25.2813 152.308 25.0792 152.891 24.6748C153.474 24.2638 153.766 23.7633 153.766 23.1734C153.766 22.6961 153.587 22.2951 153.229 21.9703C152.878 21.6454 152.338 21.4002 151.609 21.2345L149.026 20.6677C147.602 20.3429 146.548 19.8258 145.866 19.1166C145.19 18.4073 144.852 17.5091 144.852 16.422C144.852 15.5204 145.104 14.7316 145.608 14.0555C146.111 13.3793 146.807 12.8524 147.694 12.4745C148.582 12.09 149.599 11.8978 150.745 11.8978C152.394 11.8978 153.693 12.2558 154.64 12.9717C155.587 13.681 156.213 14.6322 156.518 15.8254Z" fill="#146EF5"/>
<path d="M166.661 27.6776C165.157 27.6776 163.862 27.3561 162.776 26.7132C161.696 26.0635 160.861 25.1521 160.272 23.9788C159.689 22.7989 159.397 21.4167 159.397 19.8325C159.397 18.2681 159.689 16.8893 160.272 15.6961C160.861 14.5029 161.683 13.5716 162.736 12.9021C163.796 12.2326 165.035 11.8978 166.452 11.8978C167.314 11.8978 168.148 12.0403 168.957 12.3254C169.765 12.6104 170.49 13.0578 171.133 13.6677C171.775 14.2775 172.282 15.0697 172.653 16.0441C173.024 17.0119 173.209 18.1885 173.209 19.5739V20.6279H161.077V18.4007H170.298C170.298 17.6185 170.139 16.9257 169.821 16.3225C169.503 15.7127 169.056 15.2321 168.48 14.8808C167.91 14.5294 167.241 14.3538 166.472 14.3538C165.638 14.3538 164.909 14.5593 164.286 14.9703C163.67 15.3746 163.193 15.9049 162.855 16.5612C162.524 17.2108 162.359 17.9168 162.359 18.6791V20.4191C162.359 21.44 162.537 22.3083 162.895 23.0242C163.259 23.7401 163.766 24.287 164.415 24.6649C165.065 25.0361 165.823 25.2217 166.691 25.2217C167.254 25.2217 167.767 25.1421 168.231 24.983C168.695 24.8173 169.096 24.5721 169.433 24.2472C169.771 23.9224 170.03 23.5214 170.209 23.0441L173.021 23.5512C172.795 24.3798 172.391 25.1057 171.808 25.7288C171.232 26.3453 170.507 26.8258 169.632 27.1705C168.764 27.5086 167.774 27.6776 166.661 27.6776Z" fill="#146EF5"/>
<path d="M176.506 27.3694V12.0967H179.378V14.5228H179.537C179.815 13.7008 180.305 13.0545 181.007 12.5839C181.716 12.1066 182.518 11.868 183.412 11.868C183.598 11.868 183.816 11.8746 184.068 11.8879C184.326 11.9011 184.528 11.9177 184.674 11.9376V14.7813C184.555 14.7482 184.343 14.7117 184.038 14.672C183.733 14.6256 183.429 14.6024 183.124 14.6024C182.422 14.6024 181.796 14.7515 181.246 15.0498C180.703 15.3415 180.272 15.7491 179.954 16.2728C179.636 16.7899 179.477 17.3798 179.477 18.0427V27.3694H176.506Z" fill="#146EF5"/>
<path d="M200.767 12.0967L195.232 27.3694H192.052L186.507 12.0967H189.697L193.562 23.8495H193.721L197.577 12.0967H200.767Z" fill="#146EF5"/>
<path d="M209.618 27.6776C208.114 27.6776 206.819 27.3561 205.732 26.7132C204.653 26.0635 203.818 25.1521 203.228 23.9788C202.645 22.7989 202.354 21.4167 202.354 19.8325C202.354 18.2681 202.645 16.8893 203.228 15.6961C203.818 14.5029 204.639 13.5716 205.693 12.9021C206.753 12.2326 207.991 11.8978 209.409 11.8978C210.27 11.8978 211.105 12.0403 211.913 12.3254C212.721 12.6104 213.447 13.0578 214.089 13.6677C214.732 14.2775 215.239 15.0697 215.61 16.0441C215.981 17.0119 216.166 18.1885 216.166 19.5739V20.6279H204.033V18.4007H213.255C213.255 17.6185 213.096 16.9257 212.778 16.3225C212.46 15.7127 212.013 15.2321 211.436 14.8808C210.866 14.5294 210.197 14.3538 209.429 14.3538C208.594 14.3538 207.866 14.5593 207.243 14.9703C206.627 15.3746 206.15 15.9049 205.812 16.5612C205.481 17.2108 205.315 17.9168 205.315 18.6791V20.4191C205.315 21.44 205.494 22.3083 205.852 23.0242C206.216 23.7401 206.723 24.287 207.372 24.6649C208.021 25.0361 208.78 25.2217 209.648 25.2217C210.211 25.2217 210.724 25.1421 211.188 24.983C211.651 24.8173 212.052 24.5721 212.39 24.2472C212.728 23.9224 212.986 23.5214 213.165 23.0441L215.977 23.5512C215.752 24.3798 215.348 25.1057 214.765 25.7288C214.189 26.3453 213.463 26.8258 212.589 27.1705C211.721 27.5086 210.731 27.6776 209.618 27.6776Z" fill="#146EF5"/>
<path d="M219.463 27.3694V12.0967H222.334V14.5228H222.493C222.772 13.7008 223.262 13.0545 223.964 12.5839C224.673 12.1066 225.474 11.868 226.369 11.868C226.554 11.868 226.773 11.8746 227.024 11.8879C227.283 11.9011 227.485 11.9177 227.631 11.9376V14.7813C227.511 14.7482 227.299 14.7117 226.995 14.672C226.69 14.6256 226.385 14.6024 226.08 14.6024C225.378 14.6024 224.752 14.7515 224.202 15.0498C223.659 15.3415 223.229 15.7491 222.911 16.2728C222.593 16.7899 222.434 17.3798 222.434 18.0427V27.3694H219.463Z" fill="#146EF5"/>
<path d="M95 2H102.438V37H95V2Z" fill="#707070"/>
<path d="M103.041 2H110.135C113.375 2 116.234 3.62873 117.939 6.11204C119.644 3.62872 122.503 2 125.743 2H138.589C139.509 2 140.018 3.06568 139.44 3.78099L135.912 8.14865H126.926C124.444 8.14865 122.432 10.1603 122.432 12.6419C122.432 15.1234 124.444 17.1351 126.926 17.1351H131.75C136.974 17.1351 141.209 21.3703 141.209 26.5946V27.5404C141.209 32.7648 136.974 36.9999 131.75 36.9999H123.378L121.179 32.939C120.784 32.2103 121.312 31.3243 122.14 31.3243H130.236C132.457 31.3243 134.257 29.5244 134.257 27.3041C134.257 25.0837 132.457 23.2838 130.236 23.2838H125.743C122.7 23.2838 119.992 21.8467 118.262 19.6141C117.447 20.9788 116.298 22.121 114.927 22.9278L122.432 37H114.628L107.818 24.2297H103.041V18.5541H108.243C111.117 18.5541 113.446 16.2248 113.446 13.3514C113.446 10.4779 111.117 8.14865 108.243 8.14865H103.041V2Z" fill="#146EF5"/>
</svg>
