<svg width="512" height="512" viewBox="0 0 512 512" fill="none" xmlns="http://www.w3.org/2000/svg">
<g clip-path="url(#clip0_3988_2501)">
<path d="M430.008 -2.36926H82.0182C36.6997 -2.36926 0 34.6545 0 80.3551V431.29C0 476.962 36.6997 514 82.0182 514H430.008C475.317 514 511.997 476.962 511.997 431.29V80.3551C511.997 34.6545 475.317 -2.36926 430.008 -2.36926Z" fill="#1677FF"/>
<path d="M138.348 394.72C58.6947 394.72 35.1455 331.443 74.5102 296.823C87.6462 285.124 111.65 279.412 124.448 278.13C171.764 273.414 215.563 291.619 267.251 317.064C230.919 364.864 184.643 394.72 138.348 394.72ZM421.547 321.862C401.059 314.941 373.568 304.359 342.948 293.186C361.337 260.946 376.025 224.231 385.679 184.33H284.755V147.669H408.387V127.205H284.755V66.0909H234.3C225.449 66.0909 225.449 74.903 225.449 74.903V127.205H100.41V147.669H225.449V184.33H122.213V204.789H322.436C315.109 230.248 305.272 254.15 293.596 275.866C228.627 254.247 159.3 236.724 115.747 247.51C87.8929 254.431 69.9542 266.783 59.4153 279.726C11.045 339.08 45.7376 429.233 147.89 429.233C208.289 429.233 266.473 395.271 311.569 339.303C378.831 371.911 512 427.899 512 427.899V348.105C512 348.105 495.275 346.761 421.547 321.862Z" fill="white"/>
</g>
<defs>
<clipPath id="clip0_3988_2501">
<rect width="512" height="512" fill="white"/>
</clipPath>
</defs>
</svg>
