<svg width="512" height="512" viewBox="0 0 512 512" fill="none" xmlns="http://www.w3.org/2000/svg">
<path d="M466.149 85.3333H45.852C44.1015 85.3333 42.3479 85.3333 40.6006 85.3435C39.1235 85.354 37.6499 85.3704 36.1762 85.4106C32.9623 85.4975 29.7209 85.6871 26.5472 86.2575C23.3228 86.8378 20.3223 87.7844 17.3952 89.2747C14.5175 90.7381 11.883 92.6522 9.59989 94.9363C7.3158 97.2203 5.40169 99.8505 3.93858 102.731C2.44793 105.658 1.50078 108.66 0.924502 111.887C0.351042 115.061 0.160157 118.302 0.0735454 121.513C0.0339516 122.986 0.0169696 124.46 0.00734959 125.933C-0.00285817 127.684 0.000544414 129.434 0.000544414 131.188V367.259C0.000544414 369.013 -0.00285817 370.76 0.00734959 372.515C0.0169696 373.988 0.0339516 375.462 0.0735454 376.935C0.160157 380.143 0.351042 383.384 0.924502 386.558C1.50078 389.786 2.44793 392.786 3.93858 395.713C5.40169 398.594 7.3158 401.228 9.59989 403.508C11.883 405.796 14.5175 407.71 17.3952 409.17C20.3223 410.664 23.3228 411.611 26.5472 412.191C29.7209 412.757 32.9623 412.95 36.1762 413.037C37.6499 413.071 39.1235 413.091 40.6006 413.097C42.3479 413.111 44.1015 413.111 45.852 413.111H466.149C467.896 413.111 469.65 413.111 471.397 413.097C472.87 413.091 474.344 413.071 475.824 413.037C479.031 412.95 482.272 412.757 485.454 412.191C488.674 411.611 491.675 410.664 494.602 409.17C497.483 407.71 500.11 405.796 502.398 403.508C504.678 401.228 506.592 398.594 508.059 395.713C509.553 392.786 510.499 389.786 511.073 386.558C511.646 383.384 511.833 380.143 511.92 376.935C511.96 375.462 511.98 373.988 511.986 372.515C512 370.76 512 369.014 512 367.259V131.188C512 129.434 512 127.684 511.986 125.933C511.98 124.46 511.96 122.986 511.92 121.513C511.833 118.302 511.646 115.061 511.073 111.887C510.499 108.66 509.553 105.658 508.059 102.731C506.592 99.8505 504.678 97.2203 502.398 94.9363C500.11 92.6522 497.483 90.7381 494.602 89.2747C491.675 87.7844 488.674 86.8378 485.454 86.2575C482.272 85.6871 479.031 85.4975 475.824 85.4106C474.344 85.3704 472.87 85.354 471.397 85.3435C469.65 85.3333 467.896 85.3333 466.149 85.3333Z" fill="black"/>
<path d="M466.14 96.25L471.31 96.2599C472.711 96.2698 474.112 96.285 475.52 96.3233C477.97 96.3895 480.836 96.5222 483.507 97.001C485.829 97.4193 487.777 98.0552 489.646 99.0067C491.491 99.9443 493.181 101.173 494.657 102.647C496.139 104.131 497.369 105.824 498.319 107.689C499.265 109.544 499.897 111.482 500.313 113.821C500.791 116.464 500.923 119.337 500.99 121.802C501.028 123.194 501.046 124.585 501.053 126.009C501.066 127.732 501.066 129.454 501.066 131.18V367.251C501.066 368.977 501.066 370.695 501.053 372.455C501.046 373.846 501.028 375.237 500.99 376.631C500.923 379.092 500.791 381.964 500.307 384.638C499.897 386.945 499.266 388.883 498.314 390.747C497.367 392.608 496.139 394.299 494.664 395.774C493.179 397.259 491.494 398.484 489.627 399.43C487.772 400.377 485.828 401.012 483.529 401.426C480.803 401.912 477.817 402.045 475.569 402.106C474.154 402.138 472.746 402.157 471.303 402.164C469.584 402.177 467.859 402.177 466.14 402.177H45.8433C45.8204 402.177 45.7982 402.177 45.775 402.177C44.0755 402.177 42.3727 402.177 40.6423 402.164C39.2315 402.157 37.8237 402.138 36.4627 402.107C34.1625 402.045 31.1748 401.912 28.4716 401.429C26.1526 401.012 24.2084 400.377 22.329 399.417C20.4795 398.48 18.7958 397.256 17.3108 395.768C15.8371 394.297 14.6125 392.611 13.6657 390.747C12.7179 388.886 12.0838 386.941 11.6668 384.607C11.1849 381.938 11.0525 379.078 10.9863 376.633C10.9485 375.233 10.9328 373.834 10.9238 372.443L10.917 368.335L10.9173 367.251V131.18L10.917 130.095L10.9235 125.996C10.9328 124.597 10.9485 123.197 10.9863 121.799C11.0525 119.352 11.1849 116.49 11.6708 113.799C12.0841 111.486 12.7179 109.541 13.6706 107.67C14.61 105.821 15.8368 104.133 17.3182 102.652C18.7937 101.175 20.4829 99.9483 22.3441 99.0018C24.2035 98.0549 26.1513 97.4193 28.4703 97.002C31.1423 96.5219 34.01 96.3895 36.4661 96.323C37.8661 96.285 39.2661 96.2698 40.6556 96.2602L45.8433 96.25H466.14Z" fill="white"/>
<path d="M139.719 195.598C144.102 190.115 147.077 182.753 146.293 175.229C139.875 175.548 132.044 179.463 127.51 184.95C123.439 189.65 119.836 197.32 120.776 204.529C127.979 205.153 135.177 200.928 139.719 195.598Z" fill="black"/>
<path d="M146.241 205.933C135.78 205.31 126.885 211.871 121.889 211.871C116.89 211.871 109.239 206.247 100.965 206.399C90.1946 206.557 80.2013 212.647 74.7359 222.332C63.4947 241.707 71.7694 270.446 82.7009 286.226C88.0095 294.033 94.4072 302.629 102.837 302.32C110.802 302.008 113.924 297.163 123.606 297.163C133.281 297.163 136.093 302.32 144.524 302.164C153.268 302.008 158.734 294.353 164.043 286.539C170.133 277.64 172.626 269.046 172.782 268.575C172.626 268.419 155.922 262.011 155.767 242.797C155.61 226.709 168.881 219.056 169.506 218.582C162.011 207.497 150.301 206.247 146.241 205.933Z" fill="black"/>
<path d="M237.352 184.167C260.091 184.167 275.925 199.84 275.925 222.66C275.925 245.562 259.765 261.317 236.782 261.317H211.607V301.353H193.417V184.167L237.352 184.167ZM211.606 246.049H232.478C248.314 246.049 257.328 237.523 257.328 222.742C257.328 207.962 248.314 199.516 232.559 199.516H211.606V246.049Z" fill="black"/>
<path d="M280.67 277.071C280.67 262.127 292.121 252.951 312.425 251.813L335.812 250.433V243.856C335.812 234.354 329.396 228.669 318.678 228.669C308.524 228.669 302.19 233.541 300.648 241.176H284.082C285.056 225.745 298.211 214.375 319.327 214.375C340.035 214.375 353.271 225.339 353.271 242.474V301.352H336.46V287.303H336.056C331.103 296.805 320.301 302.814 309.095 302.814C292.365 302.814 280.67 292.419 280.67 277.071ZM335.812 269.356V262.616L314.778 263.914C304.301 264.646 298.374 269.275 298.374 276.584C298.374 284.054 304.546 288.927 313.966 288.927C326.228 288.927 335.812 280.481 335.812 269.356Z" fill="black"/>
<path d="M369.155 332.779V318.567C370.452 318.891 373.375 318.891 374.838 318.891C382.959 318.891 387.345 315.481 390.023 306.711C390.023 306.548 391.568 301.513 391.568 301.432L360.709 215.917H379.71L401.314 285.434H401.637L423.241 215.917H441.757L409.757 305.816C402.451 326.526 394.005 333.185 376.301 333.185C374.838 333.185 370.452 333.022 369.155 332.779Z" fill="black"/>
</svg>
