<svg width="556" height="512" viewBox="0 0 556 512" fill="none" xmlns="http://www.w3.org/2000/svg">
<path d="M407.816 128H148.185C67.05 128 0.666992 194.383 0.666992 275.518C0.666992 356.652 67.05 423.035 148.185 423.035H407.816C488.951 423.035 555.334 356.652 555.334 275.518C555.334 194.383 488.951 128 407.816 128Z" fill="white"/>
<path d="M407.816 139.949C426.034 139.949 443.736 143.563 460.406 150.644C476.559 157.504 491.016 167.313 503.555 179.779C516.02 192.244 525.83 206.774 532.69 222.928C539.771 239.597 543.385 257.299 543.385 275.518C543.385 293.736 539.771 311.438 532.69 328.108C525.83 344.261 516.02 358.718 503.555 371.257C491.09 383.722 476.559 393.532 460.406 400.391C443.736 407.472 426.034 411.087 407.816 411.087H148.185C129.966 411.087 112.264 407.472 95.5946 400.391C79.4415 393.532 64.9847 383.722 52.4457 371.257C39.9805 358.791 30.1705 344.261 23.311 328.108C16.2301 311.438 12.6159 293.736 12.6159 275.518C12.6159 257.299 16.2301 239.597 23.311 222.928C30.1705 206.774 39.9805 192.318 52.4457 179.779C64.911 167.313 79.4415 157.504 95.5946 150.644C112.264 143.563 129.966 139.949 148.185 139.949H407.816ZM407.816 128H148.185C67.05 128 0.666992 194.383 0.666992 275.518C0.666992 356.652 67.05 423.035 148.185 423.035H407.816C488.951 423.035 555.334 356.652 555.334 275.518C555.334 194.383 488.951 128 407.816 128Z" fill="#3C4043"/>
<path d="M265.117 285.983V330.607H250.955V220.411H288.498C298.013 220.411 306.127 223.583 312.765 229.926C319.551 236.27 322.944 244.014 322.944 253.16C322.944 262.528 319.551 270.272 312.765 276.542C306.2 282.811 298.087 285.909 288.498 285.909H265.117V285.983ZM265.117 233.983V272.411H288.793C294.399 272.411 299.12 270.494 302.808 266.732C306.569 262.97 308.487 258.397 308.487 253.234C308.487 248.145 306.569 243.645 302.808 239.884C299.12 235.975 294.473 234.057 288.793 234.057H265.117V233.983Z" fill="#3C4043"/>
<path d="M359.959 252.713C370.433 252.713 378.694 255.516 384.742 261.122C390.79 266.728 393.814 274.398 393.814 284.135V330.603H380.316V320.129H379.726C373.899 328.759 366.081 333.037 356.345 333.037C348.01 333.037 341.077 330.603 335.471 325.661C329.865 320.719 327.062 314.597 327.062 307.221C327.062 299.403 330.013 293.207 335.914 288.634C341.814 283.987 349.706 281.701 359.516 281.701C367.925 281.701 374.858 283.25 380.243 286.347V283.102C380.243 278.16 378.325 274.03 374.416 270.563C370.506 267.096 365.933 265.4 360.697 265.4C352.804 265.4 346.535 268.719 341.962 275.431L329.497 267.613C336.356 257.655 346.535 252.713 359.959 252.713ZM341.667 307.442C341.667 311.13 343.216 314.228 346.387 316.662C349.485 319.096 353.173 320.35 357.377 320.35C363.352 320.35 368.663 318.137 373.309 313.712C377.956 309.286 380.316 304.123 380.316 298.149C375.891 294.682 369.769 292.912 361.877 292.912C356.124 292.912 351.329 294.313 347.494 297.042C343.584 299.919 341.667 303.386 341.667 307.442Z" fill="#3C4043"/>
<path d="M470.83 255.151L423.624 363.724H409.02L426.574 325.738L395.448 255.151H410.864L433.287 309.29H433.582L455.414 255.151H470.83Z" fill="#3C4043"/>
<path d="M208.753 276.971C208.753 272.354 208.34 267.936 207.573 263.688H148.212V288.028L182.399 288.035C181.012 296.134 176.55 303.038 169.713 307.64V323.432H190.063C201.945 312.435 208.753 296.178 208.753 276.971Z" fill="#4285F4"/>
<path d="M169.751 307.659C164.087 311.48 156.792 313.715 148.258 313.715C131.773 313.715 117.788 302.607 112.78 287.634H91.7881V303.92C102.188 324.557 123.563 338.719 148.258 338.719C165.326 338.719 179.664 333.106 190.101 323.443L169.751 307.659Z" fill="#34A853"/>
<path d="M110.797 275.542C110.797 271.337 111.498 267.273 112.774 263.452V247.167H91.7819C87.4818 255.7 85.0625 265.333 85.0625 275.542C85.0625 285.75 87.4892 295.383 91.7819 303.917L112.774 287.631C111.498 283.81 110.797 279.746 110.797 275.542Z" fill="#FABB05"/>
<path d="M148.258 237.369C157.574 237.369 165.916 240.577 172.502 246.847L190.536 228.827C179.583 218.627 165.304 212.365 148.258 212.365C123.571 212.365 102.188 226.526 91.7881 247.164L112.78 263.45C117.788 248.477 131.773 237.369 148.258 237.369Z" fill="#E94235"/>
</svg>
