<svg width="512" height="512" viewBox="0 0 512 512" fill="none" xmlns="http://www.w3.org/2000/svg">
<path d="M512 373.836C512 417.65 476.323 453.328 432.509 453.328H0V138.491C0 94.6772 35.6773 59 79.4914 59H512V373.836Z" fill="white"/>
<path d="M400.274 85.6016C368.978 85.6016 343.316 110.951 343.316 142.56V201.709H423.746C425.624 201.709 427.815 201.709 429.379 202.022C447.531 202.961 460.988 212.35 460.988 228.624C460.988 241.455 451.912 252.408 435.013 254.599V255.225C453.477 256.477 467.56 266.804 467.56 282.765C467.56 299.978 451.912 311.245 431.257 311.245H343.003V427.039H426.563C457.859 427.039 483.521 401.69 483.521 370.081V85.6016H400.274Z" fill="url(#paint0_linear_3393_12755)"/>
<path d="M371.169 293.093H404.03C404.499 293.093 405.282 293.014 406.064 292.936C406.846 292.858 407.629 292.78 408.098 292.78C414.357 291.528 419.678 285.895 419.678 278.071C419.678 270.56 414.357 264.926 408.098 263.362C407.159 263.049 405.282 263.049 404.03 263.049H371.169V293.093Z" fill="url(#paint1_linear_3393_12755)"/>
<path d="M404.03 218.922C410.289 219.861 415.609 224.868 415.609 232.379C415.609 239.89 410.289 244.897 404.03 245.836C403.717 246.149 401.839 246.149 400.9 246.149H371.169V218.609H400.9C401.417 218.609 402.124 218.704 402.759 218.789C403.277 218.858 403.748 218.922 404.03 218.922Z" fill="url(#paint2_linear_3393_12755)"/>
<path d="M85.4374 85.6016C54.1416 85.6016 28.479 110.951 28.479 142.56V283.078C44.4398 290.902 61.0266 295.91 77.6134 295.91C97.3298 295.91 107.97 284.017 107.97 267.743V201.396H156.792V267.43C156.792 293.093 140.831 314.061 86.6892 314.061C53.8286 314.061 28.166 306.863 28.166 306.863V426.726H111.726C143.022 426.726 168.684 401.377 168.684 369.768V85.6016H85.4374Z" fill="url(#paint3_linear_3393_12755)"/>
<path d="M242.855 85.6016C211.559 85.6016 185.896 110.951 185.896 142.56V217.044C200.293 204.839 225.329 197.015 265.701 198.893C287.295 199.831 310.454 205.778 310.454 205.778V229.875C298.874 223.929 285.104 218.609 267.266 217.357C236.596 215.166 218.131 230.188 218.131 256.477C218.131 283.078 236.596 298.1 267.266 295.597C285.104 294.345 298.874 288.712 310.454 283.078V307.176C310.454 307.176 287.608 313.122 265.701 314.061C225.329 315.939 200.293 308.115 185.896 295.91V427.352H269.456C300.752 427.352 326.415 402.003 326.415 370.394V85.6016H242.855Z" fill="url(#paint4_linear_3393_12755)"/>
<defs>
<linearGradient id="paint0_linear_3393_12755" x1="343.254" y1="232.332" x2="483.894" y2="232.332" gradientUnits="userSpaceOnUse">
<stop stop-color="#007940"/>
<stop offset="0.2285" stop-color="#00873F"/>
<stop offset="0.7433" stop-color="#40A737"/>
<stop offset="1" stop-color="#5CB531"/>
</linearGradient>
<linearGradient id="paint1_linear_3393_12755" x1="343.254" y1="232.332" x2="483.894" y2="232.332" gradientUnits="userSpaceOnUse">
<stop stop-color="#007940"/>
<stop offset="0.2285" stop-color="#00873F"/>
<stop offset="0.7433" stop-color="#40A737"/>
<stop offset="1" stop-color="#5CB531"/>
</linearGradient>
<linearGradient id="paint2_linear_3393_12755" x1="343.254" y1="232.332" x2="483.894" y2="232.332" gradientUnits="userSpaceOnUse">
<stop stop-color="#007940"/>
<stop offset="0.2285" stop-color="#00873F"/>
<stop offset="0.7433" stop-color="#40A737"/>
<stop offset="1" stop-color="#5CB531"/>
</linearGradient>
<linearGradient id="paint3_linear_3393_12755" x1="28.4078" y1="256.178" x2="171.224" y2="256.178" gradientUnits="userSpaceOnUse">
<stop stop-color="#1F286F"/>
<stop offset="0.4751" stop-color="#004E94"/>
<stop offset="0.8261" stop-color="#0066B1"/>
<stop offset="1" stop-color="#006FBC"/>
</linearGradient>
<linearGradient id="paint4_linear_3393_12755" x1="185.083" y1="256.178" x2="323.785" y2="256.178" gradientUnits="userSpaceOnUse">
<stop stop-color="#6C2C2F"/>
<stop offset="0.1735" stop-color="#882730"/>
<stop offset="0.5731" stop-color="#BE1833"/>
<stop offset="0.8585" stop-color="#DC0436"/>
<stop offset="1" stop-color="#E60039"/>
</linearGradient>
</defs>
</svg>
