<svg width="512" height="512" viewBox="0 0 512 512" fill="none" xmlns="http://www.w3.org/2000/svg">
<path fill-rule="evenodd" clip-rule="evenodd" d="M486.742 91.0962L360.658 91.0635C360.643 91.0635 360.626 91.0635 360.626 91.0635C360.528 91.0635 360.433 91.081 360.338 91.081C343.016 91.6159 321.444 105.62 317.515 122.889L257.888 388.846C253.959 406.276 264.648 420.458 281.844 420.719H414.3C431.233 419.875 447.688 406.032 451.55 388.96L511.179 123C515.171 105.393 504.224 91.0962 486.742 91.0962Z" fill="#01798A"/>
<path fill-rule="evenodd" clip-rule="evenodd" d="M257.888 388.846L317.515 122.888C321.444 105.62 343.017 91.6154 360.338 91.0805L310.207 91.0478L219.887 91.0303C202.517 91.3884 180.663 105.491 176.736 122.888L117.092 388.846C113.148 406.275 123.853 420.458 141.037 420.719H281.844C264.648 420.458 253.959 406.275 257.888 388.846Z" fill="#024381"/>
<path fill-rule="evenodd" clip-rule="evenodd" d="M117.092 388.846L176.736 122.888C180.663 105.491 202.517 91.3886 219.887 91.0306L104.181 91C86.7142 91 64.3202 105.264 60.3285 122.888L0.684473 388.846C0.321508 390.469 0.120141 392.06 0 393.616V398.55C1.16758 411.255 10.7934 420.508 24.63 420.719H141.037C123.853 420.458 113.148 406.275 117.092 388.846Z" fill="#DD0228"/>
<path fill-rule="evenodd" clip-rule="evenodd" d="M222.325 284.826H224.515C226.527 284.826 227.881 284.145 228.515 282.798L234.205 274.214H249.443L246.265 279.86H264.535L262.218 288.51H240.478C237.974 292.308 234.892 294.093 231.186 293.881H219.862L222.325 284.826ZM219.823 297.224H259.85L257.299 306.622H241.201L238.745 315.692H254.409L251.858 325.088H236.194L232.555 338.491C231.654 340.732 232.839 341.739 236.09 341.51H248.856L246.49 350.242H221.981C217.335 350.242 215.741 347.563 217.198 342.193L221.851 325.088H211.838L214.381 315.692H224.396L226.85 306.622H217.278L219.823 297.224ZM283.71 274.149L283.08 279.65C283.08 279.65 290.63 273.936 297.488 273.936H322.827L313.137 309.296C312.333 313.339 308.887 315.349 302.801 315.349H274.08L267.353 340.179C266.965 341.51 267.513 342.192 268.962 342.192H274.613L272.536 349.899H258.169C252.655 349.899 250.361 348.228 251.271 344.87L270.281 274.149H283.71ZM305.168 284.145H282.551L279.846 293.686C279.846 293.686 283.613 290.945 289.907 290.847C296.184 290.748 303.349 290.847 303.349 290.847L305.168 284.145ZM296.974 306.279C298.646 306.508 299.582 305.841 299.695 304.267L301.079 299.237H278.427L276.528 306.279H296.974ZM281.696 317.703H294.752L294.51 323.399H297.986C299.743 323.399 300.613 322.832 300.613 321.713L301.642 318.028H312.494L311.045 323.399C309.819 327.878 306.57 330.215 301.289 330.444H294.334L294.302 340.179C294.174 341.738 295.573 342.533 298.454 342.533H304.991L302.881 350.242H287.202C282.807 350.452 280.652 348.341 280.698 343.864L281.696 317.703Z" fill="white"/>
<path fill-rule="evenodd" clip-rule="evenodd" d="M123.482 227.037C121.712 235.785 117.606 242.503 111.239 247.274C104.929 251.964 96.7904 254.316 86.8264 254.316C77.4493 254.316 70.5748 251.914 66.1879 247.095C63.1454 243.67 61.6318 239.321 61.6318 234.063C61.6318 231.889 61.89 229.553 62.4053 227.037L73.0217 175.434H89.0558L78.5839 226.453C78.2616 227.865 78.1329 229.18 78.1498 230.365C78.1329 232.978 78.7766 235.119 80.0805 236.79C81.9801 239.274 85.0631 240.506 89.3534 240.506C94.287 240.506 98.3523 239.29 101.507 236.839C104.663 234.405 106.723 230.949 107.649 226.453L118.154 175.434H134.107L123.482 227.037Z" fill="white"/>
<path fill-rule="evenodd" clip-rule="evenodd" d="M190.821 206.737H203.378L193.542 252.792H181.009L190.821 206.737ZM194.774 189.958H207.443L205.076 201.137H192.408L194.774 189.958Z" fill="white"/>
<path fill-rule="evenodd" clip-rule="evenodd" d="M214.494 249.285C211.209 246.121 209.551 241.853 209.535 236.433C209.535 235.508 209.591 234.453 209.713 233.3C209.834 232.132 209.987 230.996 210.204 229.942C211.693 222.461 214.864 216.521 219.75 212.139C224.627 207.742 230.512 205.535 237.402 205.535C243.045 205.535 247.519 207.125 250.796 210.306C254.071 213.503 255.713 217.819 255.713 223.305C255.713 224.245 255.642 225.333 255.52 226.501C255.375 227.686 255.2 228.822 254.996 229.942C253.541 237.309 250.378 243.184 245.492 247.485C240.606 251.817 234.738 253.974 227.896 253.974C222.23 253.974 217.77 252.417 214.494 249.285ZM238.424 240.165C240.638 237.747 242.223 234.079 243.189 229.196C243.335 228.433 243.462 227.637 243.543 226.842C243.623 226.063 243.655 225.333 243.655 224.668C243.655 221.827 242.938 219.621 241.498 218.063C240.066 216.488 238.03 215.711 235.399 215.711C231.92 215.711 229.087 216.942 226.867 219.41C224.627 221.877 223.042 225.609 222.043 230.575C221.907 231.337 221.794 232.101 221.69 232.847C221.61 233.609 221.586 234.323 221.601 234.972C221.601 237.796 222.318 239.971 223.759 241.512C225.19 243.054 227.218 243.817 229.884 243.817C233.378 243.817 236.211 242.6 238.424 240.165Z" fill="white"/>
<path fill-rule="evenodd" clip-rule="evenodd" d="M337.188 285.214L340.216 274.471H355.525L354.865 278.414C354.865 278.414 362.688 274.471 368.322 274.471C373.958 274.471 387.252 274.471 387.252 274.471L384.244 285.214H381.265L366.985 335.878H369.964L367.13 345.939H364.152L362.913 350.304H348.087L349.324 345.939H320.075L322.926 335.878H325.856L340.149 285.214H337.188ZM353.706 285.214L349.809 298.926C349.809 298.926 356.476 296.347 362.222 295.617C363.491 290.829 365.151 285.214 365.151 285.214L353.706 285.214ZM348.005 305.353L344.096 319.714C344.096 319.714 351.484 316.047 356.554 315.738C358.018 310.188 359.485 305.353 359.485 305.353L348.005 305.353ZM350.871 335.877L353.801 325.459H342.374L339.428 335.877H350.871ZM387.897 273.807H402.29L402.901 279.16C402.806 280.523 403.609 281.174 405.316 281.174H407.859L405.286 290.244H394.707C390.668 290.455 388.59 288.898 388.398 285.538L387.897 273.807ZM383.68 293.263H430.3L427.565 303.001H412.721L410.176 312.054H425.004L422.252 321.775H405.736L402 327.473H410.083L411.95 338.88C412.173 340.016 413.172 340.568 414.879 340.568H417.389L414.751 349.962H405.864C401.259 350.191 398.879 348.633 398.684 345.274L396.542 334.856L389.186 345.939C387.447 349.071 384.774 350.532 381.17 350.304H367.598L370.238 340.907H374.473C376.212 340.907 377.659 340.129 378.963 338.555L390.475 321.775H375.632L378.382 312.054H394.482L397.042 303.001H380.927L383.68 293.263Z" fill="white"/>
<path fill-rule="evenodd" clip-rule="evenodd" d="M138.253 206.72H149.578L148.282 213.373L149.908 211.475C153.579 207.515 158.038 205.551 163.302 205.551C168.067 205.551 171.504 206.948 173.661 209.754C175.786 212.562 176.365 216.441 175.36 221.423L169.121 252.807H157.482L163.117 224.36C163.697 221.423 163.536 219.232 162.641 217.819C161.757 216.408 160.066 215.711 157.627 215.711C154.633 215.711 152.113 216.651 150.061 218.518C148 220.4 146.64 223.013 145.972 226.339L140.78 252.807H129.117L138.253 206.72Z" fill="white"/>
<path fill-rule="evenodd" clip-rule="evenodd" d="M268.124 206.72H279.458L278.172 213.373L279.779 211.475C283.452 207.515 287.927 205.551 293.175 205.551C297.941 205.551 301.384 206.948 303.524 209.754C305.636 212.562 306.247 216.441 305.216 221.423L299.002 252.807H287.347L292.983 224.36C293.561 221.423 293.401 219.232 292.515 217.819C291.596 216.408 289.937 215.711 287.509 215.711C284.514 215.711 282.003 216.651 279.926 218.518C277.864 220.4 276.498 223.013 275.854 226.339L270.639 252.807H258.99L268.124 206.72" fill="white"/>
<path fill-rule="evenodd" clip-rule="evenodd" d="M324.149 178.159H357.054C363.381 178.159 368.273 179.604 371.637 182.442C374.986 185.316 376.662 189.438 376.662 194.809V194.971C376.662 195.993 376.595 197.145 376.5 198.394C376.337 199.628 376.127 200.877 375.856 202.176C374.407 209.284 371.042 214.997 365.843 219.329C360.625 223.646 354.446 225.82 347.331 225.82H329.685L324.229 252.808H308.95L324.149 178.159ZM332.373 212.839H347.008C350.822 212.839 353.848 211.945 356.055 210.177C358.245 208.392 359.694 205.666 360.497 201.966C360.625 201.283 360.705 200.667 360.803 200.099C360.853 199.564 360.915 199.027 360.915 198.51C360.915 195.864 359.984 193.949 358.115 192.748C356.248 191.53 353.32 190.947 349.261 190.947H336.832L332.373 212.839Z" fill="white"/>
<path fill-rule="evenodd" clip-rule="evenodd" d="M445.046 261.716C440.216 272.069 435.613 278.105 432.91 280.912C430.202 283.689 424.844 290.147 411.933 289.66L413.044 281.758C423.908 278.382 429.784 263.175 433.133 256.441L429.141 206.849L437.545 206.735H444.595L445.353 237.844L458.568 206.735H471.947L445.046 261.716Z" fill="white"/>
<path fill-rule="evenodd" clip-rule="evenodd" d="M407.636 210.485L402.32 214.17C396.767 209.788 391.696 207.078 381.911 211.654C368.579 217.885 357.44 265.677 394.144 249.935L396.236 252.434L410.677 252.808L420.159 209.381L407.636 210.485ZM399.424 234.226C397.105 241.124 391.924 245.683 387.867 244.385C383.81 243.12 382.361 236.465 384.711 229.553C387.029 222.639 392.244 218.096 396.269 219.394C400.325 220.66 401.79 227.313 399.424 234.226Z" fill="white"/>
</svg>
