<svg width="58" height="58" viewBox="0 0 58 58" fill="none" xmlns="http://www.w3.org/2000/svg">
<rect x="1" y="1" width="56" height="56" rx="28" fill="#F0F0F0"/>
<rect x="1" y="1" width="56" height="56" rx="28" stroke="#4992FF" stroke-width="2"/>
<g filter="url(#filter0_iiii_2889_3935)">
<circle cx="29" cy="29" r="25" transform="rotate(180 29 29)" fill="white"/>
</g>
<circle cx="29" cy="29" r="25" transform="rotate(180 29 29)" stroke="#F0F0F0" stroke-width="0.5"/>
<path d="M29 22.2906V20.5006C29 20.0506 28.46 19.8306 28.15 20.1506L25.35 22.9406C25.15 23.1406 25.15 23.4506 25.35 23.6506L28.14 26.4406C28.46 26.7506 29 26.5306 29 26.0806V24.2906C32.31 24.2906 35 26.9806 35 30.2906C35 33.0106 33.17 35.3106 30.69 36.0406C30.27 36.1606 30 36.5606 30 36.9906C30 37.6406 30.62 38.1506 31.25 37.9606C34.57 36.9906 37 33.9306 37 30.2906C37 25.8706 33.42 22.2906 29 22.2906Z" fill="#146EF5"/>
<path d="M23 30.2906C23 28.9506 23.44 27.7106 24.19 26.7006C24.49 26.3006 24.45 25.7506 24.1 25.3906C23.68 24.9706 22.96 25.0106 22.6 25.4906C21.6 26.8306 21 28.4906 21 30.2906C21 33.9306 23.43 36.9906 26.75 37.9606C27.38 38.1506 28 37.6406 28 36.9906C28 36.5606 27.73 36.1606 27.31 36.0406C24.83 35.3106 23 33.0106 23 30.2906Z" fill="#146EF5"/>
<defs>
<filter id="filter0_iiii_2889_3935" x="-0.25" y="-0.25" width="56.5" height="56.5" filterUnits="userSpaceOnUse" color-interpolation-filters="sRGB">
<feFlood flood-opacity="0" result="BackgroundImageFix"/>
<feBlend mode="normal" in="SourceGraphic" in2="BackgroundImageFix" result="shape"/>
<feColorMatrix in="SourceAlpha" type="matrix" values="0 0 0 0 0 0 0 0 0 0 0 0 0 0 0 0 0 0 127 0" result="hardAlpha"/>
<feOffset dx="2"/>
<feGaussianBlur stdDeviation="6"/>
<feComposite in2="hardAlpha" operator="arithmetic" k2="-1" k3="1"/>
<feColorMatrix type="matrix" values="0 0 0 0 0.286275 0 0 0 0 0.572549 0 0 0 0 1 0 0 0 0.5 0"/>
<feBlend mode="normal" in2="shape" result="effect1_innerShadow_2889_3935"/>
<feColorMatrix in="SourceAlpha" type="matrix" values="0 0 0 0 0 0 0 0 0 0 0 0 0 0 0 0 0 0 127 0" result="hardAlpha"/>
<feOffset dy="2"/>
<feGaussianBlur stdDeviation="2"/>
<feComposite in2="hardAlpha" operator="arithmetic" k2="-1" k3="1"/>
<feColorMatrix type="matrix" values="0 0 0 0 0.286275 0 0 0 0 0.572549 0 0 0 0 1 0 0 0 0.05 0"/>
<feBlend mode="normal" in2="effect1_innerShadow_2889_3935" result="effect2_innerShadow_2889_3935"/>
<feColorMatrix in="SourceAlpha" type="matrix" values="0 0 0 0 0 0 0 0 0 0 0 0 0 0 0 0 0 0 127 0" result="hardAlpha"/>
<feOffset dx="-4" dy="-2"/>
<feGaussianBlur stdDeviation="2"/>
<feComposite in2="hardAlpha" operator="arithmetic" k2="-1" k3="1"/>
<feColorMatrix type="matrix" values="0 0 0 0 0.286275 0 0 0 0 0.572549 0 0 0 0 1 0 0 0 0.05 0"/>
<feBlend mode="normal" in2="effect2_innerShadow_2889_3935" result="effect3_innerShadow_2889_3935"/>
<feColorMatrix in="SourceAlpha" type="matrix" values="0 0 0 0 0 0 0 0 0 0 0 0 0 0 0 0 0 0 127 0" result="hardAlpha"/>
<feOffset dx="-2" dy="-4"/>
<feGaussianBlur stdDeviation="2"/>
<feComposite in2="hardAlpha" operator="arithmetic" k2="-1" k3="1"/>
<feColorMatrix type="matrix" values="0 0 0 0 0.286275 0 0 0 0 0.572549 0 0 0 0 1 0 0 0 0.05 0"/>
<feBlend mode="normal" in2="effect3_innerShadow_2889_3935" result="effect4_innerShadow_2889_3935"/>
</filter>
</defs>
</svg>
