<svg width="280" height="280" viewBox="0 0 280 280" fill="none" xmlns="http://www.w3.org/2000/svg">
<path d="M84.5562 73.8859C84.5562 73.8859 114.58 96.6699 160.224 54.0679C200.76 16.2342 233.859 75.9274 234.09 104.513C234.39 141.543 193.554 171.173 213.372 195.495C233.189 219.817 174.07 259.981 142.208 225.222C102.572 181.983 91.8345 217.114 69.2424 217.114C53.0278 217.114 19.7376 176.825 42.2181 146.851C61.1352 121.629 50.8181 113.258 45.822 104.513C38.6149 91.9021 55.7303 57.6714 84.5562 73.8859Z" fill="#E7F1FF"/>
<path d="M205.093 124.235C206.706 124.835 208.47 124.874 210.148 124.489C217.178 122.876 241.351 118.603 237.151 137.335C236.236 141.051 222.078 161.864 242.24 169.462C243.718 170.026 245.28 170.334 246.861 170.372C253.068 170.5 265.37 169.034 270.518 163.793C276.737 157.463 269.943 160.465 269.943 160.465C269.943 160.465 246.299 170.783 237.947 159.836C237.018 158.618 236.426 156.849 236.256 155.326C235.962 152.686 237.135 149.197 238.675 146.159C240.76 142.048 250.767 123.555 229.039 118.168C224.034 116.976 216.764 115.905 207.39 119.852C201.923 122.154 203.134 123.507 205.093 124.235Z" fill="#7EB2FF"/>
<path d="M209.931 117.331L203.638 119.687C201.465 120.5 200.363 122.92 201.176 125.092L201.488 125.926C202.301 128.098 204.721 129.2 206.894 128.387L213.187 126.032C215.36 125.219 216.462 122.798 215.649 120.626L215.337 119.793C214.524 117.62 212.103 116.518 209.931 117.331Z" fill="#004EC2"/>
<path d="M171.301 124.147L150.546 131.914C149.46 132.321 148.909 133.531 149.315 134.617L149.397 134.836C149.803 135.922 151.014 136.473 152.1 136.066L172.855 128.299C173.941 127.892 174.492 126.682 174.085 125.596L174.004 125.377C173.597 124.291 172.387 123.74 171.301 124.147Z" fill="#7EB2FF"/>
<path d="M177.094 139.623L156.339 147.391C155.253 147.798 154.702 149.008 155.108 150.094L155.19 150.312C155.596 151.399 156.807 151.95 157.893 151.543L178.648 143.775C179.734 143.369 180.285 142.159 179.878 141.072L179.797 140.854C179.39 139.768 178.18 139.217 177.094 139.623Z" fill="#7EB2FF"/>
<path d="M196.256 113.585L179.435 119.88C177.262 120.693 176.16 123.113 176.973 125.286L182.716 140.631C183.529 142.803 185.95 143.905 188.122 143.092L204.943 136.797C207.116 135.984 208.218 133.563 207.405 131.391L201.662 116.046C200.849 113.873 198.428 112.771 196.256 113.585Z" fill="#7EB2FF"/>
<path d="M181.172 117.61L164.351 123.906C162.178 124.719 161.076 127.139 161.889 129.311L168.741 147.619C169.554 149.791 171.974 150.893 174.147 150.08L190.968 143.785C193.14 142.971 194.242 140.551 193.429 138.379L186.578 120.072C185.765 117.899 183.344 116.797 181.172 117.61Z" fill="#146EF5"/>
<path d="M183.805 113.895L183.673 113.944C182.225 114.486 181.49 116.1 182.032 117.548L191.631 143.194C192.173 144.643 193.786 145.377 195.235 144.835L195.367 144.786C196.815 144.244 197.549 142.631 197.007 141.182L187.409 115.536C186.867 114.087 185.253 113.353 183.805 113.895Z" fill="#004EC2"/>
<path d="M12.282 130.292C12.282 130.292 46.0651 120.798 41.1603 142.672C40.3086 146.132 28.0475 163.953 42.6523 172.509C45.7883 174.346 49.4073 175.16 53.0416 175.141C59.5576 175.107 69.8875 173.853 74.5281 169.13C80.7474 162.798 73.9529 165.801 73.9529 165.801C73.9529 165.801 54.5508 173.782 44.569 167.42C41.1607 165.248 39.6158 161.042 40.5414 157.107C41.0144 155.153 41.7348 153.267 42.6851 151.495C44.8559 147.429 54.7771 128.891 33.0491 123.504C28.0439 122.312 20.7741 121.241 11.4004 125.188C2.02667 129.135 12.282 130.292 12.282 130.292Z" fill="#7EB2FF"/>
<path d="M79.0705 160.906L72.7773 163.261C70.6049 164.075 69.5029 166.495 70.3159 168.667L70.6279 169.501C71.4409 171.673 73.8612 172.775 76.0336 171.962L82.3268 169.607C84.4993 168.794 85.6013 166.373 84.7882 164.201L84.4762 163.367C83.6632 161.195 81.243 160.093 79.0705 160.906Z" fill="#004EC2"/>
<path d="M89.7038 150.552L80.3769 154.043C78.2045 154.856 77.1025 157.276 77.9155 159.448L82.4129 171.465C83.226 173.638 85.6462 174.74 87.8186 173.927L97.1456 170.436C99.318 169.623 100.42 167.202 99.6069 165.03L95.1095 153.013C94.2965 150.841 91.8762 149.739 89.7038 150.552Z" fill="#7EB2FF"/>
<path d="M105.23 141.3L91.3212 146.506C89.1488 147.319 88.0468 149.739 88.8599 151.912L95.7116 170.219C96.5247 172.391 98.9449 173.493 101.117 172.68L115.026 167.475C117.199 166.662 118.301 164.241 117.488 162.069L110.636 143.762C109.823 141.589 107.403 140.487 105.23 141.3Z" fill="#146EF5"/>
<path d="M108.177 137.509L108.045 137.558C106.597 138.1 105.862 139.714 106.404 141.162L116.003 166.808C116.545 168.257 118.158 168.991 119.607 168.449L119.739 168.4C121.187 167.858 121.922 166.245 121.38 164.796L111.781 139.15C111.239 137.701 109.625 136.967 108.177 137.509Z" fill="#004EC2"/>
<path d="M143.695 121.17C143.194 121.114 142.735 120.866 142.413 120.479C142.091 120.091 141.932 119.593 141.969 119.091L143.007 100.135C143.069 99.0025 144.025 98.1422 145.11 98.2423L146.622 98.3823C147.707 98.4824 148.484 99.5023 148.333 100.627L145.782 119.443C145.724 119.944 145.474 120.403 145.085 120.725C144.696 121.047 144.199 121.206 143.695 121.17Z" fill="#146EF5"/>
<path d="M134.733 122.804C134.578 122.85 134.414 122.865 134.253 122.847C134.091 122.83 133.935 122.781 133.792 122.703C133.65 122.626 133.524 122.52 133.422 122.394C133.32 122.268 133.244 122.122 133.199 121.966L129.493 110.175C129.385 109.839 129.414 109.475 129.575 109.162C129.736 108.848 130.014 108.611 130.349 108.503L131.309 108.213C131.473 108.165 131.646 108.152 131.816 108.174C131.986 108.196 132.15 108.253 132.297 108.341C132.444 108.43 132.571 108.548 132.669 108.688C132.768 108.828 132.837 108.987 132.872 109.155L135.618 121.237C135.695 121.561 135.646 121.903 135.482 122.193C135.318 122.484 135.051 122.702 134.733 122.804Z" fill="#146EF5"/>
<path d="M129.733 129.604C129.069 130.427 127.733 130.417 126.705 129.582L108.453 114.753C107.363 113.867 107.041 112.401 107.746 111.529L108.728 110.312C109.432 109.44 110.879 109.511 111.911 110.47L129.181 126.515C130.153 127.419 130.397 128.781 129.733 129.604Z" fill="#146EF5"/>
<path d="M138.17 167.906C138.64 168.088 139.021 168.445 139.233 168.902C139.445 169.359 139.472 169.881 139.307 170.357L133.463 188.419C133.114 189.498 131.969 190.085 130.946 189.711L129.519 189.19C128.496 188.816 128.004 187.631 128.439 186.584L135.71 169.043C135.894 168.573 136.253 168.193 136.711 167.981C137.17 167.769 137.692 167.742 138.17 167.906Z" fill="#146EF5"/>
<path d="M147.25 168.614C147.413 168.61 147.574 168.638 147.726 168.696C147.878 168.754 148.016 168.841 148.134 168.952C148.252 169.064 148.347 169.198 148.413 169.346C148.48 169.494 148.516 169.654 148.521 169.817L149.092 182.164C149.111 182.515 148.989 182.86 148.754 183.122C148.518 183.384 148.189 183.543 147.837 183.562L146.835 183.597C146.664 183.601 146.493 183.57 146.334 183.505C146.176 183.44 146.032 183.343 145.913 183.22C145.793 183.097 145.701 182.951 145.641 182.79C145.581 182.629 145.555 182.458 145.564 182.286L145.995 169.904C146.004 169.571 146.138 169.253 146.37 169.014C146.603 168.775 146.917 168.632 147.25 168.614Z" fill="#146EF5"/>
<path d="M153.822 163.317C154.674 162.691 155.963 163.042 156.744 164.112L170.603 183.11C171.431 184.245 171.368 185.744 170.463 186.408L169.203 187.333C168.299 187.997 166.918 187.558 166.166 186.368L153.566 166.444C152.857 165.323 152.97 163.943 153.822 163.317Z" fill="#146EF5"/>
<path d="M202.5 209C204.985 209 207 206.985 207 204.5C207 202.015 204.985 200 202.5 200C200.015 200 198 202.015 198 204.5C198 206.985 200.015 209 202.5 209Z" fill="#4992FF"/>
<path d="M221.5 209C223.985 209 226 206.985 226 204.5C226 202.015 223.985 200 221.5 200C219.015 200 217 202.015 217 204.5C217 206.985 219.015 209 221.5 209Z" fill="#4992FF"/>
<path d="M240.5 209C242.985 209 245 206.985 245 204.5C245 202.015 242.985 200 240.5 200C238.015 200 236 202.015 236 204.5C236 206.985 238.015 209 240.5 209Z" fill="#4992FF"/>
</svg>
