<svg width="24" height="24" viewBox="0 0 24 24" fill="none" xmlns="http://www.w3.org/2000/svg">
<path fill-rule="evenodd" clip-rule="evenodd" d="M12.5548 4.57176C12.2189 4.34783 11.7813 4.34783 11.4454 4.57176L4.44541 9.23842C4.31938 9.32244 4.21615 9.43248 4.14092 9.5588L11.4454 14.4285C11.7813 14.6524 12.2189 14.6524 12.5548 14.4285L19.8593 9.5588C19.7841 9.43248 19.6808 9.32244 19.5548 9.23842L12.5548 4.57176ZM21.9953 9.89971C21.9419 8.9619 21.4512 8.09902 20.6642 7.57432L13.6642 2.90766C12.6565 2.23586 11.3437 2.23586 10.336 2.90766L3.33601 7.57432C2.54896 8.09902 2.05832 8.96191 2.00496 9.89972C2.00069 9.9424 1.99919 9.98519 2.00041 10.0278C2.00021 10.042 2.00011 10.0562 2.00011 10.0705V19.0001C2.00011 20.657 3.34325 22.0001 5.00011 22.0001H19.0001C20.657 22.0001 22.0001 20.657 22.0001 19.0001V10.0705C22.0001 10.0562 22 10.042 21.9998 10.0278C22.001 9.98519 21.9995 9.9424 21.9953 9.89971ZM20.0001 11.8686L16.0529 14.5001L20.0001 17.1316V11.8686ZM19.888 19.4606L14.2501 15.702L13.6642 16.0926C12.6565 16.7644 11.3437 16.7644 10.336 16.0926L9.75011 15.702L4.11219 19.4606C4.27877 19.7811 4.61387 20.0001 5.00011 20.0001H19.0001C19.3863 20.0001 19.7214 19.7811 19.888 19.4606ZM4.00011 17.1316L7.94733 14.5001L4.00011 11.8686V17.1316Z" fill="#A3A3A3"/>
</svg>
