<svg width="24" height="24" viewBox="0 0 24 24" fill="none" xmlns="http://www.w3.org/2000/svg">
<path fill-rule="evenodd" clip-rule="evenodd" d="M12.0004 21.6C17.3023 21.6 21.6004 17.302 21.6004 12C21.6004 6.69809 17.3023 2.40002 12.0004 2.40002C6.69846 2.40002 2.40039 6.69809 2.40039 12C2.40039 17.302 6.69846 21.6 12.0004 21.6ZM13 7.20003C13 6.64774 12.5523 6.20003 12 6.20003C11.4477 6.20003 11 6.64774 11 7.20003V12C11 12.2652 11.1054 12.5196 11.2929 12.7071L14.687 16.1012C15.0775 16.4918 15.7107 16.4918 16.1012 16.1012C16.4917 15.7107 16.4917 15.0776 16.1012 14.687L13 11.5858V7.20003Z" fill="#146EF5"/>
</svg>
