<svg width="24" height="24" viewBox="0 0 24 24" fill="none" xmlns="http://www.w3.org/2000/svg">
<path fill-rule="evenodd" clip-rule="evenodd" d="M19.1994 3.59998C20.5249 3.59998 21.5994 4.67449 21.5994 5.99998V8.39997C21.5994 9.72546 20.5249 10.8 19.1994 10.8H4.79941C3.47393 10.8 2.39941 9.72546 2.39941 8.39997V5.99998C2.39941 4.67449 3.47393 3.59998 4.79941 3.59998H19.1994ZM5.99941 8.39997C5.33667 8.39997 4.79941 7.86272 4.79941 7.19998C4.79941 6.53723 5.33667 5.99998 5.99941 5.99998C6.66216 5.99998 7.19941 6.53723 7.19941 7.19998C7.19941 7.86272 6.66216 8.39997 5.99941 8.39997Z" fill="#146EF5"/>
<path fill-rule="evenodd" clip-rule="evenodd" d="M14.8451 13.2H4.79941C3.47393 13.2 2.39941 14.2745 2.39941 15.6V18C2.39941 19.3255 3.47393 20.4 4.79941 20.4H12.2294C12.0797 19.8453 11.9998 19.262 11.9998 18.66C11.9998 16.4007 13.1248 14.4041 14.8451 13.2ZM5.99941 18C5.33667 18 4.79941 17.4627 4.79941 16.8C4.79941 16.1372 5.33667 15.6 5.99941 15.6C6.66216 15.6 7.19941 16.1372 7.19941 16.8C7.19941 17.4627 6.66216 18 5.99941 18Z" fill="#146EF5"/>
<path d="M21.9509 21.9541C22.7255 21.1795 23.1705 20.1906 23.2859 19.1688C23.4424 17.8091 22.9892 16.4 21.9509 15.3617C21.3329 14.7436 20.5747 14.3316 19.7754 14.1421C18.2509 13.7548 16.5616 14.1585 15.3585 15.3617C14.5262 16.194 14.0729 17.257 14.0153 18.353C13.9741 18.8227 14.0153 19.3089 14.1389 19.7786C14.3284 20.5779 14.7404 21.3361 15.3585 21.9541C17.1796 23.7753 20.1297 23.7753 21.9509 21.9541ZM20.4017 17.8009C20.8796 17.8009 21.2752 18.1964 21.2752 18.6744C21.2669 19.1606 20.8796 19.5479 20.3934 19.5561L19.5282 19.5479L19.5364 20.3802C19.5282 20.8663 19.1409 21.2537 18.6547 21.2619C18.1685 21.2537 17.7812 20.8663 17.7729 20.3802L17.7812 19.5479L16.9159 19.5561C16.4297 19.5479 16.0424 19.1606 16.0342 18.6744C16.0424 18.4354 16.1413 18.2211 16.2979 18.0646C16.4545 17.908 16.6687 17.8091 16.9077 17.8009L17.7812 17.8009L17.7812 16.8944C17.7812 16.6472 17.8801 16.4329 18.0366 16.2764C18.1932 16.1198 18.4075 16.0209 18.6547 16.0209C19.1326 16.0209 19.5282 16.4165 19.5282 16.8944V17.8009L20.4017 17.8009Z" fill="#146EF5"/>
</svg>
