<svg width="280" height="280" viewBox="0 0 280 280" fill="none" xmlns="http://www.w3.org/2000/svg">
<path d="M138.5 242C195.109 242 241 196.109 241 139.5C241 82.8908 195.109 37 138.5 37C81.8908 37 36 82.8908 36 139.5C36 196.109 81.8908 242 138.5 242Z" fill="#E7F1FF"/>
<g filter="url(#filter0_d_3208_13616)">
<path fill-rule="evenodd" clip-rule="evenodd" d="M119 175.24C116.533 174.772 114.667 172.604 114.667 170C114.667 167.054 117.055 164.667 120 164.667C122.946 164.667 125.334 167.054 125.334 170C125.334 172.604 123.468 174.772 121 175.24V206C121 213.18 115.18 219 108 219H77.2401C76.772 221.467 74.604 223.333 72.0003 223.333C69.0548 223.333 66.667 220.945 66.667 218C66.667 215.054 69.0548 212.667 72.0003 212.667C74.604 212.667 76.772 214.532 77.2401 217H108C114.075 217 119 212.075 119 206V175.24ZM140 175.24C137.533 174.772 135.667 172.604 135.667 170C135.667 167.054 138.055 164.667 141 164.667C143.946 164.667 146.334 167.054 146.334 170C146.334 172.604 144.468 174.772 142 175.24V238.76C144.468 239.228 146.334 241.396 146.334 244C146.334 246.945 143.946 249.333 141 249.333C138.055 249.333 135.667 246.945 135.667 244C135.667 241.396 137.533 239.228 140 238.76V175.24ZM162 177.24C159.533 176.772 157.667 174.604 157.667 172C157.667 169.054 160.055 166.667 163 166.667C165.946 166.667 168.334 169.054 168.334 172C168.334 174.604 166.468 176.772 164 177.24V206C164 212.075 168.925 217 175 217H200.761C201.229 214.532 203.397 212.667 206 212.667C208.946 212.667 211.334 215.054 211.334 218C211.334 220.945 208.946 223.333 206 223.333C203.397 223.333 201.229 221.467 200.761 219H175C167.821 219 162 213.18 162 206V177.24Z" fill="#7EB2FF"/>
</g>
<g filter="url(#filter1_d_3208_13616)">
<path d="M65.7115 140.104H215.255C216.724 140.104 218.132 140.809 219.171 142.066C220.21 143.322 220.793 145.026 220.793 146.803V180.301C220.793 182.077 220.21 183.781 219.171 185.038C218.132 186.294 216.724 187 215.255 187H65.7115C64.2426 187 62.8338 186.294 61.7951 185.038C60.7564 183.781 60.1729 182.077 60.1729 180.301V146.803C60.1729 145.026 60.7564 143.322 61.7951 142.066C62.8338 140.809 64.2426 140.104 65.7115 140.104V140.104Z" fill="#004EC2"/>
</g>
<path d="M145.772 150.655H111.074C108.863 150.655 107.07 152.448 107.07 154.659C107.07 156.87 108.863 158.663 111.074 158.663H145.772C147.984 158.663 149.776 156.87 149.776 154.659C149.776 152.448 147.984 150.655 145.772 150.655Z" fill="#B3D1FF"/>
<path d="M169.794 165.896H111.074C108.863 165.896 107.07 167.689 107.07 169.9C107.07 172.111 108.863 173.904 111.074 173.904H169.794C172.006 173.904 173.798 172.111 173.798 169.9C173.798 167.689 172.006 165.896 169.794 165.896Z" fill="#E7F1FF"/>
<path d="M83.5289 176.137C90.5309 176.137 96.2071 170.46 96.2071 163.458C96.2071 156.456 90.5309 150.78 83.5289 150.78C76.5268 150.78 70.8506 156.456 70.8506 163.458C70.8506 170.46 76.5268 176.137 83.5289 176.137Z" fill="#7EB2FF"/>
<g filter="url(#filter2_d_3208_13616)">
<path d="M64.5791 85H215.214C216.694 85 218.113 85.703 219.159 86.9544C220.205 88.2058 220.793 89.903 220.793 91.6728V125.037C220.793 126.806 220.205 128.504 219.159 129.755C218.113 131.006 216.694 131.709 215.214 131.709H64.5791C63.0994 131.709 61.6803 131.006 60.6341 129.755C59.5878 128.504 59 126.806 59 125.037V91.6728C59 89.903 59.5878 88.2058 60.6341 86.9544C61.6803 85.703 63.0994 85 64.5791 85V85Z" fill="#146EF5"/>
</g>
<path d="M149.289 95.5518H114.591C112.379 95.5518 110.587 97.3443 110.587 99.5554C110.587 101.767 112.379 103.559 114.591 103.559H149.289C151.5 103.559 153.293 101.767 153.293 99.5554C153.293 97.3443 151.5 95.5518 149.289 95.5518Z" fill="#7EB2FF"/>
<path d="M173.311 112.901H114.591C112.379 112.901 110.587 114.693 110.587 116.905C110.587 119.116 112.379 120.908 114.591 120.908H173.311C175.522 120.908 177.315 119.116 177.315 116.905C177.315 114.693 175.522 112.901 173.311 112.901Z" fill="#B3D1FF"/>
<path d="M84.5757 120.908C91.5777 120.908 97.254 115.232 97.254 108.23C97.254 101.228 91.5777 95.5518 84.5757 95.5518C77.5737 95.5518 71.8975 101.228 71.8975 108.23C71.8975 115.232 77.5737 120.908 84.5757 120.908Z" fill="white"/>
<g filter="url(#filter3_d_3208_13616)">
<path d="M237.135 60.7755L145.181 34.0721C142.229 33.2146 139.043 35.2483 138.065 38.6144L127.445 75.1836C126.468 78.5497 128.069 81.9736 131.022 82.831L222.976 109.534C225.929 110.392 229.115 108.358 230.092 104.992L240.712 68.4229C241.689 65.0568 240.088 61.6329 237.135 60.7755Z" fill="#E70011"/>
<path d="M154.49 51L159.445 52.4388L161.377 70.5601L161.639 70.6362L172.977 56.3684L177.931 57.8072L171.441 80.1566L167.556 79.0284L172.015 63.6741L171.807 63.6139L161.191 77.109L158.288 76.266L156.561 59.1508L156.353 59.0906L151.885 74.4776L148 73.3494L154.49 51Z" fill="white"/>
<path d="M178.72 82.2703L174.398 81.0154L188.756 60.9509L193.754 62.4023L195.143 87.0398L190.822 85.7848L190.012 66.2853L189.837 66.2346L178.72 82.2703ZM181.406 73.5486L193.192 76.9711L192.248 80.2232L180.462 76.8006L181.406 73.5486Z" fill="white"/>
<path d="M207.96 66.5276L210.505 76.1415L210.68 76.1922L218 69.4432L222.616 70.7837L212.485 79.9587L216.235 93.1648L211.543 91.8021L208.927 82.227L208.753 82.1763L201.415 88.8612L196.745 87.5048L207.05 78.3805L203.322 65.1808L207.96 66.5276Z" fill="white"/>
</g>
<defs>
<filter id="filter0_d_3208_13616" x="60.667" y="155.667" width="156.667" height="96.6666" filterUnits="userSpaceOnUse" color-interpolation-filters="sRGB">
<feFlood flood-opacity="0" result="BackgroundImageFix"/>
<feColorMatrix in="SourceAlpha" type="matrix" values="0 0 0 0 0 0 0 0 0 0 0 0 0 0 0 0 0 0 127 0" result="hardAlpha"/>
<feOffset dy="-3"/>
<feGaussianBlur stdDeviation="3"/>
<feColorMatrix type="matrix" values="0 0 0 0 0.788235 0 0 0 0 0.803922 0 0 0 0 0.85098 0 0 0 0.349 0"/>
<feBlend mode="normal" in2="BackgroundImageFix" result="effect1_dropShadow_3208_13616"/>
<feBlend mode="normal" in="SourceGraphic" in2="effect1_dropShadow_3208_13616" result="shape"/>
</filter>
<filter id="filter1_d_3208_13616" x="54.1729" y="137.104" width="172.62" height="58.8965" filterUnits="userSpaceOnUse" color-interpolation-filters="sRGB">
<feFlood flood-opacity="0" result="BackgroundImageFix"/>
<feColorMatrix in="SourceAlpha" type="matrix" values="0 0 0 0 0 0 0 0 0 0 0 0 0 0 0 0 0 0 127 0" result="hardAlpha"/>
<feOffset dy="3"/>
<feGaussianBlur stdDeviation="3"/>
<feColorMatrix type="matrix" values="0 0 0 0 0 0 0 0 0 0 0 0 0 0 0 0 0 0 0.161 0"/>
<feBlend mode="normal" in2="BackgroundImageFix" result="effect1_dropShadow_3208_13616"/>
<feBlend mode="normal" in="SourceGraphic" in2="effect1_dropShadow_3208_13616" result="shape"/>
</filter>
<filter id="filter2_d_3208_13616" x="53" y="82" width="173.793" height="58.7095" filterUnits="userSpaceOnUse" color-interpolation-filters="sRGB">
<feFlood flood-opacity="0" result="BackgroundImageFix"/>
<feColorMatrix in="SourceAlpha" type="matrix" values="0 0 0 0 0 0 0 0 0 0 0 0 0 0 0 0 0 0 127 0" result="hardAlpha"/>
<feOffset dy="3"/>
<feGaussianBlur stdDeviation="3"/>
<feColorMatrix type="matrix" values="0 0 0 0 0 0 0 0 0 0 0 0 0 0 0 0 0 0 0.161 0"/>
<feBlend mode="normal" in2="BackgroundImageFix" result="effect1_dropShadow_3208_13616"/>
<feBlend mode="normal" in="SourceGraphic" in2="effect1_dropShadow_3208_13616" result="shape"/>
</filter>
<filter id="filter3_d_3208_13616" x="121.158" y="24.876" width="125.841" height="87.8546" filterUnits="userSpaceOnUse" color-interpolation-filters="sRGB">
<feFlood flood-opacity="0" result="BackgroundImageFix"/>
<feColorMatrix in="SourceAlpha" type="matrix" values="0 0 0 0 0 0 0 0 0 0 0 0 0 0 0 0 0 0 127 0" result="hardAlpha"/>
<feOffset dy="-3"/>
<feGaussianBlur stdDeviation="3"/>
<feColorMatrix type="matrix" values="0 0 0 0 0.788235 0 0 0 0 0.803922 0 0 0 0 0.85098 0 0 0 0.349 0"/>
<feBlend mode="normal" in2="BackgroundImageFix" result="effect1_dropShadow_3208_13616"/>
<feBlend mode="normal" in="SourceGraphic" in2="effect1_dropShadow_3208_13616" result="shape"/>
</filter>
</defs>
</svg>
