<svg width="280" height="280" viewBox="0 0 280 280" fill="none" xmlns="http://www.w3.org/2000/svg">
<path d="M140 235C192.467 235 235 192.467 235 140C235 87.5329 192.467 45 140 45C87.5329 45 45 87.5329 45 140C45 192.467 87.5329 235 140 235Z" fill="#E7F1FF"/>
<path d="M148.968 72.9357C150.607 72.9357 151.936 71.607 151.936 69.9679C151.936 68.3288 150.607 67 148.968 67C147.329 67 146 68.3288 146 69.9679C146 71.607 147.329 72.9357 148.968 72.9357Z" fill="#B3D1FF"/>
<path d="M161.968 72.9357C163.607 72.9357 164.936 71.607 164.936 69.9679C164.936 68.3288 163.607 67 161.968 67C160.329 67 159 68.3288 159 69.9679C159 71.607 160.329 72.9357 161.968 72.9357Z" fill="#B3D1FF"/>
<path d="M175.968 72.9357C177.607 72.9357 178.936 71.607 178.936 69.9679C178.936 68.3288 177.607 67 175.968 67C174.329 67 173 68.3288 173 69.9679C173 71.607 174.329 72.9357 175.968 72.9357Z" fill="#B3D1FF"/>
<path fill-rule="evenodd" clip-rule="evenodd" d="M126.25 162.93C124.399 162.579 123 160.953 123 159C123 156.791 124.791 155 127 155C129.209 155 131 156.791 131 159C131 160.953 129.601 162.579 127.75 162.93V195C127.75 202.042 122.042 207.75 115 207.75H74.9298C74.5787 209.601 72.9528 211 71 211C68.7909 211 67 209.209 67 207C67 204.791 68.7909 203 71 203C72.9528 203 74.5787 204.399 74.9298 206.25H115C121.213 206.25 126.25 201.213 126.25 195V162.93ZM155.25 164.93C153.399 164.579 152 162.953 152 161C152 158.791 153.791 157 156 157C158.209 157 160 158.791 160 161C160 162.953 158.601 164.579 156.75 164.93V201C156.75 207.213 161.787 212.25 168 212.25H197.07C197.421 210.399 199.047 209 201 209C203.209 209 205 210.791 205 213C205 215.209 203.209 217 201 217C199.047 217 197.421 215.601 197.07 213.75H168C160.958 213.75 155.25 208.042 155.25 201V164.93Z" fill="#B3D1FF"/>
<path fill-rule="evenodd" clip-rule="evenodd" d="M111.25 155.93C109.399 155.579 108 153.953 108 152C108 149.791 109.791 148 112 148C114.209 148 116 149.791 116 152C116 153.953 114.601 155.579 112.75 155.93V177C112.75 180.728 109.728 183.75 106 183.75H59.9298C59.5787 185.601 57.9528 187 56 187C53.7909 187 52 185.209 52 183C52 180.791 53.7909 179 56 179C57.9528 179 59.5787 180.399 59.9298 182.25H106C108.899 182.25 111.25 179.899 111.25 177V155.93ZM172.25 162.93C170.399 162.579 169 160.953 169 159C169 156.791 170.791 155 173 155C175.209 155 177 156.791 177 159C177 160.953 175.601 162.579 173.75 162.93V184C173.75 186.899 176.101 189.25 179 189.25H216.07C216.421 187.399 218.047 186 220 186C222.209 186 224 187.791 224 190C224 192.209 222.209 194 220 194C218.047 194 216.421 192.601 216.07 190.75H179C175.272 190.75 172.25 187.728 172.25 184V162.93Z" fill="#DCEAFF"/>
<g filter="url(#filter0_d_3208_11321)">
<path fill-rule="evenodd" clip-rule="evenodd" d="M139.25 162.93C137.399 162.579 136 160.953 136 159C136 156.791 137.791 155 140 155C142.209 155 144 156.791 144 159C144 160.953 142.601 162.579 140.75 162.93L140.75 229.07C142.601 229.421 144 231.047 144 233C144 235.209 142.209 237 140 237C137.791 237 136 235.209 136 233C136 231.047 137.399 229.421 139.25 229.07L139.25 162.93Z" fill="#7EB2FF"/>
</g>
<g filter="url(#filter1_d_3208_11321)">
<path d="M83.3506 127.935H202.584C203.755 127.935 204.878 128.498 205.706 129.499C206.535 130.501 207 131.86 207 133.276V159.985C207 161.401 206.535 162.76 205.706 163.762C204.878 164.763 203.755 165.326 202.584 165.326H83.3506C82.1794 165.326 81.0562 164.763 80.228 163.762C79.3998 162.76 78.9346 161.401 78.9346 159.985V133.276C78.9346 131.86 79.3998 130.501 80.228 129.499C81.0562 128.498 82.1794 127.935 83.3506 127.935V127.935Z" fill="white"/>
</g>
<path d="M147.184 136.348H119.518C117.755 136.348 116.326 137.777 116.326 139.54C116.326 141.303 117.755 142.732 119.518 142.732H147.184C148.947 142.732 150.376 141.303 150.376 139.54C150.376 137.777 148.947 136.348 147.184 136.348Z" fill="#B3D1FF"/>
<path d="M166.337 148.5H119.518C117.755 148.5 116.326 149.929 116.326 151.692C116.326 153.455 117.755 154.884 119.518 154.884H166.337C168.1 154.884 169.529 153.455 169.529 151.692C169.529 149.929 168.1 148.5 166.337 148.5Z" fill="#E7F1FF"/>
<path d="M97.5558 156.664C103.139 156.664 107.664 152.139 107.664 146.556C107.664 140.973 103.139 136.447 97.5558 136.447C91.973 136.447 87.4473 140.973 87.4473 146.556C87.4473 152.139 91.973 156.664 97.5558 156.664Z" fill="#7EB2FF"/>
<g filter="url(#filter2_d_3208_11321)">
<path d="M82.4483 84H202.552C203.731 84 204.863 84.5605 205.697 85.5583C206.531 86.556 207 87.9093 207 89.3203V115.922C207 117.333 206.531 118.686 205.697 119.684C204.863 120.682 203.731 121.242 202.552 121.242H82.4483C81.2685 121.242 80.1371 120.682 79.3029 119.684C78.4687 118.686 78 117.333 78 115.922V89.3203C78 87.9093 78.4687 86.556 79.3029 85.5583C80.1371 84.5605 81.2685 84 82.4483 84V84Z" fill="#146EF5"/>
</g>
<path d="M149.988 92.413H122.322C120.559 92.413 119.13 93.8422 119.13 95.6052C119.13 97.3682 120.559 98.7974 122.322 98.7974H149.988C151.751 98.7974 153.18 97.3682 153.18 95.6052C153.18 93.8422 151.751 92.413 149.988 92.413Z" fill="#7EB2FF"/>
<path d="M169.141 106.246H122.322C120.559 106.246 119.13 107.675 119.13 109.438C119.13 111.201 120.559 112.63 122.322 112.63H169.141C170.904 112.63 172.333 111.201 172.333 109.438C172.333 107.675 170.904 106.246 169.141 106.246Z" fill="#B3D1FF"/>
<path d="M98.3918 112.63C103.975 112.63 108.5 108.104 108.5 102.522C108.5 96.9388 103.975 92.413 98.3918 92.413C92.809 92.413 88.2832 96.9388 88.2832 102.522C88.2832 108.104 92.809 112.63 98.3918 112.63Z" fill="white"/>
<path d="M211.289 91.5788C220.286 91.5788 227.579 84.2858 227.579 75.2894C227.579 66.293 220.286 59 211.289 59C202.293 59 195 66.293 195 75.2894C195 84.2858 202.293 91.5788 211.289 91.5788Z" fill="#146EF5" stroke="white" stroke-width="8" stroke-miterlimit="10"/>
<path d="M214.507 77.5418C214.49 78.1352 214.431 78.7269 214.329 79.3123C214.235 79.8833 214.039 80.433 213.753 80.9359C213.507 81.3677 213.143 81.7202 212.704 81.9519L212.696 81.9562L212.687 81.9601C212.255 82.1685 211.779 82.273 211.299 82.2653C210.82 82.2712 210.346 82.1671 209.914 81.9609L209.905 81.9569L209.897 81.9527C209.456 81.7217 209.087 81.3728 208.831 80.9447L208.829 80.9404L208.829 80.9404C208.537 80.4391 208.335 79.8908 208.231 79.32C208.088 78.5679 208.022 77.8032 208.034 77.0377V73.4528C208.022 72.6908 208.086 71.9295 208.224 71.18C208.324 70.6166 208.525 70.0761 208.819 69.5853L208.824 69.5783L208.824 69.5783C209.082 69.1636 209.45 68.8293 209.888 68.6133L209.899 68.6081L209.91 68.6033C210.34 68.4162 210.804 68.3196 211.273 68.3196C211.743 68.3196 212.207 68.4162 212.637 68.6033L212.645 68.6068L212.653 68.6105C213.098 68.823 213.472 69.1614 213.727 69.5838L213.728 69.5853C214.022 70.0761 214.223 70.6165 214.323 71.1799C214.323 71.1806 214.323 71.1814 214.323 71.1821L214.507 77.5418ZM214.507 77.5418H214.513V77.0418V73.4529L214.507 77.5418ZM214.952 68.5065L214.953 68.5085C215.381 69.0199 215.731 69.7117 215.986 70.5986C216.232 71.477 216.364 72.5719 216.365 73.887V76.1317H216.351V76.6317C216.351 77.9465 216.22 79.043 215.973 79.9291L215.972 79.929L215.97 79.9406C215.776 80.7064 215.425 81.4235 214.939 82.0464C214.533 82.5463 214.005 82.9327 213.405 83.1678C212.044 83.655 210.555 83.6549 209.194 83.1677C208.589 82.9323 208.056 82.5451 207.645 82.0436C207.152 81.4247 206.797 80.7079 206.603 79.9409L206.602 79.9334L206.599 79.9259C206.347 79.0417 206.215 77.947 206.215 76.6317V73.8865C206.215 72.5714 206.347 71.4757 206.593 70.5968C206.842 69.7115 207.19 69.0213 207.623 68.5111L207.623 68.5112L207.629 68.5045C208.036 68.0076 208.567 67.6266 209.168 67.3998C210.54 66.9277 212.031 66.9277 213.404 67.3996C214.007 67.6284 214.54 68.0098 214.952 68.5065Z" fill="white" stroke="white"/>
<defs>
<filter id="filter0_d_3208_11321" x="130" y="146" width="20" height="94" filterUnits="userSpaceOnUse" color-interpolation-filters="sRGB">
<feFlood flood-opacity="0" result="BackgroundImageFix"/>
<feColorMatrix in="SourceAlpha" type="matrix" values="0 0 0 0 0 0 0 0 0 0 0 0 0 0 0 0 0 0 127 0" result="hardAlpha"/>
<feOffset dy="-3"/>
<feGaussianBlur stdDeviation="3"/>
<feColorMatrix type="matrix" values="0 0 0 0 0.788235 0 0 0 0 0.803922 0 0 0 0 0.85098 0 0 0 0.349 0"/>
<feBlend mode="normal" in2="BackgroundImageFix" result="effect1_dropShadow_3208_11321"/>
<feBlend mode="normal" in="SourceGraphic" in2="effect1_dropShadow_3208_11321" result="shape"/>
</filter>
<filter id="filter1_d_3208_11321" x="72.9346" y="124.935" width="140.065" height="49.3913" filterUnits="userSpaceOnUse" color-interpolation-filters="sRGB">
<feFlood flood-opacity="0" result="BackgroundImageFix"/>
<feColorMatrix in="SourceAlpha" type="matrix" values="0 0 0 0 0 0 0 0 0 0 0 0 0 0 0 0 0 0 127 0" result="hardAlpha"/>
<feOffset dy="3"/>
<feGaussianBlur stdDeviation="3"/>
<feColorMatrix type="matrix" values="0 0 0 0 0 0 0 0 0 0 0 0 0 0 0 0 0 0 0.161 0"/>
<feBlend mode="normal" in2="BackgroundImageFix" result="effect1_dropShadow_3208_11321"/>
<feBlend mode="normal" in="SourceGraphic" in2="effect1_dropShadow_3208_11321" result="shape"/>
</filter>
<filter id="filter2_d_3208_11321" x="72" y="81" width="141" height="49.2421" filterUnits="userSpaceOnUse" color-interpolation-filters="sRGB">
<feFlood flood-opacity="0" result="BackgroundImageFix"/>
<feColorMatrix in="SourceAlpha" type="matrix" values="0 0 0 0 0 0 0 0 0 0 0 0 0 0 0 0 0 0 127 0" result="hardAlpha"/>
<feOffset dy="3"/>
<feGaussianBlur stdDeviation="3"/>
<feColorMatrix type="matrix" values="0 0 0 0 0 0 0 0 0 0 0 0 0 0 0 0 0 0 0.161 0"/>
<feBlend mode="normal" in2="BackgroundImageFix" result="effect1_dropShadow_3208_11321"/>
<feBlend mode="normal" in="SourceGraphic" in2="effect1_dropShadow_3208_11321" result="shape"/>
</filter>
</defs>
</svg>
