<svg width="24" height="24" viewBox="0 0 24 24" fill="none" xmlns="http://www.w3.org/2000/svg">
<path d="M16.1904 2H7.80957C4.16992 2 2 4.17 2 7.81V16.19C2 19.83 4.16992 22 7.80957 22H12.8968C12.3406 21.0424 12.0163 19.9334 12.0006 18.75V18.75C11.5904 18.75 11.25 18.41 11.25 18V17.42H10.8896C9.25 17.42 7.91992 16.03 7.91992 14.33C7.91992 13.92 8.25 13.58 8.66992 13.58C9.08008 13.58 9.41992 13.92 9.41992 14.33C9.41992 15.21 10.0801 15.92 10.8896 15.92H11.25V12.53L9.74023 12C8.95996 11.73 7.91992 11.16 7.91992 9.37C7.91992 7.83 9.12012 6.58 10.5996 6.58H11.25V6C11.25 5.59 11.5898 5.25 12 5.25C12.4102 5.25 12.75 5.59 12.75 6V6.58H13.1104C14.75 6.58 16.0801 7.97 16.0801 9.67C16.0801 10.08 15.75 10.42 15.3301 10.42C14.9199 10.42 14.5801 10.08 14.5801 9.67C14.5801 8.78999 13.9199 8.08 13.1104 8.08H12.75V11.47L14.2598 12C14.6654 12.1404 15.1412 12.3618 15.5046 12.7935C16.4437 12.2873 17.5183 12 18.66 12C19.8772 12 21.0181 12.3265 22 12.8968V7.81C22 4.17 19.8301 2 16.1904 2Z" fill="#146EF5"/>
<path d="M14.2606 13.6598C14.1287 13.5496 13.9596 13.4805 13.7598 13.41L12.75 13.06V15.5866C13.1318 14.8539 13.6459 14.201 14.2606 13.6598Z" fill="#146EF5"/>
<path d="M11.25 8.08V10.94L10.2402 10.59C9.72949 10.41 9.41992 10.24 9.41992 9.37C9.41992 8.66 9.9502 8.08 10.5996 8.08H11.25Z" fill="#146EF5"/>
<path d="M14 18.66C14 21.23 16.09 23.32 18.66 23.32C21.23 23.32 23.32 21.23 23.32 18.66C23.32 16.09 21.23 14 18.66 14C16.09 14.01 14 16.1 14 18.66ZM19.33 15.87L21.44 17.69C21.86 18.05 21.9 18.68 21.54 19.1C21.18 19.52 20.55 19.56 20.13 19.2L19.66 18.79V20.81C19.66 21.36 19.21 21.81 18.66 21.81C18.11 21.81 17.66 21.36 17.66 20.81V18.82L17.21 19.21C17.02 19.37 16.79 19.45 16.56 19.45C16.28 19.45 16 19.33 15.8 19.1C15.44 18.68 15.49 18.05 15.91 17.69L18.03 15.87C18.4 15.55 18.95 15.55 19.33 15.87Z" fill="#146EF5"/>
</svg>
