<svg width="60" height="60" viewBox="0 0 60 60" fill="none" xmlns="http://www.w3.org/2000/svg">
<rect x="0.75" y="0.75" width="58.5" height="58.5" rx="29.25" fill="#D23A2D"/>
<rect x="0.75" y="0.75" width="58.5" height="58.5" rx="29.25" stroke="white" stroke-width="1.5"/>
<path d="M46.9082 12.5586H13.0938V16.5324H46.9082V12.5586Z" fill="#FFCCC9"/>
<path d="M46.9082 15.0391H13.0938V16.532H46.9082V15.0391Z" fill="#D23A2D"/>
<path d="M46.9066 15.0391H30V16.532H46.9066V15.0391Z" fill="#FFCCC9"/>
<path d="M46.9066 12.5586H30V15.0395H46.9066V12.5586Z" fill="#FFF2F1"/>
<path d="M41.9747 14.0762H33.6579C33.2395 14.0762 32.8997 13.7364 32.8997 13.318C32.8997 12.8997 33.2395 12.5598 33.6579 12.5598H41.9747C42.393 12.5598 42.7329 12.8997 42.7329 13.318C42.7329 13.7364 42.3942 14.0762 41.9747 14.0762Z" fill="white"/>
<path d="M15.1641 11.2992V17.7926C15.1641 18.5168 14.5781 19.1027 13.8551 19.1027H12.3305C11.6074 19.1027 11.0215 18.5168 11.0215 17.7926V11.2992C11.0215 10.5762 11.6074 9.99023 12.3305 9.99023H13.8551C14.5781 9.99023 15.1641 10.5762 15.1641 11.2992Z" fill="#F39E22"/>
<path d="M15.1641 11.2992V15.2238C15.1641 15.9469 14.5781 16.5328 13.8551 16.5328H12.3305C11.6074 16.5328 11.0215 15.9469 11.0215 15.2238V11.2992C11.0215 10.5762 11.6074 9.99023 12.3305 9.99023H13.8551C14.5781 9.99023 15.1641 10.5762 15.1641 11.2992Z" fill="#F9C744"/>
<path d="M14.0398 15.0395C13.4187 15.0395 12.916 14.5367 12.916 13.9156V12.0887C12.916 11.4676 13.4187 10.9648 14.0398 10.9648C14.6609 10.9648 15.1637 11.4676 15.1637 12.0887V13.9156C15.1637 14.5367 14.6609 15.0395 14.0398 15.0395Z" fill="#FAD98F"/>
<path d="M48.9785 11.2992V17.7926C48.9785 18.5168 48.3926 19.1027 47.6695 19.1027H46.1449C45.4219 19.1027 44.8359 18.5168 44.8359 17.7926V11.2992C44.8359 10.5762 45.4219 9.99023 46.1449 9.99023H47.6695C48.3926 9.99023 48.9785 10.5762 48.9785 11.2992Z" fill="#F9C744"/>
<path d="M48.9785 11.2992V15.2238C48.9785 15.9469 48.3926 16.5328 47.6695 16.5328H46.1449C45.4219 16.5328 44.8359 15.9469 44.8359 15.2238V11.2992C44.8359 10.5762 45.4219 9.99023 46.1449 9.99023H47.6695C48.3926 9.99023 48.9785 10.5762 48.9785 11.2992Z" fill="#FAD98F"/>
<path d="M47.8543 15.0395C47.2332 15.0395 46.7305 14.5367 46.7305 13.9156V12.0887C46.7305 11.4676 47.2344 10.9648 47.8543 10.9648C48.4754 10.9648 48.9781 11.4676 48.9781 12.0887V13.9156C48.9781 14.5367 48.4742 15.0395 47.8543 15.0395Z" fill="#FAEFDC"/>
<path d="M44.8359 16.5332V49.0598C44.8359 50.3195 43.3465 50.9875 42.4066 50.1484L30.9703 39.9461C30.6938 39.6988 30.3469 39.5758 30 39.5758C29.6531 39.5758 29.3063 39.6988 29.0297 39.9461L17.5934 50.1484C16.6535 50.9875 15.1641 50.3195 15.1641 49.0598V16.5332H44.8359Z" fill="#F9C744"/>
<path d="M44.8359 16.5332V49.0598C44.8359 50.3195 43.3465 50.9875 42.4066 50.1484L30.9703 39.9461C30.6937 39.6988 30.3469 39.5758 30 39.5758V16.5332H44.8359Z" fill="#FAD98F"/>
<path d="M42.1375 16.5332V43.7395C42.1375 44.793 40.9187 45.3508 40.15 44.6488L30.7949 36.1152C30.5688 35.909 30.284 35.8059 30.0004 35.8059C29.7168 35.8059 29.432 35.909 29.2059 36.1152L19.8508 44.6488C19.082 45.3508 17.8633 44.793 17.8633 43.7395V16.5332H42.1375Z" fill="#7E2416"/>
<path d="M42.1371 16.5332V43.7395C42.1371 44.793 40.9184 45.3508 40.1496 44.6488L30.7945 36.1152C30.5684 35.909 30.2836 35.8059 30 35.8059V16.5332H42.1371Z" fill="#D23A2D"/>
<path d="M28.1964 25.7906L26.3026 27.1664C26.019 27.3726 25.9007 27.7371 26.0085 28.0699L26.7315 30.2953C26.8159 30.5542 26.5194 30.7699 26.2991 30.6093L24.4054 29.2335C24.2647 29.1304 24.0972 29.08 23.9308 29.08C23.7644 29.08 23.5968 29.1304 23.4561 29.2335L21.5624 30.6105C21.3421 30.7699 21.0456 30.5542 21.13 30.2964L21.853 28.071C21.9608 27.7382 21.8425 27.3738 21.5589 27.1675L19.6651 25.7917C19.4448 25.6312 19.5585 25.2832 19.8304 25.2832H22.1706C22.5198 25.2832 22.8304 25.0582 22.9394 24.7253L23.6624 22.5C23.7046 22.371 23.8171 22.3054 23.9296 22.3054C24.0421 22.3054 24.1546 22.371 24.1968 22.5L24.9198 24.7253C25.0276 25.0582 25.3382 25.2832 25.6886 25.2832H28.0288C28.303 25.282 28.4155 25.63 28.1964 25.7906Z" fill="#FFE3E1"/>
<path d="M28.1963 25.791L26.3025 27.1667C26.0189 27.373 25.9006 27.7375 26.0084 28.0703L26.7314 30.2957C26.8158 30.5546 26.5193 30.7703 26.299 30.6097L24.4053 29.2339C24.2646 29.1308 24.0971 29.0804 23.9307 29.0804V22.3035C24.0432 22.3035 24.1557 22.3691 24.1979 22.498L24.9209 24.7234C25.0287 25.0562 25.3393 25.2812 25.6896 25.2812H28.0299C28.3029 25.2824 28.4154 25.6304 28.1963 25.791Z" fill="white"/>
<path d="M40.3341 25.7913L38.4403 27.167C38.1567 27.3733 38.0384 27.7377 38.1462 28.0706L38.8692 30.2959C38.9536 30.5549 38.6571 30.7706 38.4368 30.61L36.5431 29.2342C36.4024 29.1311 36.2349 29.0807 36.0685 29.0807C35.902 29.0807 35.7345 29.1311 35.5938 29.2342L33.7001 30.61C33.4798 30.7694 33.1833 30.5538 33.2677 30.2959L33.9907 28.0706C34.0985 27.7377 33.9802 27.3733 33.6966 27.167L31.8028 25.7913C31.5825 25.6307 31.6962 25.2827 31.9681 25.2827H34.3083C34.6575 25.2827 34.9681 25.0577 35.077 24.7249L35.8001 22.4995C35.8423 22.3706 35.9548 22.3049 36.0673 22.3049C36.1798 22.3049 36.2923 22.3706 36.3345 22.4995L37.0575 24.7249C37.1653 25.0577 37.4759 25.2827 37.8263 25.2827H40.1665C40.4407 25.2827 40.5532 25.6307 40.3341 25.7913Z" fill="#FFE3E1"/>
<path d="M40.334 25.7912L38.4402 27.167C38.1566 27.3732 38.0383 27.7377 38.1461 28.0705L38.8691 30.2959C38.9535 30.5549 38.657 30.7705 38.4367 30.61L36.543 29.2342C36.4023 29.1311 36.2348 29.0807 36.0684 29.0807V22.3037C36.1809 22.3037 36.2934 22.3693 36.3355 22.4982L37.0586 24.7236C37.1664 25.0564 37.477 25.2814 37.8273 25.2814H40.1676C40.4406 25.2826 40.5531 25.6307 40.334 25.7912Z" fill="white"/>
</svg>
