<svg width="60" height="60" viewBox="0 0 60 60" fill="none" xmlns="http://www.w3.org/2000/svg">
<rect x="0.75" y="0.75" width="58.5" height="58.5" rx="29.25" fill="#323232"/>
<rect x="0.75" y="0.75" width="58.5" height="58.5" rx="29.25" stroke="white" stroke-width="1.5"/>
<path d="M46.9082 12.5586H13.0938V16.5324H46.9082V12.5586Z" fill="#D6D6D6"/>
<path d="M46.9082 15.0391H13.0938V16.532H46.9082V15.0391Z" fill="#BCBCBC"/>
<path d="M46.9066 15.0391H30V16.532H46.9066V15.0391Z" fill="#D6D6D6"/>
<path d="M46.9066 12.5586H30V15.0395H46.9066V12.5586Z" fill="#F0F0F0"/>
<path d="M41.9747 14.0762H33.6579C33.2395 14.0762 32.8997 13.7364 32.8997 13.318C32.8997 12.8997 33.2395 12.5598 33.6579 12.5598H41.9747C42.393 12.5598 42.7329 12.8997 42.7329 13.318C42.7329 13.7364 42.3942 14.0762 41.9747 14.0762Z" fill="white"/>
<path d="M15.1641 11.2992V17.7926C15.1641 18.5168 14.5781 19.1027 13.8551 19.1027H12.3305C11.6074 19.1027 11.0215 18.5168 11.0215 17.7926V11.2992C11.0215 10.5762 11.6074 9.99023 12.3305 9.99023H13.8551C14.5781 9.99023 15.1641 10.5762 15.1641 11.2992Z" fill="#F39E22"/>
<path d="M15.1641 11.2992V15.2238C15.1641 15.9469 14.5781 16.5328 13.8551 16.5328H12.3305C11.6074 16.5328 11.0215 15.9469 11.0215 15.2238V11.2992C11.0215 10.5762 11.6074 9.99023 12.3305 9.99023H13.8551C14.5781 9.99023 15.1641 10.5762 15.1641 11.2992Z" fill="#F9C744"/>
<path d="M14.0398 15.0395C13.4187 15.0395 12.916 14.5367 12.916 13.9156V12.0887C12.916 11.4676 13.4187 10.9648 14.0398 10.9648C14.6609 10.9648 15.1637 11.4676 15.1637 12.0887V13.9156C15.1637 14.5367 14.6609 15.0395 14.0398 15.0395Z" fill="#FAD98F"/>
<path d="M48.9785 11.2992V17.7926C48.9785 18.5168 48.3926 19.1027 47.6695 19.1027H46.1449C45.4219 19.1027 44.8359 18.5168 44.8359 17.7926V11.2992C44.8359 10.5762 45.4219 9.99023 46.1449 9.99023H47.6695C48.3926 9.99023 48.9785 10.5762 48.9785 11.2992Z" fill="#F9C744"/>
<path d="M48.9785 11.2992V15.2238C48.9785 15.9469 48.3926 16.5328 47.6695 16.5328H46.1449C45.4219 16.5328 44.8359 15.9469 44.8359 15.2238V11.2992C44.8359 10.5762 45.4219 9.99023 46.1449 9.99023H47.6695C48.3926 9.99023 48.9785 10.5762 48.9785 11.2992Z" fill="#FAD98F"/>
<path d="M47.8543 15.0395C47.2332 15.0395 46.7305 14.5367 46.7305 13.9156V12.0887C46.7305 11.4676 47.2344 10.9648 47.8543 10.9648C48.4754 10.9648 48.9781 11.4676 48.9781 12.0887V13.9156C48.9781 14.5367 48.4742 15.0395 47.8543 15.0395Z" fill="#FAEFDC"/>
<path d="M44.8359 16.5332V49.0598C44.8359 50.3195 43.3465 50.9875 42.4066 50.1484L30.9703 39.9461C30.6938 39.6988 30.3469 39.5758 30 39.5758C29.6531 39.5758 29.3063 39.6988 29.0297 39.9461L17.5934 50.1484C16.6535 50.9875 15.1641 50.3195 15.1641 49.0598V16.5332H44.8359Z" fill="#F9C744"/>
<path d="M44.8359 16.5332V49.0598C44.8359 50.3195 43.3465 50.9875 42.4066 50.1484L30.9703 39.9461C30.6937 39.6988 30.3469 39.5758 30 39.5758V16.5332H44.8359Z" fill="#FAD98F"/>
<path d="M42.1375 16.5332V43.7395C42.1375 44.793 40.9187 45.3508 40.15 44.6488L30.7949 36.1152C30.5688 35.909 30.284 35.8059 30.0004 35.8059C29.7168 35.8059 29.432 35.909 29.2059 36.1152L19.8508 44.6488C19.082 45.3508 17.8633 44.793 17.8633 43.7395V16.5332H42.1375Z" fill="#1F1F1F"/>
<path d="M42.1371 16.5332V43.7395C42.1371 44.793 40.9184 45.3508 40.1496 44.6488L30.7945 36.1152C30.5684 35.909 30.2836 35.8059 30 35.8059V16.5332H42.1371Z" fill="#575555"/>
<path d="M26.3347 32.7011L25.081 33.6115C24.8936 33.7484 24.8146 33.9891 24.886 34.2098L25.3644 35.6842C25.4206 35.8554 25.2237 35.9981 25.0781 35.8925L23.8244 34.9812C23.7312 34.9127 23.6199 34.8794 23.5096 34.8794C23.3992 34.8794 23.2889 34.9127 23.1947 34.9812L21.941 35.8925C21.7955 35.9981 21.5986 35.8554 21.6547 35.6842L22.1332 34.2098C22.2045 33.9891 22.1265 33.7484 21.9382 33.6115L20.6845 32.7011C20.5389 32.5946 20.6141 32.3644 20.7939 32.3644H22.3434C22.5745 32.3644 22.7809 32.2151 22.8523 31.9944L23.3307 30.52C23.3583 30.4344 23.4335 30.3916 23.5077 30.3916C23.5819 30.3916 23.657 30.4344 23.6846 30.52L24.1631 31.9944C24.2344 32.2151 24.4399 32.3644 24.672 32.3644H26.2215C26.4051 32.3644 26.4802 32.5946 26.3347 32.7011Z" fill="#F0F0F0"/>
<path d="M26.3346 32.7011L25.0809 33.6115C24.8935 33.7484 24.8146 33.9891 24.8859 34.2098L25.3644 35.6842C25.4205 35.8554 25.2236 35.9981 25.0781 35.8925L23.8244 34.9812C23.7312 34.9127 23.6199 34.8794 23.5095 34.8794V30.3916C23.5837 30.3916 23.6589 30.4344 23.6864 30.52L24.1649 31.9944C24.2362 32.2151 24.4417 32.3644 24.6738 32.3644H26.2233C26.405 32.3644 26.4802 32.5946 26.3346 32.7011Z" fill="white"/>
<path d="M26.3347 21.0266L25.081 21.9369C24.8936 22.0739 24.8146 22.3145 24.886 22.5352L25.3644 24.0096C25.4206 24.1808 25.2237 24.3235 25.0781 24.2179L23.8244 23.3066C23.7312 23.2382 23.6199 23.2049 23.5096 23.2049C23.3992 23.2049 23.2889 23.2382 23.1947 23.3066L21.941 24.2179C21.7955 24.3235 21.5986 24.1808 21.6547 24.0096L22.1332 22.5352C22.2045 22.3145 22.1265 22.0739 21.9382 21.9369L20.6845 21.0266C20.5389 20.9201 20.6141 20.6899 20.7939 20.6899H22.3434C22.5745 20.6899 22.7809 20.5405 22.8523 20.3198L23.3307 18.8455C23.3583 18.7598 23.4335 18.717 23.5077 18.717C23.5819 18.717 23.657 18.7598 23.6846 18.8455L24.1631 20.3198C24.2344 20.5405 24.4399 20.6899 24.672 20.6899H26.2215C26.4051 20.6899 26.4802 20.9201 26.3347 21.0266Z" fill="#F0F0F0"/>
<path d="M26.3346 21.0266L25.0809 21.9369C24.8935 22.0739 24.8146 22.3145 24.8859 22.5352L25.3644 24.0096C25.4205 24.1808 25.2236 24.3235 25.0781 24.2179L23.8244 23.3066C23.7312 23.2382 23.6199 23.2049 23.5095 23.2049V18.717C23.5837 18.717 23.6589 18.7598 23.6864 18.8455L24.1649 20.3198C24.2362 20.5405 24.4417 20.6899 24.6738 20.6899H26.2233C26.405 20.6899 26.4802 20.9201 26.3346 21.0266Z" fill="white"/>
<path d="M39.4253 32.7011L38.1716 33.6115C37.9842 33.7484 37.9052 33.9891 37.9766 34.2098L38.455 35.6842C38.5111 35.8554 38.3142 35.9981 38.1687 35.8925L36.915 34.9812C36.8218 34.9127 36.7105 34.8794 36.6002 34.8794C36.4898 34.8794 36.3785 34.9127 36.2853 34.9812L35.0316 35.8925C34.8861 35.9981 34.6892 35.8554 34.7453 35.6842L35.2237 34.2098C35.2951 33.9891 35.2171 33.7484 35.0287 33.6115L33.775 32.7011C33.6295 32.5946 33.7047 32.3644 33.8844 32.3644H35.434C35.6651 32.3644 35.8715 32.2151 35.9429 31.9944L36.4213 30.52C36.4489 30.4344 36.5241 30.3916 36.5982 30.3916C36.6724 30.3916 36.7476 30.4344 36.7752 30.52L37.2536 31.9944C37.325 32.2151 37.5304 32.3644 37.7625 32.3644H39.3121C39.4956 32.3644 39.5708 32.5946 39.4253 32.7011Z" fill="#F0F0F0"/>
<path d="M39.4252 32.7011L38.1715 33.6115C37.9841 33.7484 37.9052 33.9891 37.9765 34.2098L38.455 35.6842C38.5111 35.8554 38.3142 35.9981 38.1687 35.8925L36.9149 34.9812C36.8217 34.9127 36.7104 34.8794 36.6001 34.8794V30.3916C36.6743 30.3916 36.7494 30.4344 36.777 30.52L37.2555 31.9944C37.3268 32.2151 37.5323 32.3644 37.7644 32.3644H39.3139C39.4956 32.3644 39.5707 32.5946 39.4252 32.7011Z" fill="white"/>
<path d="M39.4253 21.0266L38.1716 21.9369C37.9842 22.0739 37.9052 22.3145 37.9766 22.5352L38.455 24.0096C38.5111 24.1808 38.3142 24.3235 38.1687 24.2179L36.915 23.3066C36.8218 23.2382 36.7105 23.2049 36.6002 23.2049C36.4898 23.2049 36.3785 23.2382 36.2853 23.3066L35.0316 24.2179C34.8861 24.3235 34.6892 24.1808 34.7453 24.0096L35.2237 22.5352C35.2951 22.3145 35.2171 22.0739 35.0287 21.9369L33.775 21.0266C33.6295 20.9201 33.7047 20.6899 33.8844 20.6899H35.434C35.6651 20.6899 35.8715 20.5405 35.9429 20.3198L36.4213 18.8455C36.4489 18.7598 36.5241 18.717 36.5982 18.717C36.6724 18.717 36.7476 18.7598 36.7752 18.8455L37.2536 20.3198C37.325 20.5405 37.5304 20.6899 37.7625 20.6899H39.3121C39.4956 20.6899 39.5708 20.9201 39.4253 21.0266Z" fill="#F0F0F0"/>
<path d="M39.4252 21.0266L38.1715 21.9369C37.9841 22.0739 37.9052 22.3145 37.9765 22.5352L38.455 24.0096C38.5111 24.1808 38.3142 24.3235 38.1687 24.2179L36.9149 23.3066C36.8217 23.2382 36.7104 23.2049 36.6001 23.2049V18.717C36.6743 18.717 36.7494 18.7598 36.777 18.8455L37.2555 20.3198C37.3268 20.5405 37.5323 20.6899 37.7644 20.6899H39.3139C39.4956 20.6899 39.5707 20.9201 39.4252 21.0266Z" fill="white"/>
<path d="M34.2669 25.8733L32.3732 27.2491C32.0896 27.4553 31.9712 27.8198 32.079 28.1526L32.8021 30.378C32.8865 30.637 32.59 30.8526 32.3697 30.692L30.4759 29.3163C30.3353 29.2131 30.1677 29.1627 30.0013 29.1627C29.8349 29.1627 29.6673 29.2131 29.5267 29.3163L27.633 30.692C27.4126 30.8514 27.1162 30.6358 27.2005 30.378L27.9236 28.1526C28.0314 27.8198 27.913 27.4553 27.6294 27.2491L25.7357 25.8733C25.5154 25.7127 25.629 25.3647 25.9009 25.3647H28.2412C28.5904 25.3647 28.9009 25.1397 29.0099 24.8069L29.733 22.5815C29.7751 22.4526 29.8876 22.387 30.0001 22.387C30.1126 22.387 30.2251 22.4526 30.2673 22.5815L30.9904 24.8069C31.0982 25.1397 31.4087 25.3647 31.7591 25.3647H34.0994C34.3736 25.3647 34.4861 25.7127 34.2669 25.8733Z" fill="#F0F0F0"/>
<path d="M34.2668 25.8732L32.3731 27.249C32.0895 27.4553 31.9711 27.8197 32.079 28.1525L32.802 30.3779C32.8864 30.6369 32.5899 30.8525 32.3696 30.692L30.4758 29.3162C30.3352 29.2131 30.1676 29.1627 30.0012 29.1627V22.3857C30.1137 22.3857 30.2262 22.4514 30.2684 22.5803L30.9915 24.8057C31.0993 25.1385 31.4098 25.3635 31.7602 25.3635H34.1004C34.3735 25.3646 34.486 25.7127 34.2668 25.8732Z" fill="white"/>
</svg>
