<svg width="60" height="60" viewBox="0 0 60 60" fill="none" xmlns="http://www.w3.org/2000/svg">
<rect x="0.75" y="0.75" width="58.5" height="58.5" rx="29.25" fill="#027A66"/>
<rect x="0.75" y="0.75" width="58.5" height="58.5" rx="29.25" stroke="white" stroke-width="1.5"/>
<path d="M46.9082 12.5586H13.0938V16.5324H46.9082V12.5586Z" fill="#A6F4D9"/>
<path d="M46.9082 15.0391H13.0938V16.532H46.9082V15.0391Z" fill="#12B793"/>
<path d="M46.9066 15.0391H30V16.532H46.9066V15.0391Z" fill="#A6F4D9"/>
<path d="M46.9066 12.5586H30V15.0395H46.9066V12.5586Z" fill="#D1FAE9"/>
<path d="M41.9747 14.0762H33.6579C33.2395 14.0762 32.8997 13.7364 32.8997 13.318C32.8997 12.8997 33.2395 12.5598 33.6579 12.5598H41.9747C42.393 12.5598 42.7329 12.8997 42.7329 13.318C42.7329 13.7364 42.3942 14.0762 41.9747 14.0762Z" fill="white"/>
<path d="M15.1641 11.2992V17.7926C15.1641 18.5168 14.5781 19.1027 13.8551 19.1027H12.3305C11.6074 19.1027 11.0215 18.5168 11.0215 17.7926V11.2992C11.0215 10.5762 11.6074 9.99023 12.3305 9.99023H13.8551C14.5781 9.99023 15.1641 10.5762 15.1641 11.2992Z" fill="#F39E22"/>
<path d="M15.1641 11.2992V15.2238C15.1641 15.9469 14.5781 16.5328 13.8551 16.5328H12.3305C11.6074 16.5328 11.0215 15.9469 11.0215 15.2238V11.2992C11.0215 10.5762 11.6074 9.99023 12.3305 9.99023H13.8551C14.5781 9.99023 15.1641 10.5762 15.1641 11.2992Z" fill="#F9C744"/>
<path d="M14.0398 15.0395C13.4187 15.0395 12.916 14.5367 12.916 13.9156V12.0887C12.916 11.4676 13.4187 10.9648 14.0398 10.9648C14.6609 10.9648 15.1637 11.4676 15.1637 12.0887V13.9156C15.1637 14.5367 14.6609 15.0395 14.0398 15.0395Z" fill="#FAD98F"/>
<path d="M48.9785 11.2992V17.7926C48.9785 18.5168 48.3926 19.1027 47.6695 19.1027H46.1449C45.4219 19.1027 44.8359 18.5168 44.8359 17.7926V11.2992C44.8359 10.5762 45.4219 9.99023 46.1449 9.99023H47.6695C48.3926 9.99023 48.9785 10.5762 48.9785 11.2992Z" fill="#F9C744"/>
<path d="M48.9785 11.2992V15.2238C48.9785 15.9469 48.3926 16.5328 47.6695 16.5328H46.1449C45.4219 16.5328 44.8359 15.9469 44.8359 15.2238V11.2992C44.8359 10.5762 45.4219 9.99023 46.1449 9.99023H47.6695C48.3926 9.99023 48.9785 10.5762 48.9785 11.2992Z" fill="#FAD98F"/>
<path d="M47.8543 15.0395C47.2332 15.0395 46.7305 14.5367 46.7305 13.9156V12.0887C46.7305 11.4676 47.2344 10.9648 47.8543 10.9648C48.4754 10.9648 48.9781 11.4676 48.9781 12.0887V13.9156C48.9781 14.5367 48.4742 15.0395 47.8543 15.0395Z" fill="#FAEFDC"/>
<path d="M44.8359 16.5332V49.0598C44.8359 50.3195 43.3465 50.9875 42.4066 50.1484L30.9703 39.9461C30.6938 39.6988 30.3469 39.5758 30 39.5758C29.6531 39.5758 29.3063 39.6988 29.0297 39.9461L17.5934 50.1484C16.6535 50.9875 15.1641 50.3195 15.1641 49.0598V16.5332H44.8359Z" fill="#F9C744"/>
<path d="M44.8359 16.5332V49.0598C44.8359 50.3195 43.3465 50.9875 42.4066 50.1484L30.9703 39.9461C30.6937 39.6988 30.3469 39.5758 30 39.5758V16.5332H44.8359Z" fill="#FAD98F"/>
<path d="M42.1375 16.5332V43.7395C42.1375 44.793 40.9187 45.3508 40.15 44.6488L30.7949 36.1152C30.5688 35.909 30.284 35.8059 30.0004 35.8059C29.7168 35.8059 29.432 35.909 29.2059 36.1152L19.8508 44.6488C19.082 45.3508 17.8633 44.793 17.8633 43.7395V16.5332H42.1375Z" fill="#054F44"/>
<path d="M42.1371 16.5332V43.7395C42.1371 44.793 40.9184 45.3508 40.1496 44.6488L30.7945 36.1152C30.5684 35.909 30.2836 35.8059 30 35.8059V16.5332H42.1371Z" fill="#03987A"/>
<path d="M28.1971 21.6663L26.3034 23.0421C26.0198 23.2483 25.9014 23.6128 26.0092 23.9456L26.7323 26.171C26.8166 26.43 26.5202 26.6456 26.2998 26.4851L24.4061 25.1093C24.2655 25.0062 24.0979 24.9558 23.9315 24.9558C23.7651 24.9558 23.5975 25.0062 23.4569 25.1093L21.5631 26.4862C21.3428 26.6456 21.0463 26.43 21.1307 26.1722L21.8538 23.9468C21.9616 23.614 21.8432 23.2495 21.5596 23.0433L19.6659 21.6675C19.4456 21.5069 19.5592 21.1589 19.8311 21.1589H22.1713C22.5206 21.1589 22.8311 20.9339 22.9401 20.6011L23.6631 18.3757C23.7053 18.2468 23.8178 18.1812 23.9303 18.1812C24.0428 18.1812 24.1553 18.2468 24.1975 18.3757L24.9206 20.6011C25.0284 20.9339 25.3389 21.1589 25.6893 21.1589H28.0295C28.3038 21.1577 28.4163 21.5058 28.1971 21.6663Z" fill="#F0F0F0"/>
<path d="M28.197 21.6667L26.3033 23.0425C26.0197 23.2487 25.9013 23.6132 26.0091 23.946L26.7322 26.1714C26.8166 26.4304 26.5201 26.646 26.2998 26.4855L24.406 25.1097C24.2654 25.0065 24.0978 24.9562 23.9314 24.9562V18.1792C24.0439 18.1792 24.1564 18.2448 24.1986 18.3737L24.9216 20.5991C25.0294 20.9319 25.34 21.1569 25.6904 21.1569H28.0306C28.3037 21.1581 28.4162 21.5062 28.197 21.6667Z" fill="white"/>
<path d="M40.3348 21.6672L38.4411 23.043C38.1575 23.2493 38.0391 23.6137 38.1469 23.9465L38.87 26.1719C38.9543 26.4309 38.6579 26.6465 38.4375 26.486L36.5438 25.1102C36.4032 25.0071 36.2356 24.9567 36.0692 24.9567C35.9028 24.9567 35.7352 25.0071 35.5946 25.1102L33.7008 26.486C33.4805 26.6454 33.184 26.4297 33.2684 26.1719L33.9914 23.9465C34.0993 23.6137 33.9809 23.2493 33.6973 23.043L31.8036 21.6672C31.5832 21.5067 31.6969 21.1586 31.9688 21.1586H34.309C34.6582 21.1586 34.9688 20.9336 35.0778 20.6008L35.8008 18.3754C35.843 18.2465 35.9555 18.1809 36.068 18.1809C36.1805 18.1809 36.293 18.2465 36.3352 18.3754L37.0582 20.6008C37.1661 20.9336 37.4766 21.1586 37.827 21.1586H40.1672C40.4415 21.1586 40.5539 21.5067 40.3348 21.6672Z" fill="#F0F0F0"/>
<path d="M40.3347 21.6672L38.441 23.043C38.1574 23.2492 38.039 23.6137 38.1468 23.9465L38.8699 26.1719C38.9542 26.4309 38.6578 26.6465 38.4375 26.4859L36.5437 25.1102C36.4031 25.007 36.2355 24.9566 36.0691 24.9566V18.1797C36.1816 18.1797 36.2941 18.2453 36.3363 18.3742L37.0593 20.5996C37.1671 20.9324 37.4777 21.1574 37.8281 21.1574H40.1683C40.4414 21.1586 40.5539 21.5066 40.3347 21.6672Z" fill="white"/>
<path d="M27.3585 31.6466L25.814 32.7681C25.5831 32.9368 25.4859 33.2333 25.5738 33.5052L26.1632 35.3216C26.2324 35.5325 25.9898 35.7083 25.8105 35.5782L24.266 34.4556C24.1511 34.3712 24.014 34.3302 23.8781 34.3302C23.7421 34.3302 23.6062 34.3712 23.4902 34.4556L21.9456 35.5782C21.7663 35.7083 21.5238 35.5325 21.5929 35.3216L22.1824 33.5052C22.2703 33.2333 22.1742 32.9368 21.9421 32.7681L20.3976 31.6466C20.2183 31.5153 20.3109 31.2317 20.5324 31.2317H22.4413C22.7261 31.2317 22.9804 31.0478 23.0683 30.7759L23.6578 28.9595C23.6917 28.854 23.7843 28.8013 23.8757 28.8013C23.9671 28.8013 24.0597 28.854 24.0937 28.9595L24.6831 30.7759C24.771 31.0478 25.0242 31.2317 25.3101 31.2317H27.2191C27.4453 31.2317 27.5378 31.5153 27.3585 31.6466Z" fill="#F4E6F4"/>
<path d="M27.3586 31.6466L25.8141 32.7681C25.5833 32.9368 25.486 33.2333 25.5739 33.5052L26.1633 35.3216C26.2325 35.5325 25.9899 35.7083 25.8106 35.5782L24.2661 34.4556C24.1512 34.3712 24.0141 34.3302 23.8782 34.3302V28.8013C23.9696 28.8013 24.0622 28.854 24.0961 28.9595L24.6856 30.7759C24.7735 31.0478 25.0266 31.2317 25.3125 31.2317H27.2215C27.4454 31.2317 27.5379 31.5153 27.3586 31.6466Z" fill="white"/>
<path d="M39.6046 31.6466L38.0601 32.7681C37.8292 32.9368 37.732 33.2333 37.8199 33.5052L38.4093 35.3216C38.4785 35.5325 38.2359 35.7083 38.0566 35.5782L36.512 34.4556C36.3972 34.3712 36.2601 34.3302 36.1242 34.3302C35.9882 34.3302 35.8511 34.3712 35.7363 34.4556L34.1917 35.5782C34.0124 35.7083 33.7699 35.5325 33.839 35.3216L34.4285 33.5052C34.5163 33.2333 34.4203 32.9368 34.1882 32.7681L32.6437 31.6466C32.4644 31.5153 32.557 31.2317 32.7785 31.2317H34.6874C34.9722 31.2317 35.2265 31.0478 35.3144 30.7759L35.9038 28.9595C35.9378 28.854 36.0304 28.8013 36.1218 28.8013C36.2132 28.8013 36.3058 28.854 36.3398 28.9595L36.9292 30.7759C37.0171 31.0478 37.2703 31.2317 37.5562 31.2317H39.4652C39.6913 31.2317 39.7839 31.5153 39.6046 31.6466Z" fill="#F4E6F4"/>
<path d="M39.6047 31.6466L38.0602 32.7681C37.8293 32.9368 37.7321 33.2333 37.82 33.5052L38.4094 35.3216C38.4786 35.5325 38.236 35.7083 38.0567 35.5782L36.5122 34.4556C36.3973 34.3712 36.2602 34.3302 36.1243 34.3302V28.8013C36.2157 28.8013 36.3083 28.854 36.3422 28.9595L36.9317 30.7759C37.0196 31.0478 37.2727 31.2317 37.5586 31.2317H39.4676C39.6915 31.2317 39.784 31.5153 39.6047 31.6466Z" fill="white"/>
</svg>
