<svg width="60" height="60" viewBox="0 0 60 60" fill="none" xmlns="http://www.w3.org/2000/svg">
<rect x="0.75" y="0.75" width="58.5" height="58.5" rx="29.25" fill="#6052A3"/>
<rect x="0.75" y="0.75" width="58.5" height="58.5" rx="29.25" stroke="white" stroke-width="1.5"/>
<path d="M46.9082 12.5586H13.0938V16.5324H46.9082V12.5586Z" fill="#DECEE5"/>
<path d="M46.9082 15.0391H13.0938V16.532H46.9082V15.0391Z" fill="#C2AACF"/>
<path d="M46.9066 15.0391H30V16.532H46.9066V15.0391Z" fill="#DECEE5"/>
<path d="M46.9066 12.5586H30V15.0395H46.9066V12.5586Z" fill="#F4E6F4"/>
<path d="M41.9747 14.0762H33.6579C33.2395 14.0762 32.8997 13.7364 32.8997 13.318C32.8997 12.8997 33.2395 12.5598 33.6579 12.5598H41.9747C42.393 12.5598 42.7329 12.8997 42.7329 13.318C42.7329 13.7364 42.3942 14.0762 41.9747 14.0762Z" fill="white"/>
<path d="M15.1641 11.2992V17.7926C15.1641 18.5168 14.5781 19.1027 13.8551 19.1027H12.3305C11.6074 19.1027 11.0215 18.5168 11.0215 17.7926V11.2992C11.0215 10.5762 11.6074 9.99023 12.3305 9.99023H13.8551C14.5781 9.99023 15.1641 10.5762 15.1641 11.2992Z" fill="#F39E22"/>
<path d="M15.1641 11.2992V15.2238C15.1641 15.9469 14.5781 16.5328 13.8551 16.5328H12.3305C11.6074 16.5328 11.0215 15.9469 11.0215 15.2238V11.2992C11.0215 10.5762 11.6074 9.99023 12.3305 9.99023H13.8551C14.5781 9.99023 15.1641 10.5762 15.1641 11.2992Z" fill="#F9C744"/>
<path d="M14.0398 15.0395C13.4187 15.0395 12.916 14.5367 12.916 13.9156V12.0887C12.916 11.4676 13.4187 10.9648 14.0398 10.9648C14.6609 10.9648 15.1637 11.4676 15.1637 12.0887V13.9156C15.1637 14.5367 14.6609 15.0395 14.0398 15.0395Z" fill="#FAD98F"/>
<path d="M48.9785 11.2992V17.7926C48.9785 18.5168 48.3926 19.1027 47.6695 19.1027H46.1449C45.4219 19.1027 44.8359 18.5168 44.8359 17.7926V11.2992C44.8359 10.5762 45.4219 9.99023 46.1449 9.99023H47.6695C48.3926 9.99023 48.9785 10.5762 48.9785 11.2992Z" fill="#F9C744"/>
<path d="M48.9785 11.2992V15.2238C48.9785 15.9469 48.3926 16.5328 47.6695 16.5328H46.1449C45.4219 16.5328 44.8359 15.9469 44.8359 15.2238V11.2992C44.8359 10.5762 45.4219 9.99023 46.1449 9.99023H47.6695C48.3926 9.99023 48.9785 10.5762 48.9785 11.2992Z" fill="#FAD98F"/>
<path d="M47.8543 15.0395C47.2332 15.0395 46.7305 14.5367 46.7305 13.9156V12.0887C46.7305 11.4676 47.2344 10.9648 47.8543 10.9648C48.4754 10.9648 48.9781 11.4676 48.9781 12.0887V13.9156C48.9781 14.5367 48.4742 15.0395 47.8543 15.0395Z" fill="#FAEFDC"/>
<path d="M44.8359 16.5332V49.0598C44.8359 50.3195 43.3465 50.9875 42.4066 50.1484L30.9703 39.9461C30.6938 39.6988 30.3469 39.5758 30 39.5758C29.6531 39.5758 29.3063 39.6988 29.0297 39.9461L17.5934 50.1484C16.6535 50.9875 15.1641 50.3195 15.1641 49.0598V16.5332H44.8359Z" fill="#F9C744"/>
<path d="M44.8359 16.5332V49.0598C44.8359 50.3195 43.3465 50.9875 42.4066 50.1484L30.9703 39.9461C30.6937 39.6988 30.3469 39.5758 30 39.5758V16.5332H44.8359Z" fill="#FAD98F"/>
<path d="M42.1375 16.5332V43.7395C42.1375 44.793 40.9187 45.3508 40.15 44.6488L30.7949 36.1152C30.5688 35.909 30.284 35.8059 30.0004 35.8059C29.7168 35.8059 29.432 35.909 29.2059 36.1152L19.8508 44.6488C19.082 45.3508 17.8633 44.793 17.8633 43.7395V16.5332H42.1375Z" fill="#422B86"/>
<path d="M42.1371 16.5332V43.7395C42.1371 44.793 40.9184 45.3508 40.1496 44.6488L30.7945 36.1152C30.5684 35.909 30.2836 35.8059 30 35.8059V16.5332H42.1371Z" fill="#6052A3"/>
<path d="M27.3563 31.3766L25.8118 32.498C25.5809 32.6668 25.4837 32.9633 25.5716 33.2352L26.161 35.0516C26.2302 35.2625 25.9876 35.4383 25.8083 35.3082L24.2638 34.1855C24.1489 34.1012 24.0118 34.0602 23.8759 34.0602C23.7399 34.0602 23.604 34.1012 23.488 34.1855L21.9434 35.3082C21.7642 35.4383 21.5216 35.2625 21.5907 35.0516L22.1802 33.2352C22.2681 32.9633 22.172 32.6668 21.9399 32.498L20.3954 31.3766C20.2161 31.2453 20.3087 30.9617 20.5302 30.9617H22.4392C22.7239 30.9617 22.9782 30.7777 23.0661 30.5059L23.6556 28.6895C23.6895 28.584 23.7821 28.5312 23.8735 28.5312C23.9649 28.5312 24.0575 28.584 24.0915 28.6895L24.6809 30.5059C24.7688 30.7777 25.022 30.9617 25.3079 30.9617H27.2169C27.4431 30.9617 27.5356 31.2453 27.3563 31.3766Z" fill="#F4E6F4"/>
<path d="M27.3564 31.3766L25.8119 32.498C25.5811 32.6668 25.4838 32.9633 25.5717 33.2352L26.1611 35.0516C26.2303 35.2625 25.9877 35.4383 25.8084 35.3082L24.2639 34.1855C24.149 34.1012 24.0119 34.0602 23.876 34.0602V28.5312C23.9674 28.5312 24.06 28.584 24.0939 28.6895L24.6834 30.5059C24.7713 30.7777 25.0244 30.9617 25.3104 30.9617H27.2193C27.4432 30.9617 27.5357 31.2453 27.3564 31.3766Z" fill="white"/>
<path d="M39.6024 31.3766L38.0579 32.498C37.827 32.6668 37.7298 32.9633 37.8177 33.2352L38.4071 35.0516C38.4763 35.2625 38.2337 35.4383 38.0544 35.3082L36.5099 34.1855C36.395 34.1012 36.2579 34.0602 36.122 34.0602C35.986 34.0602 35.8489 34.1012 35.7341 34.1855L34.1895 35.3082C34.0102 35.4383 33.7677 35.2625 33.8368 35.0516L34.4263 33.2352C34.5141 32.9633 34.4181 32.6668 34.186 32.498L32.6415 31.3766C32.4622 31.2453 32.5548 30.9617 32.7763 30.9617H34.6852C34.97 30.9617 35.2243 30.7777 35.3122 30.5059L35.9016 28.6895C35.9356 28.584 36.0282 28.5312 36.1196 28.5312C36.211 28.5312 36.3036 28.584 36.3376 28.6895L36.927 30.5059C37.0149 30.7777 37.2681 30.9617 37.554 30.9617H39.463C39.6892 30.9617 39.7817 31.2453 39.6024 31.3766Z" fill="#F4E6F4"/>
<path d="M39.6025 31.3766L38.058 32.498C37.8272 32.6668 37.7299 32.9633 37.8178 33.2352L38.4072 35.0516C38.4764 35.2625 38.2338 35.4383 38.0545 35.3082L36.51 34.1855C36.3951 34.1012 36.258 34.0602 36.1221 34.0602V28.5312C36.2135 28.5312 36.3061 28.584 36.34 28.6895L36.9295 30.5059C37.0174 30.7777 37.2705 30.9617 37.5564 30.9617H39.4654C39.6893 30.9617 39.7818 31.2453 39.6025 31.3766Z" fill="white"/>
<path d="M35.3532 22.634L32.9766 24.3602C32.6215 24.6192 32.4715 25.0762 32.6075 25.4946L33.5157 28.2883C33.6223 28.6129 33.2496 28.8836 32.9731 28.6833L30.5965 26.9559C30.4196 26.8258 30.2098 26.7625 30 26.7625C29.7903 26.7625 29.5805 26.8258 29.4035 26.9559L27.027 28.6833C26.7504 28.8836 26.3789 28.6129 26.4844 28.2883L27.3926 25.4946C27.5285 25.0762 27.3785 24.6192 27.0235 24.3602L24.6469 22.634C24.3703 22.4325 24.5133 21.9954 24.8543 21.9954H27.7922C28.2317 21.9954 28.6207 21.7129 28.7567 21.2946L29.6649 18.5008C29.7176 18.3391 29.8594 18.2571 30 18.2571C30.1407 18.2571 30.2825 18.3391 30.3352 18.5008L31.2434 21.2946C31.3793 21.7129 31.7684 21.9954 32.2078 21.9954H35.1457C35.4867 21.9954 35.6297 22.4325 35.3532 22.634Z" fill="#F4E6F4"/>
<path d="M35.3531 22.634L32.9766 24.3602C32.6215 24.6192 32.4715 25.0762 32.6074 25.4946L33.5156 28.2883C33.6223 28.6129 33.2496 28.8836 32.973 28.6833L30.5965 26.9559C30.4195 26.8258 30.2098 26.7625 30 26.7625V18.2571C30.1418 18.2571 30.2824 18.3391 30.3352 18.5008L31.2434 21.2946C31.3793 21.7129 31.7684 21.9954 32.2078 21.9954H35.1457C35.4867 21.9954 35.6297 22.4325 35.3531 22.634Z" fill="white"/>
</svg>
