<svg width="60" height="60" viewBox="0 0 60 60" fill="none" xmlns="http://www.w3.org/2000/svg">
<rect x="0.75" y="0.75" width="58.5" height="58.5" rx="29.25" fill="#00398F"/>
<rect x="0.75" y="0.75" width="58.5" height="58.5" rx="29.25" stroke="white" stroke-width="1.5"/>
<path d="M46.9082 12.5586H13.0938V16.5324H46.9082V12.5586Z" fill="#BBD3F8"/>
<path d="M46.9082 15.0391H13.0938V16.532H46.9082V15.0391Z" fill="#586E92"/>
<path d="M46.9066 15.0391H30V16.532H46.9066V15.0391Z" fill="#BBD3F8"/>
<path d="M46.9066 12.5586H30V15.0395H46.9066V12.5586Z" fill="#E7F1FF"/>
<path d="M41.9747 14.0762H33.6579C33.2395 14.0762 32.8997 13.7364 32.8997 13.318C32.8997 12.8997 33.2395 12.5598 33.6579 12.5598H41.9747C42.393 12.5598 42.7329 12.8997 42.7329 13.318C42.7329 13.7364 42.3942 14.0762 41.9747 14.0762Z" fill="white"/>
<path d="M15.1641 11.2992V17.7926C15.1641 18.5168 14.5781 19.1027 13.8551 19.1027H12.3305C11.6074 19.1027 11.0215 18.5168 11.0215 17.7926V11.2992C11.0215 10.5762 11.6074 9.99023 12.3305 9.99023H13.8551C14.5781 9.99023 15.1641 10.5762 15.1641 11.2992Z" fill="#F39E22"/>
<path d="M15.1641 11.2992V15.2238C15.1641 15.9469 14.5781 16.5328 13.8551 16.5328H12.3305C11.6074 16.5328 11.0215 15.9469 11.0215 15.2238V11.2992C11.0215 10.5762 11.6074 9.99023 12.3305 9.99023H13.8551C14.5781 9.99023 15.1641 10.5762 15.1641 11.2992Z" fill="#F9C744"/>
<path d="M14.0398 15.0395C13.4187 15.0395 12.916 14.5367 12.916 13.9156V12.0887C12.916 11.4676 13.4187 10.9648 14.0398 10.9648C14.6609 10.9648 15.1637 11.4676 15.1637 12.0887V13.9156C15.1637 14.5367 14.6609 15.0395 14.0398 15.0395Z" fill="#FAD98F"/>
<path d="M48.9785 11.2992V17.7926C48.9785 18.5168 48.3926 19.1027 47.6695 19.1027H46.1449C45.4219 19.1027 44.8359 18.5168 44.8359 17.7926V11.2992C44.8359 10.5762 45.4219 9.99023 46.1449 9.99023H47.6695C48.3926 9.99023 48.9785 10.5762 48.9785 11.2992Z" fill="#F9C744"/>
<path d="M48.9785 11.2992V15.2238C48.9785 15.9469 48.3926 16.5328 47.6695 16.5328H46.1449C45.4219 16.5328 44.8359 15.9469 44.8359 15.2238V11.2992C44.8359 10.5762 45.4219 9.99023 46.1449 9.99023H47.6695C48.3926 9.99023 48.9785 10.5762 48.9785 11.2992Z" fill="#FAD98F"/>
<path d="M47.8543 15.0395C47.2332 15.0395 46.7305 14.5367 46.7305 13.9156V12.0887C46.7305 11.4676 47.2344 10.9648 47.8543 10.9648C48.4754 10.9648 48.9781 11.4676 48.9781 12.0887V13.9156C48.9781 14.5367 48.4742 15.0395 47.8543 15.0395Z" fill="#FAEFDC"/>
<path d="M44.8359 16.5332V49.0598C44.8359 50.3195 43.3465 50.9875 42.4066 50.1484L30.9703 39.9461C30.6938 39.6988 30.3469 39.5758 30 39.5758C29.6531 39.5758 29.3063 39.6988 29.0297 39.9461L17.5934 50.1484C16.6535 50.9875 15.1641 50.3195 15.1641 49.0598V16.5332H44.8359Z" fill="#F9C744"/>
<path d="M44.8359 16.5332V49.0598C44.8359 50.3195 43.3465 50.9875 42.4066 50.1484L30.9703 39.9461C30.6937 39.6988 30.3469 39.5758 30 39.5758V16.5332H44.8359Z" fill="#FAD98F"/>
<path d="M42.1375 16.5332V43.7395C42.1375 44.793 40.9187 45.3508 40.15 44.6488L30.7949 36.1152C30.5688 35.909 30.284 35.8059 30.0004 35.8059C29.7168 35.8059 29.432 35.909 29.2059 36.1152L19.8508 44.6488C19.082 45.3508 17.8633 44.793 17.8633 43.7395V16.5332H42.1375Z" fill="#00255C"/>
<path d="M42.1371 16.5332V43.7395C42.1371 44.793 40.9184 45.3508 40.1496 44.6488L30.7945 36.1152C30.5684 35.909 30.2836 35.8059 30 35.8059V16.5332H42.1371Z" fill="#00398F"/>
<path d="M36.9736 25.3508L33.8775 27.5996C33.4146 27.9371 33.2201 28.5324 33.397 29.0773L34.5794 32.7172C34.7177 33.1402 34.2326 33.493 33.8728 33.2316L30.7767 30.9816C30.5459 30.8129 30.2728 30.7297 29.9998 30.7297C29.7267 30.7297 29.4537 30.8129 29.2228 30.9816L26.1267 33.2316C25.767 33.493 25.2818 33.1402 25.4201 32.7172L26.6025 29.0773C26.7795 28.5324 26.5849 27.9371 26.122 27.5996L23.0259 25.3508C22.6662 25.0883 22.8513 24.5187 23.2966 24.5187H27.124C27.6959 24.5187 28.2033 24.1508 28.3802 23.6059L29.5627 19.966C29.6318 19.7551 29.8158 19.6484 29.9998 19.6484C30.1837 19.6484 30.3677 19.7551 30.4369 19.966L31.6193 23.6059C31.7962 24.1508 32.3037 24.5187 32.8755 24.5187H36.7029C37.1482 24.5187 37.3334 25.0883 36.9736 25.3508Z" fill="#BBD3F8"/>
<path d="M36.9736 25.3508L33.8775 27.5996C33.4146 27.9371 33.2201 28.5324 33.397 29.0773L34.5794 32.7172C34.7177 33.1402 34.2326 33.493 33.8728 33.2316L30.7767 30.9816C30.5459 30.8129 30.2728 30.7297 29.9998 30.7297V19.6484C30.1837 19.6484 30.3677 19.7551 30.4369 19.966L31.6193 23.6059C31.7962 24.1508 32.3037 24.5187 32.8755 24.5187H36.7029C37.1482 24.5187 37.3334 25.0883 36.9736 25.3508Z" fill="white"/>
</svg>
