<svg width="24" height="24" viewBox="0 0 24 24" fill="none" xmlns="http://www.w3.org/2000/svg">
<path fill-rule="evenodd" clip-rule="evenodd" d="M10.4276 3.31591C10.4274 3.31597 10.4278 3.31584 10.4276 3.31591L4.85333 5.59763C4.69226 5.66248 4.49098 5.82123 4.32601 6.06663C4.16086 6.31229 4.08984 6.5589 4.08984 6.72997V11.12C4.08984 15.5436 7.32301 19.7403 11.7541 20.9655C11.9112 21.0081 12.0885 21.0081 12.2456 20.9655C16.6767 19.7403 19.9099 15.5436 19.9099 11.12L19.9099 11.1177L19.9199 6.72997C19.9199 6.72963 19.9199 6.72928 19.9199 6.72893C19.9196 6.56147 19.8485 6.31607 19.6812 6.06854C19.5138 5.82067 19.3106 5.66052 19.1522 5.59591L13.5821 3.31591C13.5819 3.31583 13.5823 3.31599 13.5821 3.31591C12.5745 2.905 11.4351 2.90498 10.4276 3.31591ZM9.67207 1.46411C11.1642 0.855307 12.8455 0.855307 14.3376 1.46411L14.3387 1.46454L19.9075 3.74404C19.9078 3.74416 19.9072 3.74392 19.9075 3.74404C20.5087 3.98952 21.0011 4.44952 21.3385 4.94891C21.6759 5.44836 21.9199 6.07746 21.9199 6.72997L21.9199 6.73225L21.9099 11.12C21.9099 11.1205 21.9099 11.121 21.9099 11.1215C21.9091 16.4766 18.0435 21.4386 12.7762 22.8939L12.773 22.8947C12.2707 23.0317 11.729 23.0317 11.2267 22.8947L11.2235 22.8939C5.95568 21.4384 2.08984 16.4757 2.08984 11.12V6.72997C2.08984 6.08105 2.32883 5.45266 2.6662 4.95082C3.00318 4.44954 3.49585 3.98899 4.1034 3.74354L9.67207 1.46411ZM11.9998 9.5C11.4476 9.5 10.9998 9.94772 10.9998 10.5C10.9998 11.0523 11.4476 11.5 11.9998 11.5C12.5521 11.5 12.9998 11.0523 12.9998 10.5C12.9998 9.94772 12.5521 9.5 11.9998 9.5ZM8.99985 10.5C8.99985 8.84315 10.343 7.5 11.9998 7.5C13.6567 7.5 14.9998 8.84315 14.9998 10.5C14.9998 11.8062 14.165 12.9175 12.9998 13.3293V15.5C12.9998 16.0523 12.5521 16.5 11.9998 16.5C11.4476 16.5 10.9998 16.0523 10.9998 15.5V13.3293C9.83466 12.9175 8.99985 11.8062 8.99985 10.5Z" fill="#707070"/>
</svg>
