<svg width="24" height="24" viewBox="0 0 24 24" fill="none" xmlns="http://www.w3.org/2000/svg">
<path fill-rule="evenodd" clip-rule="evenodd" d="M3.24664 3.23663C4.53207 1.95121 6.4261 1.48999 8.76 1.48999H8.89C11.0066 1.48999 12.7582 1.8685 14.0276 2.89846C15.3245 3.95083 15.9285 5.52491 16.0963 7.4742C16.1437 8.02444 15.736 8.50892 15.1858 8.5563C14.6355 8.60369 14.1511 8.19603 14.1037 7.64578C13.9615 5.99507 13.4855 5.03415 12.7674 4.45152C12.0218 3.84648 10.8234 3.48999 8.89 3.48999H8.76C6.6239 3.48999 5.38793 3.92377 4.66086 4.65085C3.93378 5.37792 3.5 6.61389 3.5 8.74999V15.27C3.5 17.4061 3.93378 18.6421 4.66086 19.3691C5.38793 20.0962 6.6239 20.53 8.76 20.53H8.89C10.8087 20.53 12.003 20.1784 12.7491 19.5816C13.4662 19.0079 13.9435 18.0646 14.0943 16.4472C14.1456 15.8973 14.6329 15.493 15.1828 15.5443C15.7327 15.5956 16.1369 16.0829 16.0857 16.6328C15.9065 18.5554 15.2938 20.107 13.9984 21.1434C12.732 22.1565 10.9913 22.53 8.89 22.53H8.76C6.4261 22.53 4.53207 22.0688 3.24664 20.7833C1.96122 19.4979 1.5 17.6039 1.5 15.27V8.74999C1.5 6.41609 1.96122 4.52206 3.24664 3.23663ZM17.4433 7.94289C17.8338 7.55237 18.467 7.55237 18.8575 7.94289L22.2075 11.2929C22.598 11.6834 22.598 12.3166 22.2075 12.7071L18.8575 16.0571C18.467 16.4476 17.8338 16.4476 17.4433 16.0571C17.0528 15.6666 17.0528 15.0334 17.4433 14.6429L19.0862 13H9.00039C8.44811 13 8.00039 12.5523 8.00039 12C8.00039 11.4477 8.44811 11 9.00039 11H19.0862L17.4433 9.35711C17.0528 8.96658 17.0528 8.33342 17.4433 7.94289Z" fill="#707070"/>
</svg>
