<svg width="24" height="24" viewBox="0 0 24 24" fill="none" xmlns="http://www.w3.org/2000/svg">
<path fill-rule="evenodd" clip-rule="evenodd" d="M4.36005 8.66C4.36005 4.42771 7.78776 1 12.02 1C16.2329 1 19.6785 4.44765 19.69 8.65727L19.6901 8.66L19.6901 10.76C19.6901 10.9768 19.739 11.3085 19.838 11.6687C19.9372 12.0293 20.0644 12.338 20.1762 12.5233L20.1779 12.5261L21.4479 14.6461C22.5041 16.4113 21.6664 18.7053 19.7063 19.3587C18.5178 19.754 17.3056 20.0553 16.0818 20.2621C15.4847 21.9406 13.8773 23.15 12 23.15C10.8102 23.15 9.71984 22.654 8.94294 21.8771C8.49302 21.4272 8.13731 20.8721 7.91759 20.2535C6.7111 20.047 5.51652 19.7488 4.34442 19.3589C3.36294 19.0317 2.62146 18.3413 2.28951 17.4428C1.95772 16.5447 2.07116 15.538 2.60082 14.6484L2.6022 14.6461L3.8722 12.5261L3.87386 12.5233C3.98643 12.3368 4.11353 12.0298 4.21228 11.6717C4.31087 11.3141 4.36005 10.9824 4.36005 10.76V8.66ZM10.4509 20.5516C10.8652 20.9226 11.4152 21.15 12 21.15C12.5919 21.15 13.1354 20.9242 13.5483 20.5548C12.5169 20.6195 11.4822 20.6184 10.4509 20.5516ZM12.02 3C8.89233 3 6.36005 5.53228 6.36005 8.66V10.76C6.36005 11.2176 6.26923 11.7359 6.14032 12.2033C6.01174 12.6696 5.8242 13.1618 5.58723 13.555C5.5869 13.5556 5.58657 13.5561 5.58624 13.5567L4.31927 15.6716C4.31907 15.6719 4.31887 15.6723 4.31867 15.6726C4.06893 16.0926 4.06246 16.4706 4.16558 16.7497C4.26863 17.0287 4.51775 17.3085 4.97628 17.4613C9.55101 18.9829 14.4991 18.9829 19.0738 17.4613C19.8135 17.2147 20.1356 16.3486 19.7322 15.6739L18.4639 13.5567C18.4635 13.5561 18.4632 13.5556 18.4629 13.555C18.2252 13.1606 18.0377 12.665 17.9096 12.1988C17.7811 11.7315 17.69 11.2132 17.69 10.76V8.66139C17.6808 5.55162 15.1268 3 12.02 3ZM12 5.44C12.5523 5.44 13 5.88772 13 6.44V9.77C13 10.3223 12.5523 10.77 12 10.77C11.4478 10.77 11 10.3223 11 9.77V6.44C11 5.88772 11.4478 5.44 12 5.44Z" fill="#707070"/>
</svg>
