<svg width="24" height="24" viewBox="0 0 24 24" fill="none" xmlns="http://www.w3.org/2000/svg">
<path fill-rule="evenodd" clip-rule="evenodd" d="M3.00437 7.50494H20.9956C20.9611 6.02874 20.726 5.40974 20.4076 5.09545C20.0578 4.75022 19.3385 4.50494 17.55 4.50494H6.44C4.65701 4.50494 3.94045 4.75011 3.59184 5.09479C3.27386 5.4092 3.03885 6.02873 3.00437 7.50494ZM23 7.89494C23 6.14513 22.8022 4.64877 21.8124 3.67194C20.8272 2.69967 19.3215 2.50494 17.55 2.50494H6.44C4.67299 2.50494 3.16955 2.69978 2.18566 3.6726C1.19782 4.64931 1 6.14504 1 7.89494V16.1149C1 17.8644 1.19764 19.361 2.18633 20.3367C3.17112 21.3086 4.67517 21.4998 6.44145 21.4949H17.56C19.327 21.4949 20.8304 21.3001 21.8143 20.3273C22.8022 19.3506 23 17.8548 23 16.1049V7.89494ZM21 9.50494V16.1049C21 17.865 20.7528 18.5643 20.4082 18.9051C20.0596 19.2498 19.343 19.4949 17.56 19.4949L6.44 19.4949L6.43718 19.4949C4.65405 19.5 3.93863 19.2561 3.59117 18.9132C3.24736 18.5739 3 17.8755 3 16.1149V9.50494H21ZM5 16.5049C5 15.9527 5.44772 15.5049 6 15.5049H8C8.55228 15.5049 9 15.9527 9 16.5049C9 17.0572 8.55228 17.5049 8 17.5049H6C5.44772 17.5049 5 17.0572 5 16.5049ZM9.5 16.5049C9.5 15.9527 9.94772 15.5049 10.5 15.5049H14.5C15.0523 15.5049 15.5 15.9527 15.5 16.5049C15.5 17.0572 15.0523 17.5049 14.5 17.5049H10.5C9.94772 17.5049 9.5 17.0572 9.5 16.5049Z" fill="#707070"/>
</svg>
