<svg width="24" height="24" viewBox="0 0 24 24" fill="none" xmlns="http://www.w3.org/2000/svg">
<rect width="24" height="24" fill="white"/>
<path fill-rule="evenodd" clip-rule="evenodd" d="M4.19389 6.06076L11.7673 3.19927L12.1344 3.06056M11.4258 1.1903C13.3229 0.471419 15.35 1.87894 15.35 3.9055V6.70547H17.24C19.8623 6.70547 22 8.8432 22 11.4655V12.1529C22.6289 12.4944 23.0588 13.1553 23.0588 13.9256V15.9857C23.0588 16.756 22.6289 17.417 22 17.7584V18.1955C22 20.8177 19.8623 22.9555 17.24 22.9555H5.76C3.13771 22.9555 1 20.8177 1 18.1955V7.79552C1 6.19176 1.98538 4.75803 3.48611 4.19019L11.4258 1.1903ZM3 11.4655V18.1955C3 19.7132 4.24229 20.9555 5.76 20.9555H17.24C18.7577 20.9555 20 19.7132 20 18.1955V18.0056H19.0988C17.5794 18.0056 16.0853 16.8947 15.9428 15.2246C15.8551 14.285 16.2128 13.4077 16.8312 12.7989C17.2816 12.3403 17.8659 12.0408 18.5068 11.9417C18.6616 11.9178 18.8197 11.9055 18.98 11.9055H20V11.4655C20 9.94777 18.7577 8.70547 17.24 8.70547H14.3558L14.35 8.70549L14.3442 8.70547H5.76C4.24229 8.70547 3 9.94777 3 11.4655ZM13.35 6.70547V3.95984C13.35 3.28796 12.6133 2.95593 12.2031 3.06056C12.1743 3.06056 12.0178 3.11118 11.7673 3.19927C10.0894 3.78936 4.19389 6.06076 4.19389 6.06076C3.26933 6.51063 3 6.99748 3 7.50653M21.0306 16.0056C21.0365 16.0048 21.0406 16.0034 21.0435 16.0021C21.0481 16.0001 21.0518 15.9974 21.0545 15.9946C21.0561 15.993 21.0577 15.9906 21.0577 15.9906L21.0584 15.9892L21.0588 15.9857V13.9256L21.0586 13.9227C21.0586 13.9227 21.0572 13.9195 21.0545 13.9167C21.0518 13.9139 21.0481 13.9112 21.0435 13.9092C21.0406 13.9079 21.0365 13.9065 21.0306 13.9057H18.9788C18.9221 13.9057 18.8669 13.9099 18.8134 13.9181C18.5924 13.9522 18.4016 14.054 18.2565 14.2031C18.2506 14.2091 18.2446 14.2151 18.2385 14.221C18.0238 14.4307 17.9056 14.727 17.9355 15.0407L17.9366 15.0524C17.9772 15.5391 18.4612 16.0055 19.1 16.0055H21C21.0065 16.0055 21.0129 16.0055 21.0193 16.0056H21.0306Z" fill="#707070"/>
<path fill-rule="evenodd" clip-rule="evenodd" d="M15.35 3.9055C15.35 1.87894 13.3229 0.471419 11.4258 1.1903L3.48611 4.19019C1.98538 4.75803 1 6.19176 1 7.79552V18.1955C1 20.8177 3.13771 22.9555 5.76 22.9555H17.24C19.8623 22.9555 22 20.8177 22 18.1955V17.7584C22.6289 17.417 23.0588 16.756 23.0588 15.9857V13.9256C23.0588 13.1553 22.6289 12.4944 22 12.1529V11.4655C22 8.8432 19.8623 6.70547 17.24 6.70547H15.35V3.9055ZM3 18.1955C3 19.7132 4.24229 20.9555 5.76 20.9555H17.24C18.7577 20.9555 20 19.7132 20 18.1955V18.0056H19.0988C17.5794 18.0056 16.0853 16.8947 15.9428 15.2246C15.8551 14.285 16.2128 13.4077 16.8312 12.7989C17.2816 12.3403 17.8659 12.0408 18.5068 11.9417C18.6616 11.9178 18.8197 11.9055 18.98 11.9055H20V11.4655C20 9.94777 18.7577 8.70547 17.24 8.70547H14.3558L14.35 8.70549L14.3442 8.70547H5.76C4.24229 8.70547 3 9.94777 3 11.4655V18.1955ZM21.0306 16.0056C21.0365 16.0048 21.0406 16.0034 21.0435 16.0021C21.0481 16.0001 21.0518 15.9974 21.0545 15.9946C21.0561 15.993 21.0577 15.9906 21.0577 15.9906L21.0584 15.9892L21.0588 15.9857V13.9256L21.0586 13.9227C21.0586 13.9227 21.0572 13.9195 21.0545 13.9167C21.0518 13.9139 21.0481 13.9112 21.0435 13.9092C21.0406 13.9079 21.0365 13.9065 21.0306 13.9057H18.9788C18.9221 13.9057 18.8669 13.9099 18.8134 13.9181C18.5924 13.9522 18.4016 14.054 18.2565 14.2031C18.2506 14.2091 18.2446 14.2151 18.2385 14.221C18.0238 14.4307 17.9056 14.727 17.9355 15.0407L17.9366 15.0524C17.9772 15.5391 18.4612 16.0055 19.1 16.0055H21L21.0193 16.0056H21.0306ZM11.7673 3.19927L12.1344 3.06056H12.2031C12.6133 2.95593 13.35 3.28796 13.35 3.95984V6.70547H5.06992C4.19389 6.70547 3.40464 6.98952 3 7.50653C3 6.99748 3.26933 6.51063 4.19389 6.06076C4.19389 6.06076 10.0894 3.78936 11.7673 3.19927Z" fill="#707070"/>
<path fill-rule="evenodd" clip-rule="evenodd" d="M14.7262 15.3543C14.8685 15.6842 14.8009 16.0671 14.5543 16.3284L12.4883 18.5177C12.1472 18.8792 11.5776 18.8957 11.2161 18.5546C10.8546 18.2134 10.8381 17.6438 11.1792 17.2823L11.813 16.6107H6.89978C6.40273 16.6107 5.99978 16.2078 5.99978 15.7107C5.99978 15.2136 6.40273 14.8107 6.89978 14.8107H13.8998C14.2591 14.8107 14.5839 15.0244 14.7262 15.3543ZM14.7998 13.0893C14.7998 13.5864 14.3968 13.9893 13.8998 13.9893H6.89978C6.54051 13.9893 6.21565 13.7756 6.07337 13.4457C5.93109 13.1158 5.99864 12.7329 6.24522 12.4716L8.31124 10.2823C8.65239 9.9208 9.222 9.9043 9.5835 10.2454C9.94501 10.5866 9.96151 11.1562 9.62036 11.5177L8.98658 12.1893L13.8998 12.1893C14.3968 12.1893 14.7998 12.5922 14.7998 13.0893Z" fill="#707070"/>
</svg>
