<svg width="24" height="24" viewBox="0 0 24 24" fill="none" xmlns="http://www.w3.org/2000/svg">
<path fill-rule="evenodd" clip-rule="evenodd" d="M4.92029 4.05545C4.33682 4.68381 4 5.65329 4 7V17C4 18.3467 4.33682 19.3162 4.92029 19.9445C5.49131 20.5595 6.4406 21 8 21H16C17.5594 21 18.5087 20.5595 19.0797 19.9445C19.6632 19.3162 20 18.3467 20 17V7C20 5.65329 19.6632 4.68381 19.0797 4.05545C18.5725 3.5092 17.7667 3.10058 16.5 3.01612V9.85999C16.5 11.1936 14.9317 11.8258 13.9885 10.971L13.9819 10.9651L12 9.13684L10.0116 10.971C9.0683 11.8258 7.5 11.1936 7.5 9.85999V3.01612C6.23327 3.10058 5.42753 3.5092 4.92029 4.05545ZM9.5 3V8.72196L10.9784 7.35829C11.5523 6.8206 12.4477 6.82061 13.0217 7.35831L14.5 8.72196V3H9.5ZM16 1C17.9406 1 19.4913 1.55949 20.5453 2.69455C21.5868 3.81619 22 5.34671 22 7V17C22 18.6533 21.5868 20.1838 20.5453 21.3055C19.4913 22.4405 17.9406 23 16 23H8C6.0594 23 4.50869 22.4405 3.45471 21.3055C2.41318 20.1838 2 18.6533 2 17V7C2 5.34671 2.41318 3.81619 3.45471 2.69455C4.50869 1.55949 6.0594 1 8 1H16ZM12.25 14C12.25 13.4477 12.6977 13 13.25 13H17.5C18.0523 13 18.5 13.4477 18.5 14C18.5 14.5523 18.0523 15 17.5 15H13.25C12.6977 15 12.25 14.5523 12.25 14ZM8 18C8 17.4477 8.44772 17 9 17H17.5C18.0523 17 18.5 17.4477 18.5 18C18.5 18.5523 18.0523 19 17.5 19H9C8.44772 19 8 18.5523 8 18Z" fill="#707070"/>
</svg>
