<svg width="24" height="24" viewBox="0 0 24 24" fill="none" xmlns="http://www.w3.org/2000/svg">
<path d="M12.5238 10C12.5238 9.44772 12.9928 9 13.5714 9H17.2381C17.8167 9 18.2857 9.44772 18.2857 10C18.2857 10.5523 17.8167 11 17.2381 11H13.5714C12.9928 11 12.5238 10.5523 12.5238 10Z" fill="#707070"/>
<path d="M6.76191 14.5C6.18332 14.5 5.71429 14.9477 5.71429 15.5C5.71429 16.0523 6.18332 16.5 6.76191 16.5H17.2381C17.8167 16.5 18.2857 16.0523 18.2857 15.5C18.2857 14.9477 17.8167 14.5 17.2381 14.5H6.76191Z" fill="#707070"/>
<path d="M8.95574 10C8.95574 9.44772 9.42478 9 10.0034 9H10.0128C10.5914 9 11.0604 9.44772 11.0604 10C11.0604 10.5523 10.5914 11 10.0128 11H10.0034C9.42478 11 8.95574 10.5523 8.95574 10Z" fill="#707070"/>
<path d="M6.8605 9C6.28192 9 5.81288 9.44772 5.81288 10C5.81288 10.5523 6.28192 11 6.8605 11H6.86991C7.4485 11 7.91753 10.5523 7.91753 10C7.91753 9.44772 7.4485 9 6.86991 9H6.8605Z" fill="#707070"/>
<path fill-rule="evenodd" clip-rule="evenodd" d="M5.41532 3.09778C5.99804 3.01957 6.6271 3 7.28571 3H16.7143C17.3729 3 18.002 3.01957 18.5847 3.09778C20.0936 3.25893 21.3356 3.71235 22.111 4.83626C22.8271 5.87427 23 7.30012 23 9V15C23 16.6999 22.8271 18.1257 22.111 19.1637C21.3356 20.2876 20.0937 20.7411 18.5847 20.9022C18.002 20.9804 17.3729 21 16.7143 21H7.28571C6.62708 21 5.998 20.9804 5.41526 20.9022C3.90633 20.7411 2.66436 20.2876 1.88899 19.1637C1.17287 18.1257 1 16.6999 1 15V9C1 7.30012 1.17287 5.87427 1.88899 4.83626C2.66437 3.71235 3.90636 3.25893 5.41532 3.09778ZM7.28571 5C6.65162 5 6.13406 5.02005 5.69482 5.07995C5.68373 5.08146 5.67262 5.0828 5.66149 5.08398C4.42266 5.21437 3.92138 5.52675 3.63887 5.93624C3.29427 6.43573 3.09524 7.31988 3.09524 9V15C3.09524 16.6801 3.29427 17.5643 3.63887 18.0638C3.92138 18.4733 4.42266 18.7856 5.66149 18.916C5.67262 18.9172 5.68373 18.9185 5.69482 18.9201C6.13406 18.9799 6.65162 19 7.28571 19H16.7143C17.3484 19 17.8659 18.9799 18.3052 18.9201L18.3215 18.9179L18.3385 18.916C19.5773 18.7856 20.0786 18.4733 20.3611 18.0638C20.7057 17.5643 20.9048 16.6801 20.9048 15V9C20.9048 7.31988 20.7057 6.43573 20.3611 5.93624C20.0786 5.52675 19.5773 5.21437 18.3385 5.08398C18.3274 5.0828 18.3163 5.08146 18.3052 5.07995C17.8659 5.02005 17.3484 5 16.7143 5H7.28571Z" fill="#707070"/>
</svg>
