<svg width="24" height="24" viewBox="0 0 24 24" fill="none" xmlns="http://www.w3.org/2000/svg">
<path fill-rule="evenodd" clip-rule="evenodd" d="M16.5729 2.3029C16.9634 1.91238 17.5966 1.91238 17.9871 2.3029L21.7071 6.02287C22.0976 6.4134 22.0976 7.04656 21.7071 7.43708L17.9871 11.1571C17.5966 11.5476 16.9635 11.5476 16.5729 11.1571C16.1824 10.7666 16.1824 10.1334 16.5729 9.74291L18.5858 7.72998H3C2.44772 7.72998 2 7.28227 2 6.72998C2 6.1777 2.44772 5.72998 3 5.72998H18.5858L16.5729 3.71712C16.1824 3.32659 16.1824 2.69343 16.5729 2.3029ZM7.42707 12.8429C7.8176 13.2334 7.8176 13.8666 7.42708 14.2571L5.41419 16.27H21C21.5523 16.27 22 16.7177 22 17.27C22 17.8223 21.5523 18.27 21 18.27H5.41421L7.42708 20.2829C7.8176 20.6734 7.8176 21.3066 7.42708 21.6971C7.03655 22.0876 6.40339 22.0876 6.01286 21.6971L2.29289 17.9771C1.90237 17.5866 1.90237 16.9534 2.29289 16.5629L6.01286 12.8429C6.40338 12.4524 7.03654 12.4524 7.42707 12.8429Z" fill="#707070"/>
</svg>
