<svg width="24" height="24" viewBox="0 0 24 24" fill="none" xmlns="http://www.w3.org/2000/svg">
<path fill-rule="evenodd" clip-rule="evenodd" d="M3.00437 7.5C3.03885 6.02379 3.27386 5.40425 3.59184 5.08985C3.94045 4.74517 4.65701 4.5 6.44 4.5H13.5C14.0523 4.5 14.5 4.05228 14.5 3.5C14.5 2.94772 14.0523 2.5 13.5 2.5H6.44C4.67299 2.5 3.16955 2.69483 2.18566 3.66765C1.19782 4.64437 1 6.1401 1 7.89V16.11C1 17.8599 1.19782 19.3556 2.18566 20.3323C3.16955 21.3052 4.67299 21.5 6.44 21.5H17.56C19.327 21.5 20.8304 21.3052 21.8143 20.3323C22.8022 19.3556 23 17.8599 23 16.11V12.03C23 11.4777 22.5523 11.03 22 11.03C21.4477 11.03 21 11.4777 21 12.03V16.11C21 17.8701 20.7528 18.5694 20.4082 18.9102C20.0596 19.2548 19.343 19.5 17.56 19.5H6.44C4.65701 19.5 3.94045 19.2548 3.59184 18.9102C3.24718 18.5694 3 17.8701 3 16.11V9.5H13.5C14.0523 9.5 14.5 9.05228 14.5 8.5C14.5 7.94772 14.0523 7.5 13.5 7.5H3.00437ZM19.25 2.5C19.8023 2.5 20.25 2.94772 20.25 3.5V5.25H22C22.5523 5.25 23 5.69772 23 6.25C23 6.80228 22.5523 7.25 22 7.25H20.25V9C20.25 9.55228 19.8023 10 19.25 10C18.6977 10 18.25 9.55228 18.25 9V7.25H16.5C15.9477 7.25 15.5 6.80228 15.5 6.25C15.5 5.69772 15.9477 5.25 16.5 5.25H18.25V3.5C18.25 2.94772 18.6977 2.5 19.25 2.5ZM5 16.5C5 15.9477 5.44772 15.5 6 15.5H8C8.55228 15.5 9 15.9477 9 16.5C9 17.0523 8.55228 17.5 8 17.5H6C5.44772 17.5 5 17.0523 5 16.5ZM9.5 16.5C9.5 15.9477 9.94772 15.5 10.5 15.5H14.5C15.0523 15.5 15.5 15.9477 15.5 16.5C15.5 17.0523 15.0523 17.5 14.5 17.5H10.5C9.94772 17.5 9.5 17.0523 9.5 16.5Z" fill="#146EF5"/>
</svg>
