<svg width="3369" height="512" viewBox="0 0 3369 512" fill="none" xmlns="http://www.w3.org/2000/svg">
<path d="M1959 373.836C1959 417.65 1923.32 453.328 1879.51 453.328H1447V138.491C1447 94.6772 1482.68 59 1526.49 59H1959V373.836Z" fill="white"/>
<path d="M1847.27 85.6016C1815.98 85.6016 1790.32 110.951 1790.32 142.56V201.709H1870.75C1872.62 201.709 1874.81 201.709 1876.38 202.022C1894.53 202.961 1907.99 212.35 1907.99 228.624C1907.99 241.455 1898.91 252.408 1882.01 254.599V255.225C1900.48 256.477 1914.56 266.804 1914.56 282.765C1914.56 299.978 1898.91 311.245 1878.26 311.245H1790V427.039H1873.56C1904.86 427.039 1930.52 401.69 1930.52 370.081V85.6016H1847.27Z" fill="url(#paint0_linear_8105_58)"/>
<path d="M1818.17 293.093H1851.03C1851.5 293.093 1852.28 293.014 1853.06 292.936C1853.85 292.858 1854.63 292.78 1855.1 292.78C1861.36 291.528 1866.68 285.895 1866.68 278.071C1866.68 270.56 1861.36 264.926 1855.1 263.362C1854.16 263.049 1852.28 263.049 1851.03 263.049H1818.17V293.093Z" fill="url(#paint1_linear_8105_58)"/>
<path d="M1851.03 218.922C1857.29 219.861 1862.61 224.868 1862.61 232.379C1862.61 239.89 1857.29 244.897 1851.03 245.836C1850.72 246.149 1848.84 246.149 1847.9 246.149H1818.17V218.609H1847.9C1848.42 218.609 1849.12 218.704 1849.76 218.789C1850.28 218.858 1850.75 218.922 1851.03 218.922Z" fill="url(#paint2_linear_8105_58)"/>
<path d="M1532.44 85.6016C1501.14 85.6016 1475.48 110.951 1475.48 142.56V283.078C1491.44 290.902 1508.03 295.91 1524.61 295.91C1544.33 295.91 1554.97 284.017 1554.97 267.743V201.396H1603.79V267.43C1603.79 293.093 1587.83 314.061 1533.69 314.061C1500.83 314.061 1475.17 306.863 1475.17 306.863V426.726H1558.73C1590.02 426.726 1615.68 401.377 1615.68 369.768V85.6016H1532.44Z" fill="url(#paint3_linear_8105_58)"/>
<path d="M1689.85 85.6016C1658.56 85.6016 1632.9 110.951 1632.9 142.56V217.044C1647.29 204.839 1672.33 197.015 1712.7 198.893C1734.3 199.831 1757.45 205.778 1757.45 205.778V229.875C1745.87 223.929 1732.1 218.609 1714.27 217.357C1683.6 215.166 1665.13 230.188 1665.13 256.477C1665.13 283.078 1683.6 298.1 1714.27 295.597C1732.1 294.345 1745.87 288.712 1757.45 283.078V307.176C1757.45 307.176 1734.61 313.122 1712.7 314.061C1672.33 315.939 1647.29 308.115 1632.9 295.91V427.352H1716.46C1747.75 427.352 1773.41 402.003 1773.41 370.394V85.6016H1689.85Z" fill="url(#paint4_linear_8105_58)"/>
<path fill-rule="evenodd" clip-rule="evenodd" d="M2639 265.272H2612.37C2604.33 265.272 2598.49 267.191 2594.35 270.175V265.272H2554.96C2548.66 265.272 2541.27 266.829 2537.77 270.175V265.272H2467.42V270.175C2461.82 266.148 2452.38 265.272 2448.02 265.272H2401.62V270.175C2397.19 265.899 2387.34 265.272 2381.33 265.272H2329.4L2317.52 278.094L2306.39 265.272H2228.82V349.047H2304.93L2317.18 336.022L2328.71 349.047L2375.63 349.089V329.382H2380.24C2386.46 329.478 2393.81 329.228 2400.28 326.436V349.045H2438.98V327.211H2440.85C2443.23 327.211 2443.47 327.309 2443.47 329.682V349.043H2561.02C2568.49 349.043 2576.29 347.139 2580.61 343.683V349.043H2617.9C2625.66 349.043 2633.23 347.959 2639 345.182C2639 -113.177 2639 457.184 2639 265.272Z" fill="#006FCF"/>
<path fill-rule="evenodd" clip-rule="evenodd" d="M2151.59 245.717L2157.13 232.385H2169.55L2175.08 245.717H2223.45V235.524L2227.77 245.76H2252.89L2257.21 235.372V245.717H2377.44L2377.38 223.832H2379.71C2381.33 223.888 2381.81 224.038 2381.81 226.72V245.717H2443.99V240.622C2449.01 243.302 2456.81 245.717 2467.08 245.717H2493.24L2498.84 232.385H2511.25L2516.72 245.717H2567.14V233.053L2574.77 245.717H2615.17V162H2575.19V171.887L2569.59 162H2528.56V171.887L2523.42 162H2468.01C2458.73 162 2450.58 163.291 2443.99 166.888V162H2405.75V166.888C2401.56 163.18 2395.85 162 2389.5 162H2249.79L2240.42 183.623L2230.79 162H2186.79V171.887L2181.96 162H2144.43L2127 201.804V245.717H2151.59Z" fill="#006FCF"/>
<path fill-rule="evenodd" clip-rule="evenodd" d="M2380.88 317.028C2393.46 317.028 2405.94 313.585 2405.94 296.907C2405.94 280.279 2393.11 277.127 2381.69 277.127H2335.7L2317.4 296.807L2299.69 277.127H2241.81V337.166H2298.81L2317.23 317.291L2334.95 337.166H2362.92V317.028H2380.88ZM2362.92 304.835H2381.52C2387.05 304.835 2390.49 302.099 2390.49 296.907C2390.49 291.657 2386.88 289.545 2381.69 289.545H2362.92V304.835ZM2291.53 324.654H2256.15V312.709H2287.74V300.459H2256.15V289.544H2292.23L2307.97 307.04L2291.53 324.654ZM2348.59 331.706L2326.49 307.25L2348.59 283.571V331.706Z" fill="white"/>
<path fill-rule="evenodd" clip-rule="evenodd" d="M2467.48 314.305C2466.25 312.556 2463.64 310.444 2460.43 309.265C2464.22 307.766 2470.63 302.876 2470.63 293.293C2470.63 286.444 2467.78 282.696 2463.23 279.96C2458.51 277.447 2453.2 277.127 2445.92 277.127H2412.69V337.166H2427.15V315.238H2442.53C2447.78 315.238 2450.99 315.752 2453.09 317.903C2455.5 320.416 2455.46 325 2455.43 328.525C2455.42 328.916 2455.42 329.294 2455.42 329.655V337.166H2469.87V325.264C2469.81 319.972 2469.51 317.237 2467.48 314.305ZM2451.74 301.793C2449.82 302.932 2447.44 303.03 2444.64 303.03H2427.15V289.545H2444.87C2447.44 289.545 2450 289.6 2451.74 290.63C2453.61 291.602 2454.72 293.462 2454.72 296.031C2454.72 298.6 2453.61 300.669 2451.74 301.793Z" fill="white"/>
<path d="M2581.6 305.501C2584.4 308.392 2585.9 312.042 2585.9 318.221C2585.9 331.137 2577.81 337.166 2563.29 337.166H2535.26V324.292H2563.18C2565.91 324.292 2567.85 323.932 2569.06 322.806C2570.05 321.877 2570.76 320.528 2570.76 318.89C2570.76 317.141 2569.99 315.752 2569 314.919C2567.9 314.003 2566.38 313.587 2563.88 313.587C2563 313.557 2562.1 313.532 2561.2 313.508C2548.28 313.158 2533.57 312.759 2533.57 295.004C2533.57 286.295 2539.05 277.129 2554.14 277.129H2582.99V289.907H2556.59C2553.98 289.907 2552.27 290.005 2550.83 290.992C2549.25 291.964 2548.67 293.407 2548.67 295.312C2548.67 297.576 2550 299.117 2551.81 299.783C2553.33 300.31 2554.96 300.464 2557.41 300.464L2565.16 300.672C2572.97 300.862 2578.34 302.209 2581.6 305.501Z" fill="white"/>
<path d="M2639 289.903H2612.77C2610.15 289.903 2608.41 290.001 2606.95 290.988C2605.43 291.96 2604.85 293.403 2604.85 295.308C2604.85 297.573 2606.13 299.113 2607.99 299.78C2609.51 300.306 2611.14 300.46 2613.54 300.46L2621.34 300.669C2629.21 300.862 2634.46 302.211 2637.67 305.501C2638.16 305.887 2638.48 306.314 2638.81 306.747L2638.9 306.864L2638.96 306.938L2639 306.987V329.486C2635.5 334.583 2628.69 337.167 2619.47 337.167H2591.68V324.292H2619.36C2622.1 324.292 2624.03 323.932 2625.18 322.806C2626.18 321.877 2626.88 320.528 2626.88 318.89C2626.88 317.141 2626.18 315.752 2625.13 314.919C2624.08 314.003 2622.56 313.587 2620.06 313.587C2619.17 313.557 2618.27 313.532 2617.37 313.508C2604.41 313.158 2589.69 312.76 2589.69 295.004C2589.69 286.295 2595.23 277.129 2610.33 277.129H2639L2639 289.903Z" fill="white"/>
<path d="M2478.61 277.127H2526.64V289.543H2492.94V300.459H2525.82V312.708H2492.94V324.654L2526.64 324.708V337.166H2478.61V277.127Z" fill="white"/>
<path fill-rule="evenodd" clip-rule="evenodd" d="M2173.15 207.937L2163.3 184.008L2153.51 207.937H2173.15ZM2390.14 198.409C2388.16 199.606 2385.82 199.646 2383.02 199.646H2365.54V186.314H2383.26C2385.77 186.314 2388.38 186.426 2390.08 187.396C2391.95 188.271 2393.11 190.132 2393.11 192.703C2393.11 195.326 2392.01 197.437 2390.14 198.409ZM2514.86 207.937L2504.9 184.008L2494.99 207.937H2514.86ZM2282.38 233.838H2267.63L2267.57 186.827L2246.7 233.838H2234.07L2213.15 186.786V233.838H2183.88L2178.35 220.45H2148.38L2142.8 233.838H2127.17L2152.94 173.813H2174.32L2198.8 230.645V173.813H2222.28L2241.12 214.533L2258.42 173.813H2282.38V233.838H2282.38ZM2341.18 233.838H2293.1V173.813H2341.18V186.313H2307.49V197.133H2340.37V209.437H2307.49V221.424H2341.18V233.838ZM2408.96 189.979C2408.96 199.55 2402.55 204.494 2398.82 205.979C2401.97 207.174 2404.66 209.285 2405.94 211.034C2407.97 214.019 2408.32 216.686 2408.32 222.047V233.838H2393.8L2393.75 226.269C2393.75 222.657 2394.1 217.463 2391.48 214.575C2389.38 212.464 2386.17 212.006 2380.99 212.006H2365.54V233.838H2351.15V173.813H2384.25C2391.61 173.813 2397.02 174.007 2401.68 176.689C2406.23 179.37 2408.96 183.284 2408.96 189.979ZM2431.99 233.838H2417.31V173.813H2431.99V233.838ZM2602.34 233.838H2581.95L2554.67 188.786V233.838H2525.36L2519.76 220.45H2489.87L2484.43 233.838H2467.59C2460.6 233.838 2451.74 232.296 2446.73 227.199C2441.67 222.103 2439.04 215.199 2439.04 204.284C2439.04 195.382 2440.61 187.244 2446.8 180.813C2451.45 176.022 2458.73 173.813 2468.65 173.813H2482.58V186.675H2468.94C2463.69 186.675 2460.73 187.454 2457.87 190.231C2455.42 192.758 2453.73 197.536 2453.73 203.828C2453.73 210.259 2455.02 214.895 2457.69 217.924C2459.91 220.3 2463.93 221.02 2467.72 221.02H2474.18L2494.47 173.815H2516.03L2540.39 230.59V173.815H2562.3L2587.6 215.619V173.815H2602.34V233.838Z" fill="white"/>
<path fill-rule="evenodd" clip-rule="evenodd" d="M3343.74 91.0962L3217.66 91.0635C3217.64 91.0635 3217.63 91.0635 3217.63 91.0635C3217.53 91.0635 3217.43 91.081 3217.34 91.081C3200.02 91.6159 3178.44 105.62 3174.51 122.889L3114.89 388.846C3110.96 406.276 3121.65 420.458 3138.84 420.719H3271.3C3288.23 419.875 3304.69 406.032 3308.55 388.96L3368.18 123C3372.17 105.393 3361.22 91.0962 3343.74 91.0962Z" fill="#01798A"/>
<path fill-rule="evenodd" clip-rule="evenodd" d="M3114.89 388.846L3174.51 122.888C3178.44 105.62 3200.02 91.6154 3217.34 91.0805L3167.21 91.0478L3076.89 91.0303C3059.52 91.3884 3037.66 105.491 3033.74 122.888L2974.09 388.846C2970.15 406.275 2980.85 420.458 2998.04 420.719H3138.84C3121.65 420.458 3110.96 406.275 3114.89 388.846Z" fill="#024381"/>
<path fill-rule="evenodd" clip-rule="evenodd" d="M2974.09 388.846L3033.74 122.888C3037.66 105.491 3059.52 91.3886 3076.89 91.0306L2961.18 91C2943.71 91 2921.32 105.264 2917.33 122.888L2857.68 388.846C2857.32 390.469 2857.12 392.06 2857 393.616V398.55C2858.17 411.255 2867.79 420.508 2881.63 420.719H2998.04C2980.85 420.458 2970.15 406.275 2974.09 388.846Z" fill="#DD0228"/>
<path fill-rule="evenodd" clip-rule="evenodd" d="M3079.33 284.826H3081.51C3083.53 284.826 3084.88 284.145 3085.52 282.798L3091.21 274.214H3106.44L3103.27 279.86H3121.54L3119.22 288.51H3097.48C3094.97 292.308 3091.89 294.093 3088.19 293.881H3076.86L3079.33 284.826ZM3076.82 297.224H3116.85L3114.3 306.622H3098.2L3095.75 315.692H3111.41L3108.86 325.088H3093.19L3089.55 338.491C3088.65 340.732 3089.84 341.739 3093.09 341.51H3105.86L3103.49 350.242H3078.98C3074.33 350.242 3072.74 347.563 3074.2 342.193L3078.85 325.088H3068.84L3071.38 315.692H3081.4L3083.85 306.622H3074.28L3076.82 297.224ZM3140.71 274.149L3140.08 279.65C3140.08 279.65 3147.63 273.936 3154.49 273.936H3179.83L3170.14 309.296C3169.33 313.339 3165.89 315.349 3159.8 315.349H3131.08L3124.35 340.179C3123.97 341.51 3124.51 342.192 3125.96 342.192H3131.61L3129.54 349.899H3115.17C3109.65 349.899 3107.36 348.228 3108.27 344.87L3127.28 274.149H3140.71ZM3162.17 284.145H3139.55L3136.85 293.686C3136.85 293.686 3140.61 290.945 3146.91 290.847C3153.18 290.748 3160.35 290.847 3160.35 290.847L3162.17 284.145ZM3153.97 306.279C3155.65 306.508 3156.58 305.841 3156.69 304.267L3158.08 299.237H3135.43L3133.53 306.279H3153.97ZM3138.7 317.703H3151.75L3151.51 323.399H3154.99C3156.74 323.399 3157.61 322.832 3157.61 321.713L3158.64 318.028H3169.49L3168.04 323.399C3166.82 327.878 3163.57 330.215 3158.29 330.444H3151.33L3151.3 340.179C3151.17 341.738 3152.57 342.533 3155.45 342.533H3161.99L3159.88 350.242H3144.2C3139.81 350.452 3137.65 348.341 3137.7 343.864L3138.7 317.703Z" fill="white"/>
<path fill-rule="evenodd" clip-rule="evenodd" d="M2980.48 227.037C2978.71 235.785 2974.61 242.503 2968.24 247.274C2961.93 251.964 2953.79 254.316 2943.83 254.316C2934.45 254.316 2927.57 251.914 2923.19 247.095C2920.15 243.67 2918.63 239.321 2918.63 234.063C2918.63 231.889 2918.89 229.553 2919.41 227.037L2930.02 175.434H2946.06L2935.58 226.453C2935.26 227.865 2935.13 229.18 2935.15 230.365C2935.13 232.978 2935.78 235.119 2937.08 236.79C2938.98 239.274 2942.06 240.506 2946.35 240.506C2951.29 240.506 2955.35 239.29 2958.51 236.839C2961.66 234.405 2963.72 230.949 2964.65 226.453L2975.15 175.434H2991.11L2980.48 227.037Z" fill="white"/>
<path fill-rule="evenodd" clip-rule="evenodd" d="M3047.82 206.737H3060.38L3050.54 252.792H3038.01L3047.82 206.737ZM3051.77 189.958H3064.44L3062.08 201.137H3049.41L3051.77 189.958Z" fill="white"/>
<path fill-rule="evenodd" clip-rule="evenodd" d="M3071.49 249.285C3068.21 246.121 3066.55 241.853 3066.54 236.433C3066.54 235.508 3066.59 234.453 3066.71 233.3C3066.83 232.132 3066.99 230.996 3067.2 229.942C3068.69 222.461 3071.86 216.521 3076.75 212.139C3081.63 207.742 3087.51 205.535 3094.4 205.535C3100.04 205.535 3104.52 207.125 3107.8 210.306C3111.07 213.503 3112.71 217.819 3112.71 223.305C3112.71 224.245 3112.64 225.333 3112.52 226.501C3112.38 227.686 3112.2 228.822 3112 229.942C3110.54 237.309 3107.38 243.184 3102.49 247.485C3097.61 251.817 3091.74 253.974 3084.9 253.974C3079.23 253.974 3074.77 252.417 3071.49 249.285ZM3095.42 240.165C3097.64 237.747 3099.22 234.079 3100.19 229.196C3100.33 228.433 3100.46 227.637 3100.54 226.842C3100.62 226.063 3100.66 225.333 3100.66 224.668C3100.66 221.827 3099.94 219.621 3098.5 218.063C3097.07 216.488 3095.03 215.711 3092.4 215.711C3088.92 215.711 3086.09 216.942 3083.87 219.41C3081.63 221.877 3080.04 225.609 3079.04 230.575C3078.91 231.337 3078.79 232.101 3078.69 232.847C3078.61 233.609 3078.59 234.323 3078.6 234.972C3078.6 237.796 3079.32 239.971 3080.76 241.512C3082.19 243.054 3084.22 243.817 3086.88 243.817C3090.38 243.817 3093.21 242.6 3095.42 240.165Z" fill="white"/>
<path fill-rule="evenodd" clip-rule="evenodd" d="M3194.19 285.214L3197.22 274.471H3212.53L3211.86 278.414C3211.86 278.414 3219.69 274.471 3225.32 274.471C3230.96 274.471 3244.25 274.471 3244.25 274.471L3241.24 285.214H3238.27L3223.99 335.878H3226.96L3224.13 345.939H3221.15L3219.91 350.304H3205.09L3206.32 345.939H3177.08L3179.93 335.878H3182.86L3197.15 285.214H3194.19ZM3210.71 285.214L3206.81 298.926C3206.81 298.926 3213.48 296.347 3219.22 295.617C3220.49 290.829 3222.15 285.214 3222.15 285.214L3210.71 285.214ZM3205.01 305.353L3201.1 319.714C3201.1 319.714 3208.48 316.047 3213.55 315.738C3215.02 310.188 3216.48 305.353 3216.48 305.353L3205.01 305.353ZM3207.87 335.877L3210.8 325.459H3199.37L3196.43 335.877H3207.87ZM3244.9 273.807H3259.29L3259.9 279.16C3259.81 280.523 3260.61 281.174 3262.32 281.174H3264.86L3262.29 290.244H3251.71C3247.67 290.455 3245.59 288.898 3245.4 285.538L3244.9 273.807ZM3240.68 293.263H3287.3L3284.56 303.001H3269.72L3267.18 312.054H3282L3279.25 321.775H3262.74L3259 327.473H3267.08L3268.95 338.88C3269.17 340.016 3270.17 340.568 3271.88 340.568H3274.39L3271.75 349.962H3262.86C3258.26 350.191 3255.88 348.633 3255.68 345.274L3253.54 334.856L3246.19 345.939C3244.45 349.071 3241.77 350.532 3238.17 350.304H3224.6L3227.24 340.907H3231.47C3233.21 340.907 3234.66 340.129 3235.96 338.555L3247.47 321.775H3232.63L3235.38 312.054H3251.48L3254.04 303.001H3237.93L3240.68 293.263Z" fill="white"/>
<path fill-rule="evenodd" clip-rule="evenodd" d="M2995.25 206.72H3006.58L3005.28 213.373L3006.91 211.475C3010.58 207.515 3015.04 205.551 3020.3 205.551C3025.07 205.551 3028.5 206.948 3030.66 209.754C3032.79 212.562 3033.37 216.441 3032.36 221.423L3026.12 252.807H3014.48L3020.12 224.36C3020.7 221.423 3020.54 219.232 3019.64 217.819C3018.76 216.408 3017.07 215.711 3014.63 215.711C3011.63 215.711 3009.11 216.651 3007.06 218.518C3005 220.4 3003.64 223.013 3002.97 226.339L2997.78 252.807H2986.12L2995.25 206.72Z" fill="white"/>
<path fill-rule="evenodd" clip-rule="evenodd" d="M3125.12 206.72H3136.46L3135.17 213.373L3136.78 211.475C3140.45 207.515 3144.93 205.551 3150.18 205.551C3154.94 205.551 3158.38 206.948 3160.52 209.754C3162.64 212.562 3163.25 216.441 3162.22 221.423L3156 252.807H3144.35L3149.98 224.36C3150.56 221.423 3150.4 219.232 3149.51 217.819C3148.6 216.408 3146.94 215.711 3144.51 215.711C3141.51 215.711 3139 216.651 3136.93 218.518C3134.86 220.4 3133.5 223.013 3132.85 226.339L3127.64 252.807H3115.99L3125.12 206.72" fill="white"/>
<path fill-rule="evenodd" clip-rule="evenodd" d="M3181.15 178.159H3214.05C3220.38 178.159 3225.27 179.604 3228.64 182.442C3231.99 185.316 3233.66 189.438 3233.66 194.809V194.971C3233.66 195.993 3233.6 197.145 3233.5 198.394C3233.34 199.628 3233.13 200.877 3232.86 202.176C3231.41 209.284 3228.04 214.997 3222.84 219.329C3217.63 223.646 3211.45 225.82 3204.33 225.82H3186.68L3181.23 252.808H3165.95L3181.15 178.159ZM3189.37 212.839H3204.01C3207.82 212.839 3210.85 211.945 3213.06 210.177C3215.24 208.392 3216.69 205.666 3217.5 201.966C3217.63 201.283 3217.71 200.667 3217.8 200.099C3217.85 199.564 3217.92 199.027 3217.92 198.51C3217.92 195.864 3216.98 193.949 3215.11 192.748C3213.25 191.53 3210.32 190.947 3206.26 190.947H3193.83L3189.37 212.839Z" fill="white"/>
<path fill-rule="evenodd" clip-rule="evenodd" d="M3302.05 261.716C3297.22 272.069 3292.61 278.105 3289.91 280.912C3287.2 283.689 3281.84 290.147 3268.93 289.66L3270.04 281.758C3280.91 278.382 3286.78 263.175 3290.13 256.441L3286.14 206.849L3294.54 206.735H3301.6L3302.35 237.844L3315.57 206.735H3328.95L3302.05 261.716Z" fill="white"/>
<path fill-rule="evenodd" clip-rule="evenodd" d="M3264.64 210.485L3259.32 214.17C3253.77 209.788 3248.7 207.078 3238.91 211.654C3225.58 217.885 3214.44 265.677 3251.14 249.935L3253.24 252.434L3267.68 252.808L3277.16 209.381L3264.64 210.485ZM3256.42 234.226C3254.1 241.124 3248.92 245.683 3244.87 244.385C3240.81 243.12 3239.36 236.465 3241.71 229.553C3244.03 222.639 3249.24 218.096 3253.27 219.394C3257.33 220.66 3258.79 227.313 3256.42 234.226Z" fill="white"/>
<path d="M325.228 131.82H186.781V380.612H325.228V131.82Z" fill="#FF5F00"/>
<path d="M195.571 256.225C195.549 232.264 200.978 208.613 211.448 187.061C221.919 165.509 237.155 146.622 256.003 131.829C232.662 113.482 204.629 102.072 175.11 98.9037C145.591 95.7353 115.776 100.936 89.0725 113.912C62.3692 126.887 39.8553 147.114 24.1041 172.28C8.35298 197.446 0 226.536 0 256.225C0 285.914 8.35298 315.004 24.1041 340.17C39.8553 365.336 62.3692 385.562 89.0725 398.538C115.776 411.513 145.591 416.714 175.11 413.546C204.629 410.378 232.662 398.968 256.003 380.621C237.155 365.828 221.919 346.941 211.449 325.389C200.979 303.837 195.549 280.185 195.571 256.225Z" fill="#EB001B"/>
<path d="M512 256.225C512.001 285.913 503.649 315.003 487.899 340.169C472.149 365.335 449.636 385.562 422.933 398.538C396.23 411.513 366.415 416.714 336.896 413.546C307.378 410.378 279.346 398.968 256.005 380.621C274.837 365.813 290.061 346.922 300.529 325.374C310.998 303.825 316.437 280.181 316.437 256.225C316.437 232.268 310.998 208.624 300.529 187.076C290.061 165.527 274.837 146.637 256.005 131.828C279.346 113.482 307.378 102.072 336.896 98.9036C366.415 95.7353 396.23 100.936 422.933 113.912C449.636 126.888 472.149 147.114 487.899 172.28C503.649 197.447 512.001 226.536 512 256.225Z" fill="#F79E1B"/>
<path d="M496.905 354.265V349.171H498.959V348.134H493.729V349.171H495.783V354.265H496.905ZM507.06 354.265V348.124H505.457L503.613 352.348L501.768 348.124H500.164V354.265H501.296V349.632L503.026 353.626H504.199L505.929 349.622V354.265H507.06Z" fill="#F79E1B"/>
<path d="M933.509 175.921L899.303 335.84H857.929L892.138 175.921H933.509ZM1107.57 279.182L1129.34 219.13L1141.87 279.182H1107.57ZM1153.74 335.84H1192L1158.58 175.921H1123.29C1115.34 175.921 1108.63 180.532 1105.66 187.643L1043.59 335.84H1087.04L1095.66 311.957H1148.73L1153.74 335.84ZM1045.74 283.632C1045.92 241.426 987.397 239.088 987.789 220.23C987.915 214.5 993.382 208.397 1005.33 206.836C1011.26 206.073 1027.6 205.454 1046.13 213.993L1053.38 180.068C1043.43 176.467 1030.62 173 1014.68 173C973.783 173 945.012 194.725 944.782 225.859C944.519 248.883 965.334 261.72 980.984 269.388C997.119 277.226 1002.53 282.251 1002.45 289.254C1002.33 299.983 989.58 304.734 977.704 304.914C956.892 305.238 944.828 299.289 935.214 294.807L927.704 329.866C937.387 334.297 955.227 338.153 973.7 338.351C1017.18 338.351 1045.61 316.881 1045.74 283.632ZM874.391 175.921L807.357 335.84H763.63L730.64 208.213C728.64 200.365 726.896 197.48 720.813 194.164C710.865 188.761 694.441 183.708 680 180.564L680.978 175.921H751.376C760.343 175.921 768.41 181.888 770.464 192.218L787.891 284.765L830.927 175.921H874.391Z" fill="#1434CB"/>
<defs>
<linearGradient id="paint0_linear_8105_58" x1="1790.25" y1="232.332" x2="1930.89" y2="232.332" gradientUnits="userSpaceOnUse">
<stop stop-color="#007940"/>
<stop offset="0.2285" stop-color="#00873F"/>
<stop offset="0.7433" stop-color="#40A737"/>
<stop offset="1" stop-color="#5CB531"/>
</linearGradient>
<linearGradient id="paint1_linear_8105_58" x1="1790.25" y1="232.332" x2="1930.89" y2="232.332" gradientUnits="userSpaceOnUse">
<stop stop-color="#007940"/>
<stop offset="0.2285" stop-color="#00873F"/>
<stop offset="0.7433" stop-color="#40A737"/>
<stop offset="1" stop-color="#5CB531"/>
</linearGradient>
<linearGradient id="paint2_linear_8105_58" x1="1790.25" y1="232.332" x2="1930.89" y2="232.332" gradientUnits="userSpaceOnUse">
<stop stop-color="#007940"/>
<stop offset="0.2285" stop-color="#00873F"/>
<stop offset="0.7433" stop-color="#40A737"/>
<stop offset="1" stop-color="#5CB531"/>
</linearGradient>
<linearGradient id="paint3_linear_8105_58" x1="1475.41" y1="256.178" x2="1618.22" y2="256.178" gradientUnits="userSpaceOnUse">
<stop stop-color="#1F286F"/>
<stop offset="0.4751" stop-color="#004E94"/>
<stop offset="0.8261" stop-color="#0066B1"/>
<stop offset="1" stop-color="#006FBC"/>
</linearGradient>
<linearGradient id="paint4_linear_8105_58" x1="1632.08" y1="256.178" x2="1770.79" y2="256.178" gradientUnits="userSpaceOnUse">
<stop stop-color="#6C2C2F"/>
<stop offset="0.1735" stop-color="#882730"/>
<stop offset="0.5731" stop-color="#BE1833"/>
<stop offset="0.8585" stop-color="#DC0436"/>
<stop offset="1" stop-color="#E60039"/>
</linearGradient>
</defs>
</svg>
