<svg width="280" height="280" viewBox="0 0 280 280" fill="none" xmlns="http://www.w3.org/2000/svg">
<path d="M138.5 242C195.109 242 241 196.109 241 139.5C241 82.8908 195.109 37 138.5 37C81.8908 37 36 82.8908 36 139.5C36 196.109 81.8908 242 138.5 242Z" fill="#E7F1FF"/>
<g filter="url(#filter0_d_3208_12105)">
<path d="M52.3946 141L177 116.779L172.206 92.2131C172.044 91.3823 171.719 90.5915 171.251 89.8859C170.783 89.1802 170.18 88.5736 169.476 88.1005C168.773 87.6275 167.983 87.2973 167.152 87.1289C166.321 86.9605 165.465 86.9571 164.632 87.1189L50 128.729L52.3946 141Z" fill="#4992FF"/>
<path d="M239.086 73.213L134.254 42.7699C130.888 41.7924 127.367 43.7288 126.389 47.0949L115.77 83.6641C114.792 87.0302 116.728 90.5514 120.095 91.5289L224.926 121.972C228.292 122.949 231.814 121.013 232.791 117.647L243.411 81.0778C244.388 77.7117 242.452 74.1905 239.086 73.213Z" fill="#E70011"/>
<path d="M135.613 83.8704L143.725 55.9336L145.515 56.4533L137.402 84.3901L135.613 83.8704ZM146.292 66.3702C146.467 65.3875 146.253 64.5208 145.65 63.77C145.055 63.0213 144.158 62.4727 142.957 62.1241C142.113 61.879 141.352 61.7961 140.675 61.8754C139.997 61.9546 139.434 62.1661 138.988 62.5096C138.541 62.8532 138.232 63.304 138.062 63.8621C137.927 64.3277 137.915 64.7621 138.027 65.1653C138.146 65.5706 138.356 65.9472 138.657 66.295C138.961 66.6356 139.315 66.9514 139.719 67.2424C140.124 67.5334 140.54 67.8001 140.966 68.0423L142.909 69.1746C143.696 69.6161 144.43 70.1172 145.112 70.6779C145.8 71.2407 146.38 71.8666 146.85 72.5554C147.328 73.2464 147.644 74.0048 147.799 74.8307C147.953 75.6566 147.89 76.5533 147.609 77.5209C147.229 78.8304 146.559 79.8864 145.601 80.6887C144.644 81.4838 143.451 81.9776 142.023 82.1702C140.604 82.3576 138.999 82.1914 137.21 81.6717C135.471 81.1668 134.039 80.4592 132.915 79.549C131.798 78.6409 131.03 77.5657 130.61 76.3235C130.197 75.0834 130.177 73.7128 130.549 72.2118L134.533 73.3685C134.365 74.1638 134.417 74.881 134.689 75.5201C134.961 76.1592 135.398 76.7043 136.001 77.1554C136.611 77.6086 137.337 77.9578 138.181 78.2028C139.062 78.4585 139.871 78.5515 140.609 78.4818C141.356 78.407 141.988 78.1881 142.504 77.8251C143.021 77.4548 143.377 76.9505 143.57 76.3124C143.732 75.7283 143.7 75.1985 143.475 74.723C143.253 74.2402 142.877 73.7839 142.347 73.3539C141.826 72.9187 141.195 72.4831 140.454 72.047L138.102 70.6538C136.398 69.6464 135.151 68.5073 134.361 67.2364C133.58 65.9603 133.421 64.522 133.886 62.9215C134.269 61.6047 134.96 60.5551 135.96 59.7727C136.968 58.9924 138.169 58.509 139.564 58.3226C140.962 58.1288 142.443 58.2591 144.007 58.7133C145.593 59.1739 146.902 59.8538 147.935 60.7532C148.977 61.6475 149.698 62.6813 150.099 63.8548C150.502 65.021 150.531 66.2366 150.187 67.5015L146.292 66.3702Z" fill="white"/>
<path d="M163.509 64.7081L168.464 66.1469L170.396 84.2683L170.658 84.3443L181.996 70.0765L186.95 71.5153L180.46 93.8647L176.575 92.7365L181.034 77.3822L180.826 77.322L170.21 90.8171L167.307 89.9741L165.58 72.8589L165.372 72.7987L160.904 88.1857L157.019 87.0575L163.509 64.7081Z" fill="white"/>
<path d="M187.739 95.9784L183.417 94.7235L197.775 74.659L202.774 76.1104L204.162 100.748L199.841 99.4929L199.031 79.9934L198.856 79.9427L187.739 95.9784ZM190.425 87.2567L202.211 90.6793L201.267 93.9313L189.481 90.5087L190.425 87.2567Z" fill="white"/>
<path d="M216.979 80.2357L219.524 89.8496L219.699 89.9003L227.019 83.1513L231.635 84.4918L221.504 93.6668L225.254 106.873L220.562 105.51L217.946 95.9351L217.772 95.8844L210.434 102.569L205.764 101.213L216.069 92.0886L212.341 78.8889L216.979 80.2357Z" fill="white"/>
<path d="M50.0537 129.374L186.875 102.726C188.842 102.343 190.88 102.757 192.542 103.877C194.204 104.997 195.352 106.731 195.735 108.698L211.471 189.492C211.854 191.459 211.44 193.497 210.32 195.159C209.2 196.821 207.466 197.97 205.499 198.353L76.0943 223.556C74.1274 223.939 72.0888 223.525 70.4271 222.405C68.7654 221.285 67.6166 219.551 67.2335 217.584L50.0537 129.374Z" fill="#004EC2"/>
<path d="M151.763 142.03L199.59 132.715C201.557 132.332 203.595 132.746 205.257 133.866C206.919 134.985 208.068 136.72 208.451 138.687L212.003 156.925C212.386 158.892 211.972 160.93 210.852 162.592C209.732 164.254 207.998 165.403 206.031 165.786L158.204 175.1C157.827 175.174 157.437 175.095 157.119 174.88C156.801 174.666 156.582 174.334 156.508 173.958L150.62 143.725C150.547 143.349 150.626 142.959 150.84 142.641C151.055 142.323 151.386 142.103 151.763 142.03Z" fill="#B3D1FF"/>
<path d="M170.5 163C174.642 163 178 159.642 178 155.5C178 151.358 174.642 148 170.5 148C166.358 148 163 151.358 163 155.5C163 159.642 166.358 163 170.5 163Z" fill="#146EF5"/>
</g>
<defs>
<filter id="filter0_d_3208_12105" x="44" y="33.5165" width="205.664" height="193.178" filterUnits="userSpaceOnUse" color-interpolation-filters="sRGB">
<feFlood flood-opacity="0" result="BackgroundImageFix"/>
<feColorMatrix in="SourceAlpha" type="matrix" values="0 0 0 0 0 0 0 0 0 0 0 0 0 0 0 0 0 0 127 0" result="hardAlpha"/>
<feOffset dy="-3"/>
<feGaussianBlur stdDeviation="3"/>
<feColorMatrix type="matrix" values="0 0 0 0 0.788235 0 0 0 0 0.803922 0 0 0 0 0.85098 0 0 0 0.349 0"/>
<feBlend mode="normal" in2="BackgroundImageFix" result="effect1_dropShadow_3208_12105"/>
<feBlend mode="normal" in="SourceGraphic" in2="effect1_dropShadow_3208_12105" result="shape"/>
</filter>
</defs>
</svg>
