<svg width="280" height="280" viewBox="0 0 280 280" fill="none" xmlns="http://www.w3.org/2000/svg">
<path d="M138.5 242C195.109 242 241 196.109 241 139.5C241 82.8908 195.109 37 138.5 37C81.8908 37 36 82.8908 36 139.5C36 196.109 81.8908 242 138.5 242Z" fill="#E7F1FF"/>
<g filter="url(#filter0_d_3208_17103)">
<path d="M62.3946 126L187 101.779L182.206 77.2131C182.044 76.3823 181.719 75.5915 181.251 74.8859C180.783 74.1802 180.18 73.5736 179.476 73.1005C178.773 72.6275 177.983 72.2973 177.152 72.1289C176.321 71.9605 175.465 71.9571 174.632 72.1189L60 113.729L62.3946 126Z" fill="#00398F"/>
<path d="M161.311 29.7755L103.369 111.914C101.508 114.552 102.482 118.435 105.544 120.587L138.807 143.972C141.869 146.125 145.859 145.732 147.72 143.094L205.662 60.9555C207.523 58.318 206.549 54.435 203.487 52.2824L170.224 28.8974C167.162 26.7449 163.172 27.138 161.311 29.7755Z" fill="#B3D1FF"/>
<path d="M182.432 72.5534L157.021 54.6886L158.167 53.0631L183.579 70.9278L182.432 72.5534ZM168.458 55.7156C167.525 55.1987 166.575 55.114 165.607 55.4616C164.644 55.8026 163.778 56.5183 163.009 57.6086C162.468 58.3751 162.12 59.114 161.965 59.8253C161.81 60.5366 161.828 61.1772 162.02 61.7471C162.212 62.317 162.56 62.7843 163.065 63.1492C163.489 63.4469 163.924 63.6093 164.37 63.6363C164.821 63.6567 165.274 63.5752 165.73 63.3917C166.18 63.2036 166.622 62.9559 167.056 62.6485C167.491 62.3412 167.905 62.0142 168.298 61.6677L170.117 60.0996C170.836 59.4587 171.597 58.8917 172.4 58.3986C173.208 57.899 174.042 57.5312 174.901 57.2951C175.765 57.0525 176.642 56.9963 177.53 57.1265C178.418 57.2566 179.302 57.6311 180.182 58.2499C181.373 59.0873 182.208 60.1286 182.686 61.3739C183.157 62.6146 183.242 63.9889 182.94 65.4969C182.637 66.9937 181.911 68.5548 180.765 70.1804C179.651 71.7597 178.439 72.9587 177.129 73.7774C175.823 74.5896 174.47 74.9924 173.069 74.986C171.672 74.9729 170.28 74.5183 168.893 73.6221L171.445 70.0042C172.19 70.4492 172.933 70.6452 173.673 70.5922C174.414 70.5393 175.116 70.2869 175.781 69.8352C176.451 69.3769 177.056 68.7645 177.597 67.998C178.161 67.1984 178.536 66.4142 178.722 65.6454C178.906 64.8653 178.904 64.1523 178.717 63.5063C178.522 62.8556 178.136 62.3223 177.558 61.9063C177.024 61.5407 176.478 61.3889 175.92 61.451C175.354 61.5084 174.763 61.7299 174.144 62.1155C173.524 62.4899 172.864 62.9754 172.166 63.572L169.942 65.4628C168.332 66.8322 166.748 67.6955 165.189 68.0528C163.629 68.3988 162.12 68.0601 160.665 67.0366C159.467 66.1945 158.646 65.1333 158.203 63.853C157.765 62.5661 157.693 61.1865 157.99 59.7143C158.279 58.2373 158.925 56.7885 159.927 55.3678C160.943 53.9273 162.085 52.8419 163.353 52.1118C164.618 51.3704 165.913 51.0008 167.238 51.0031C168.556 51.0007 169.795 51.392 170.954 52.177L168.458 55.7156Z" fill="white"/>
<rect x="2.09175" y="-0.363032" width="100.541" height="42.9142" rx="2.5" transform="matrix(0.576431 -0.817146 0.818066 0.575125 107.382 117.078)" stroke="white" stroke-width="3"/>
<path d="M215.202 44.5753L135.626 106.07C133.071 108.044 132.858 112.042 135.15 114.998L160.049 147.119C162.341 150.076 166.27 150.872 168.826 148.897L248.401 87.403C250.956 85.4285 251.169 81.4309 248.877 78.4743L223.978 46.3535C221.686 43.3969 217.757 42.6007 215.202 44.5753Z" fill="#4992FF"/>
<path d="M222.994 93.0094L203.972 68.471L205.547 67.254L224.569 91.7925L222.994 93.0094ZM214.6 72.8114C213.861 72.0436 212.978 71.6836 211.951 71.7317C210.93 71.7747 209.891 72.2044 208.835 73.0207C208.093 73.5945 207.542 74.1986 207.184 74.8329C206.826 75.4671 206.655 76.0848 206.671 76.6859C206.686 77.287 206.881 77.836 207.256 78.333C207.573 78.742 207.941 79.0249 208.36 79.1818C208.785 79.3337 209.242 79.389 209.732 79.3476C210.217 79.2997 210.712 79.1928 211.218 79.0266C211.724 78.8605 212.216 78.6695 212.694 78.4537L214.894 77.489C215.77 77.0877 216.665 76.7693 217.578 76.5339C218.497 76.2936 219.402 76.1868 220.293 76.2136C221.19 76.2355 222.044 76.4391 222.855 76.8243C223.665 77.2096 224.4 77.8272 225.059 78.6771C225.95 79.8273 226.441 81.0677 226.53 82.3983C226.615 83.7225 226.291 85.0611 225.559 86.4139C224.828 87.7554 223.675 89.0347 222.1 90.2517C220.57 91.434 219.058 92.2241 217.565 92.622C216.078 93.0148 214.666 93.0024 213.329 92.5848C211.998 92.1622 210.802 91.3189 209.74 90.0549L213.245 87.3463C213.827 87.9905 214.479 88.396 215.202 88.5627C215.925 88.7295 216.671 88.6947 217.439 88.4583C218.214 88.2169 218.973 87.8093 219.716 87.2354C220.49 86.6368 221.08 85.9974 221.484 85.3171C221.89 84.6256 222.098 83.9435 222.109 83.2708C222.115 82.5918 221.903 81.9687 221.474 81.4014C221.071 80.8951 220.594 80.5896 220.042 80.4849C219.485 80.3738 218.854 80.4117 218.149 80.5987C217.446 80.7743 216.673 81.0447 215.83 81.41L213.146 82.5639C211.205 83.4002 209.437 83.7602 207.842 83.6439C206.248 83.5163 204.907 82.7495 203.817 81.3437C202.92 80.187 202.449 78.9318 202.402 77.5779C202.363 76.2191 202.701 74.8795 203.418 73.5592C204.13 72.2326 205.174 71.0374 206.55 69.9738C207.946 68.8953 209.357 68.1932 210.783 67.8676C212.211 67.5305 213.557 67.5577 214.823 67.9489C216.083 68.3338 217.152 69.0716 218.028 70.1622L214.6 72.8114Z" fill="white"/>
<rect x="2.10588" y="0.268309" width="100.591" height="42.8923" rx="2.5" transform="matrix(0.791264 -0.611475 0.612659 0.790347 137.544 111.693)" stroke="white" stroke-width="3"/>
<path d="M60.0537 114.374L196.875 87.7264C198.842 87.3434 200.88 87.7573 202.542 88.8773C204.204 89.9972 205.352 91.7314 205.735 93.6984L221.471 174.492C221.854 176.459 221.44 178.497 220.32 180.159C219.2 181.821 217.466 182.97 215.499 183.353L86.0943 208.556C84.1274 208.939 82.0888 208.525 80.4271 207.405C78.7654 206.285 77.6166 204.551 77.2335 202.584L60.0537 114.374Z" fill="#004EC2"/>
<path d="M161.763 127.03L209.59 117.715C211.557 117.332 213.595 117.746 215.257 118.866C216.919 119.985 218.068 121.72 218.451 123.687L222.003 141.925C222.386 143.892 221.972 145.93 220.852 147.592C219.732 149.254 217.998 150.403 216.031 150.786L168.204 160.1C167.827 160.174 167.437 160.095 167.119 159.88C166.801 159.666 166.582 159.334 166.508 158.958L160.62 128.725C160.547 128.349 160.626 127.959 160.84 127.641C161.055 127.323 161.386 127.103 161.763 127.03Z" fill="#B3D1FF"/>
<path d="M180.5 148C184.642 148 188 144.642 188 140.5C188 136.358 184.642 133 180.5 133C176.358 133 173 136.358 173 140.5C173 144.642 176.358 148 180.5 148Z" fill="#146EF5"/>
</g>
<rect x="36" y="152" width="95" height="95" rx="47.5" fill="white"/>
<path d="M83.5 152C57.3275 152 36 173.327 36 199.5C36 225.673 57.3275 247 83.5 247C109.673 247 131 225.673 131 199.5C131 173.327 109.673 152 83.5 152ZM106.205 188.575L79.2725 215.507C78.6075 216.173 77.705 216.552 76.755 216.552C75.805 216.552 74.9025 216.173 74.2375 215.507L60.795 202.065C59.4175 200.688 59.4175 198.407 60.795 197.03C62.1725 195.652 64.4525 195.652 65.83 197.03L76.755 207.955L101.17 183.54C102.548 182.163 104.828 182.163 106.205 183.54C107.583 184.918 107.583 187.15 106.205 188.575Z" fill="url(#paint0_linear_3208_17103)"/>
<defs>
<filter id="filter0_d_3208_17103" x="54" y="18.5087" width="202.466" height="193.186" filterUnits="userSpaceOnUse" color-interpolation-filters="sRGB">
<feFlood flood-opacity="0" result="BackgroundImageFix"/>
<feColorMatrix in="SourceAlpha" type="matrix" values="0 0 0 0 0 0 0 0 0 0 0 0 0 0 0 0 0 0 127 0" result="hardAlpha"/>
<feOffset dy="-3"/>
<feGaussianBlur stdDeviation="3"/>
<feColorMatrix type="matrix" values="0 0 0 0 0.788235 0 0 0 0 0.803922 0 0 0 0 0.85098 0 0 0 0.349 0"/>
<feBlend mode="normal" in2="BackgroundImageFix" result="effect1_dropShadow_3208_17103"/>
<feBlend mode="normal" in="SourceGraphic" in2="effect1_dropShadow_3208_17103" result="shape"/>
</filter>
<linearGradient id="paint0_linear_3208_17103" x1="51.8333" y1="168.713" x2="116.926" y2="232.926" gradientUnits="userSpaceOnUse">
<stop stop-color="#5AFF2D"/>
<stop offset="1" stop-color="#07FF8B"/>
</linearGradient>
</defs>
</svg>
