<svg width="280" height="280" viewBox="0 0 280 280" fill="none" xmlns="http://www.w3.org/2000/svg">
<path d="M138.5 242C195.109 242 241 196.109 241 139.5C241 82.8908 195.109 37 138.5 37C81.8908 37 36 82.8908 36 139.5C36 196.109 81.8908 242 138.5 242Z" fill="#E7F1FF"/>
<g filter="url(#filter0_d_3208_17432)">
<path d="M62.3946 126L187 101.779L182.206 77.2131C182.044 76.3823 181.719 75.5915 181.251 74.8859C180.783 74.1802 180.18 73.5736 179.476 73.1005C178.773 72.6275 177.983 72.2973 177.152 72.1289C176.321 71.9605 175.465 71.9571 174.632 72.1189L60 113.729L62.3946 126Z" fill="#00398F"/>
<path d="M60.0537 114.374L196.875 87.7264C198.842 87.3434 200.88 87.7573 202.542 88.8773C204.204 89.9972 205.352 91.7314 205.735 93.6984L221.471 174.492C221.854 176.459 221.44 178.497 220.32 180.159C219.2 181.821 217.466 182.97 215.499 183.353L86.0943 208.556C84.1274 208.939 82.0888 208.525 80.4271 207.405C78.7654 206.285 77.6166 204.551 77.2335 202.584L60.0537 114.374Z" fill="#004EC2"/>
<path d="M161.763 127.03L209.59 117.715C211.557 117.332 213.595 117.746 215.257 118.866C216.919 119.985 218.068 121.72 218.451 123.687L222.003 141.925C222.386 143.892 221.972 145.93 220.852 147.592C219.732 149.254 217.998 150.403 216.031 150.786L168.204 160.1C167.827 160.174 167.437 160.095 167.119 159.88C166.801 159.666 166.582 159.334 166.508 158.958L160.62 128.725C160.547 128.349 160.626 127.959 160.84 127.641C161.055 127.323 161.386 127.103 161.763 127.03Z" fill="#B3D1FF"/>
<path d="M180.5 148C184.642 148 188 144.642 188 140.5C188 136.358 184.642 133 180.5 133C176.358 133 173 136.358 173 140.5C173 144.642 176.358 148 180.5 148Z" fill="#146EF5"/>
</g>
<path d="M205.071 68.4938C204.806 68.065 204.718 67.5502 204.825 67.0577C204.932 66.5652 205.226 66.1335 205.645 65.8535L221.216 54.9926C222.146 54.3437 223.413 54.5669 224.003 55.4833L224.824 56.7605C225.413 57.6769 225.089 58.9172 224.11 59.4903L207.717 69.0737C207.286 69.3363 206.771 69.4225 206.278 69.3145C205.785 69.2065 205.353 68.9125 205.071 68.4938Z" fill="#7EB2FF"/>
<path d="M199.308 59.1985C199.176 59.1039 199.064 58.9843 198.978 58.8465C198.892 58.7086 198.834 58.5552 198.808 58.395C198.781 58.2348 198.786 58.071 198.823 57.9128C198.86 57.7547 198.928 57.6053 199.022 57.4733L206.027 47.2895C206.225 46.998 206.53 46.7968 206.876 46.7302C207.222 46.6635 207.58 46.7368 207.872 46.9339L208.691 47.5114C208.831 47.6114 208.948 47.7393 209.035 47.8869C209.122 48.0345 209.178 48.1986 209.199 48.3688C209.22 48.539 209.205 48.7117 209.156 48.876C209.106 49.0402 209.023 49.1925 208.912 49.3231L201.088 58.9297C200.879 59.1901 200.58 59.3623 200.251 59.4121C199.921 59.4619 199.584 59.3856 199.308 59.1985Z" fill="#00398F"/>
<path d="M187.257 61.8746C186.2 61.8584 185.385 60.8005 185.41 59.4761L185.846 35.9636C185.872 34.5592 186.828 33.4025 187.949 33.4201L189.512 33.4441C190.634 33.4614 191.469 34.6451 191.349 36.0482L189.35 59.5368C189.238 60.8596 188.314 61.8907 187.257 61.8746Z" fill="#7EB2FF"/>
<rect x="36" y="152" width="95" height="95" rx="47.5" fill="white"/>
<path d="M83.5 206.15L97.275 219.925C98.1458 220.796 99.2542 221.231 100.6 221.231C101.946 221.231 103.054 220.796 103.925 219.925C104.796 219.054 105.231 217.946 105.231 216.6C105.231 215.254 104.796 214.146 103.925 213.275L90.15 199.5L103.925 185.725C104.796 184.854 105.231 183.746 105.231 182.4C105.231 181.054 104.796 179.946 103.925 179.075C103.054 178.204 101.946 177.769 100.6 177.769C99.2542 177.769 98.1458 178.204 97.275 179.075L83.5 192.85L69.725 179.075C68.8542 178.204 67.7458 177.769 66.4 177.769C65.0542 177.769 63.9458 178.204 63.075 179.075C62.2042 179.946 61.7687 181.054 61.7687 182.4C61.7687 183.746 62.2042 184.854 63.075 185.725L76.85 199.5L63.075 213.275C62.2042 214.146 61.7687 215.254 61.7687 216.6C61.7687 217.946 62.2042 219.054 63.075 219.925C63.9458 220.796 65.0542 221.231 66.4 221.231C67.7458 221.231 68.8542 220.796 69.725 219.925L83.5 206.15ZM83.5 247C76.9292 247 70.7542 245.753 64.975 243.259C59.1958 240.766 54.1687 237.381 49.8938 233.106C45.6187 228.831 42.2344 223.804 39.7406 218.025C37.2469 212.246 36 206.071 36 199.5C36 192.929 37.2469 186.754 39.7406 180.975C42.2344 175.196 45.6187 170.169 49.8938 165.894C54.1687 161.619 59.1958 158.234 64.975 155.741C70.7542 153.247 76.9292 152 83.5 152C90.0708 152 96.2458 153.247 102.025 155.741C107.804 158.234 112.831 161.619 117.106 165.894C121.381 170.169 124.766 175.196 127.259 180.975C129.753 186.754 131 192.929 131 199.5C131 206.071 129.753 212.246 127.259 218.025C124.766 223.804 121.381 228.831 117.106 233.106C112.831 237.381 107.804 240.766 102.025 243.259C96.2458 245.753 90.0708 247 83.5 247Z" fill="#E70011"/>
<defs>
<filter id="filter0_d_3208_17432" x="54" y="63" width="174.143" height="148.695" filterUnits="userSpaceOnUse" color-interpolation-filters="sRGB">
<feFlood flood-opacity="0" result="BackgroundImageFix"/>
<feColorMatrix in="SourceAlpha" type="matrix" values="0 0 0 0 0 0 0 0 0 0 0 0 0 0 0 0 0 0 127 0" result="hardAlpha"/>
<feOffset dy="-3"/>
<feGaussianBlur stdDeviation="3"/>
<feColorMatrix type="matrix" values="0 0 0 0 0.788235 0 0 0 0 0.803922 0 0 0 0 0.85098 0 0 0 0.349 0"/>
<feBlend mode="normal" in2="BackgroundImageFix" result="effect1_dropShadow_3208_17432"/>
<feBlend mode="normal" in="SourceGraphic" in2="effect1_dropShadow_3208_17432" result="shape"/>
</filter>
</defs>
</svg>
