<svg width="280" height="280" viewBox="0 0 280 280" fill="none" xmlns="http://www.w3.org/2000/svg">
<path d="M52.663 127.029C52.663 127.029 91.4339 125.477 99.8124 61.7456C107.253 5.14629 172.631 30.9083 191.529 53.4701C216.01 82.6971 202.96 132.974 234.629 139.325C266.298 145.676 245.618 216.292 197.546 209.533C137.746 201.125 152.214 236.069 134.262 250.859C121.379 261.475 68.5513 251.256 66.7907 212.723C65.3091 180.297 51.6314 180.4 41.9365 176.723C27.9543 171.421 19.1439 133.017 52.663 127.029Z" fill="#E7F1FF"/>
<g filter="url(#filter0_d_3201_3923)">
<path d="M162.552 75.9999H258.448C259.39 75.9999 260.294 76.5267 260.96 77.4644C261.626 78.4021 262 79.6739 262 80.9999V106C262 107.326 261.626 108.598 260.96 109.535C260.294 110.473 259.39 111 258.448 111H162.552C161.61 111 160.706 110.473 160.04 109.535C159.374 108.598 159 107.326 159 106V80.9999C159 79.6739 159.374 78.4021 160.04 77.4644C160.706 76.5267 161.61 75.9999 162.552 75.9999V75.9999Z" fill="white"/>
</g>
<path d="M228 83.9999H202C200.343 83.9999 199 85.3431 199 86.9999C199 88.6568 200.343 89.9999 202 89.9999H228C229.657 89.9999 231 88.6568 231 86.9999C231 85.3431 229.657 83.9999 228 83.9999Z" fill="#B3D1FF"/>
<path d="M246 96.9999H202C200.343 96.9999 199 98.3431 199 99.9999C199 101.657 200.343 103 202 103H246C247.657 103 249 101.657 249 99.9999C249 98.3431 247.657 96.9999 246 96.9999Z" fill="#E7F1FF"/>
<path d="M186 78.9999H167C164.239 78.9999 162 81.2385 162 83.9999V103C162 105.761 164.239 108 167 108H186C188.761 108 191 105.761 191 103V83.9999C191 81.2385 188.761 78.9999 186 78.9999Z" fill="#146EF5"/>
<path d="M174.222 96.7799H176.222L176.244 96.0099C176.244 94.9979 176.882 94.7339 177.784 94.4479C178.689 94.1906 179.485 93.6456 180.053 92.8954C180.62 92.1452 180.928 91.2307 180.93 90.2899C180.95 89.7156 180.85 89.1434 180.637 88.6095C180.424 88.0757 180.103 87.5918 179.694 87.1886C179.284 86.7853 178.795 86.4715 178.258 86.2669C177.721 86.0623 177.148 85.9714 176.574 85.9999C175.967 85.9867 175.364 86.0969 174.801 86.3237C174.239 86.5505 173.728 86.8892 173.3 87.3193C172.872 87.7495 172.536 88.2621 172.312 88.826C172.088 89.3899 171.981 89.9934 171.998 90.5999H174.066C174.058 90.2651 174.117 89.932 174.239 89.6202C174.362 89.3085 174.546 89.0243 174.779 88.7844C175.013 88.5445 175.292 88.3536 175.601 88.2231C175.909 88.0925 176.241 88.0248 176.576 88.0239C176.878 88.0064 177.18 88.0542 177.462 88.1639C177.744 88.2736 177.999 88.4427 178.21 88.6598C178.421 88.8769 178.582 89.1368 178.684 89.4219C178.785 89.7069 178.824 90.0105 178.798 90.3119C178.784 90.7998 178.615 91.2706 178.314 91.6547C178.013 92.0389 177.596 92.3163 177.126 92.4459L176.4 92.7339C175.689 92.9052 175.068 93.3372 174.661 93.9442C174.254 94.5513 174.089 95.2893 174.2 96.0119L174.222 96.7799ZM175.212 101.534C175.408 101.541 175.603 101.509 175.786 101.439C175.969 101.369 176.136 101.263 176.278 101.128C176.419 100.992 176.532 100.829 176.61 100.65C176.687 100.47 176.728 100.276 176.73 100.08C176.728 99.8842 176.687 99.6907 176.609 99.511C176.532 99.3313 176.419 99.169 176.277 99.0336C176.136 98.8983 175.968 98.7927 175.785 98.723C175.602 98.6533 175.407 98.621 175.212 98.6279C175.016 98.621 174.821 98.6533 174.638 98.723C174.455 98.7927 174.288 98.8983 174.146 99.0336C174.005 99.169 173.892 99.3313 173.814 99.511C173.736 99.6907 173.695 99.8842 173.694 100.08C173.695 100.276 173.736 100.47 173.814 100.65C173.891 100.829 174.004 100.992 174.146 101.128C174.287 101.263 174.454 101.369 174.638 101.439C174.821 101.509 175.016 101.541 175.212 101.534Z" fill="white"/>
<g filter="url(#filter1_d_3201_3923)">
<path d="M130.552 127H226.448C227.39 127 228.294 127.527 228.96 128.464C229.626 129.402 230 130.674 230 132V157C230 158.326 229.626 159.598 228.96 160.535C228.294 161.473 227.39 162 226.448 162H130.552C129.61 162 128.706 161.473 128.04 160.535C127.374 159.598 127 158.326 127 157V132C127 130.674 127.374 129.402 128.04 128.464C128.706 127.527 129.61 127 130.552 127V127Z" fill="white"/>
</g>
<path d="M196 135H170C168.343 135 167 136.343 167 138C167 139.657 168.343 141 170 141H196C197.657 141 199 139.657 199 138C199 136.343 197.657 135 196 135Z" fill="#B3D1FF"/>
<path d="M214 148H170C168.343 148 167 149.343 167 151C167 152.657 168.343 154 170 154H214C215.657 154 217 152.657 217 151C217 149.343 215.657 148 214 148Z" fill="#E7F1FF"/>
<path d="M154 130H135C132.239 130 130 132.239 130 135V154C130 156.761 132.239 159 135 159H154C156.761 159 159 156.761 159 154V135C159 132.239 156.761 130 154 130Z" fill="#7EB2FF"/>
<path d="M142.222 147.78H144.222L144.244 147.01C144.244 145.998 144.882 145.734 145.784 145.448C146.689 145.191 147.485 144.646 148.053 143.895C148.62 143.145 148.928 142.231 148.93 141.29C148.95 140.716 148.85 140.143 148.637 139.61C148.424 139.076 148.103 138.592 147.694 138.189C147.284 137.785 146.795 137.471 146.258 137.267C145.721 137.062 145.148 136.971 144.574 137C143.967 136.987 143.364 137.097 142.801 137.324C142.239 137.55 141.728 137.889 141.3 138.319C140.872 138.749 140.536 139.262 140.312 139.826C140.088 140.39 139.981 140.993 139.998 141.6H142.066C142.058 141.265 142.117 140.932 142.239 140.62C142.362 140.308 142.546 140.024 142.779 139.784C143.013 139.544 143.292 139.354 143.601 139.223C143.909 139.092 144.241 139.025 144.576 139.024C144.878 139.006 145.18 139.054 145.462 139.164C145.744 139.274 145.999 139.443 146.21 139.66C146.421 139.877 146.582 140.137 146.684 140.422C146.785 140.707 146.824 141.011 146.798 141.312C146.784 141.8 146.615 142.271 146.314 142.655C146.013 143.039 145.596 143.316 145.126 143.446L144.4 143.734C143.689 143.905 143.068 144.337 142.661 144.944C142.254 145.551 142.089 146.289 142.2 147.012L142.222 147.78ZM143.212 152.534C143.408 152.541 143.603 152.509 143.786 152.439C143.969 152.369 144.136 152.263 144.278 152.128C144.419 151.992 144.532 151.829 144.61 151.65C144.687 151.47 144.728 151.276 144.73 151.08C144.728 150.884 144.687 150.691 144.609 150.511C144.532 150.331 144.419 150.169 144.277 150.034C144.136 149.898 143.968 149.793 143.785 149.723C143.602 149.653 143.407 149.621 143.212 149.628C143.016 149.621 142.821 149.653 142.638 149.723C142.455 149.793 142.288 149.898 142.146 150.034C142.005 150.169 141.892 150.331 141.814 150.511C141.736 150.691 141.695 150.884 141.694 151.08C141.695 151.276 141.736 151.47 141.814 151.65C141.891 151.829 142.004 151.992 142.146 152.128C142.287 152.263 142.454 152.369 142.638 152.439C142.821 152.509 143.016 152.541 143.212 152.534Z" fill="white"/>
<g filter="url(#filter2_d_3201_3923)">
<path d="M187.301 202.608L149.21 164.969L141.667 172.602L179.759 210.242L187.301 202.608Z" fill="#7EB2FF"/>
<path d="M201.852 212.722L172.217 183.439C172.052 183.276 171.786 183.277 171.623 183.442L160.406 194.794C160.243 194.959 160.245 195.224 160.41 195.388L190.045 224.671C190.21 224.834 190.476 224.832 190.639 224.667L201.855 213.316C202.018 213.151 202.017 212.885 201.852 212.722Z" fill="#146EF5"/>
<path d="M115.449 183.899C141.655 183.899 162.899 162.655 162.899 136.449C162.899 110.244 141.655 88.9999 115.449 88.9999C89.2439 88.9999 68 110.244 68 136.449C68 162.655 89.2439 183.899 115.449 183.899Z" fill="#146EF5"/>
<path d="M115.449 176.157C137.379 176.157 155.157 158.379 155.157 136.45C155.157 114.52 137.379 96.7424 115.449 96.7424C93.5197 96.7424 75.7422 114.52 75.7422 136.45C75.7422 158.379 93.5197 176.157 115.449 176.157Z" fill="white"/>
</g>
<defs>
<filter id="filter0_d_3201_3923" x="153" y="66.9999" width="115" height="47" filterUnits="userSpaceOnUse" color-interpolation-filters="sRGB">
<feFlood flood-opacity="0" result="BackgroundImageFix"/>
<feColorMatrix in="SourceAlpha" type="matrix" values="0 0 0 0 0 0 0 0 0 0 0 0 0 0 0 0 0 0 127 0" result="hardAlpha"/>
<feOffset dy="-3"/>
<feGaussianBlur stdDeviation="3"/>
<feColorMatrix type="matrix" values="0 0 0 0 0.788235 0 0 0 0 0.803922 0 0 0 0 0.85098 0 0 0 0.349 0"/>
<feBlend mode="normal" in2="BackgroundImageFix" result="effect1_dropShadow_3201_3923"/>
<feBlend mode="normal" in="SourceGraphic" in2="effect1_dropShadow_3201_3923" result="shape"/>
</filter>
<filter id="filter1_d_3201_3923" x="121" y="118" width="115" height="47" filterUnits="userSpaceOnUse" color-interpolation-filters="sRGB">
<feFlood flood-opacity="0" result="BackgroundImageFix"/>
<feColorMatrix in="SourceAlpha" type="matrix" values="0 0 0 0 0 0 0 0 0 0 0 0 0 0 0 0 0 0 127 0" result="hardAlpha"/>
<feOffset dy="-3"/>
<feGaussianBlur stdDeviation="3"/>
<feColorMatrix type="matrix" values="0 0 0 0 0.788235 0 0 0 0 0.803922 0 0 0 0 0.85098 0 0 0 0.349 0"/>
<feBlend mode="normal" in2="BackgroundImageFix" result="effect1_dropShadow_3201_3923"/>
<feBlend mode="normal" in="SourceGraphic" in2="effect1_dropShadow_3201_3923" result="shape"/>
</filter>
<filter id="filter2_d_3201_3923" x="62" y="79.9999" width="145.977" height="147.792" filterUnits="userSpaceOnUse" color-interpolation-filters="sRGB">
<feFlood flood-opacity="0" result="BackgroundImageFix"/>
<feColorMatrix in="SourceAlpha" type="matrix" values="0 0 0 0 0 0 0 0 0 0 0 0 0 0 0 0 0 0 127 0" result="hardAlpha"/>
<feOffset dy="-3"/>
<feGaussianBlur stdDeviation="3"/>
<feColorMatrix type="matrix" values="0 0 0 0 0.788235 0 0 0 0 0.803922 0 0 0 0 0.85098 0 0 0 0.349 0"/>
<feBlend mode="normal" in2="BackgroundImageFix" result="effect1_dropShadow_3201_3923"/>
<feBlend mode="normal" in="SourceGraphic" in2="effect1_dropShadow_3201_3923" result="shape"/>
</filter>
</defs>
</svg>
